  0
SECTION
  2
HEADER
  9
$ACADVER
  1
AC1009
  9
$EXTMIN
 10
0.0
 20
0.0
 30
0.0
  9
$EXTMAX
 10
1000.0
 20
1000.0
 30
0.0
  9
$FILLMODE
 70
 0
  9
$SPLFRAME
 70
 1
  0
ENDSEC
  0
SECTION
  2
TABLES
  0
TABLE
  2
LAYER
 70
1
  0
LAYER
  2
0
 70
     0
 62
     7
  6
CONTINUOUS
  0
ENDTAB
  0
ENDSEC
  0
SECTION
  2
ENTITIES
  0
LINE
  8
0
 62
     0
 10
282.47
 20
95.0239
 30
0.0
 11
282.706
 21
95.0158
 31
0.0
  0
LINE
  8
0
 62
     0
 10
282.706
 20
95.0158
 30
0.0
 11
282.94
 21
94.9882
 31
0.0
  0
LINE
  8
0
 62
     0
 10
282.94
 20
94.9882
 30
0.0
 11
283.17
 21
94.9427
 31
0.0
  0
LINE
  8
0
 62
     0
 10
283.17
 20
94.9427
 30
0.0
 11
283.398
 21
94.8778
 31
0.0
  0
LINE
  8
0
 62
     0
 10
283.398
 20
94.8778
 30
0.0
 11
283.618
 21
94.7967
 31
0.0
  0
LINE
  8
0
 62
     0
 10
283.618
 20
94.7967
 30
0.0
 11
283.832
 21
94.699
 31
0.0
  0
LINE
  8
0
 62
     0
 10
283.832
 20
94.699
 30
0.0
 11
284.037
 21
94.5815
 31
0.0
  0
LINE
  8
0
 62
     0
 10
284.037
 20
94.5815
 30
0.0
 11
284.233
 21
94.452
 31
0.0
  0
LINE
  8
0
 62
     0
 10
284.233
 20
94.452
 30
0.0
 11
284.419
 21
94.306
 31
0.0
  0
LINE
  8
0
 62
     0
 10
284.419
 20
94.306
 30
0.0
 11
284.591
 21
94.1462
 31
0.0
  0
LINE
  8
0
 62
     0
 10
284.591
 20
94.1462
 30
0.0
 11
284.751
 21
93.9726
 31
0.0
  0
LINE
  8
0
 62
     0
 10
284.751
 20
93.9726
 30
0.0
 11
284.897
 21
93.7877
 31
0.0
  0
LINE
  8
0
 62
     0
 10
284.897
 20
93.7877
 30
0.0
 11
285.028
 21
93.5923
 31
0.0
  0
LINE
  8
0
 62
     0
 10
285.028
 20
93.5923
 30
0.0
 11
285.144
 21
93.3856
 31
0.0
  0
LINE
  8
0
 62
     0
 10
285.144
 20
93.3856
 30
0.0
 11
285.242
 21
93.1732
 31
0.0
  0
LINE
  8
0
 62
     0
 10
285.242
 20
93.1732
 30
0.0
 11
285.323
 21
92.9513
 31
0.0
  0
LINE
  8
0
 62
     0
 10
285.323
 20
92.9513
 30
0.0
 11
285.388
 21
92.7255
 31
0.0
  0
LINE
  8
0
 62
     0
 10
285.388
 20
92.7255
 30
0.0
 11
285.433
 21
92.4941
 31
0.0
  0
LINE
  8
0
 62
     0
 10
285.433
 20
92.4941
 30
0.0
 11
285.461
 21
92.2595
 31
0.0
  0
LINE
  8
0
 62
     0
 10
285.461
 20
92.2595
 30
0.0
 11
285.47
 21
92.0239
 31
0.0
  0
LINE
  8
0
 62
     0
 10
285.47
 20
92.0239
 30
0.0
 11
285.47
 21
39.8611
 31
0.0
  0
LINE
  8
0
 62
     0
 10
285.47
 20
39.8611
 30
0.0
 11
280.97
 21
39.8625
 31
0.0
  0
LINE
  8
0
 62
     0
 10
280.97
 20
39.8625
 30
0.0
 11
280.505
 21
39.788
 31
0.0
  0
LINE
  8
0
 62
     0
 10
280.505
 20
39.788
 30
0.0
 11
280.088
 21
39.5746
 31
0.0
  0
LINE
  8
0
 62
     0
 10
280.088
 20
39.5746
 30
0.0
 11
279.757
 21
39.2437
 31
0.0
  0
LINE
  8
0
 62
     0
 10
279.757
 20
39.2437
 30
0.0
 11
279.543
 21
38.8264
 31
0.0
  0
LINE
  8
0
 62
     0
 10
279.543
 20
38.8264
 30
0.0
 11
279.47
 21
38.3618
 31
0.0
  0
LINE
  8
0
 62
     0
 10
279.47
 20
38.3618
 30
0.0
 11
279.47
 21
38.3603
 31
0.0
  0
LINE
  8
0
 62
     0
 10
279.47
 20
38.3603
 30
0.0
 11
279.543
 21
37.8961
 31
0.0
  0
LINE
  8
0
 62
     0
 10
279.543
 20
37.8961
 30
0.0
 11
279.757
 21
37.4784
 31
0.0
  0
LINE
  8
0
 62
     0
 10
279.757
 20
37.4784
 30
0.0
 11
280.088
 21
37.1479
 31
0.0
  0
LINE
  8
0
 62
     0
 10
280.088
 20
37.1479
 30
0.0
 11
280.505
 21
36.9355
 31
0.0
  0
LINE
  8
0
 62
     0
 10
280.505
 20
36.9355
 30
0.0
 11
280.97
 21
36.861
 31
0.0
  0
LINE
  8
0
 62
     0
 10
280.97
 20
36.861
 30
0.0
 11
285.47
 21
36.861
 31
0.0
  0
LINE
  8
0
 62
     0
 10
285.47
 20
36.861
 30
0.0
 11
285.47
 21
3.09645
 31
0.0
  0
LINE
  8
0
 62
     0
 10
285.47
 20
3.09645
 30
0.0
 11
285.461
 21
2.86219
 31
0.0
  0
LINE
  8
0
 62
     0
 10
285.461
 20
2.86219
 30
0.0
 11
285.433
 21
2.6293
 31
0.0
  0
LINE
  8
0
 62
     0
 10
285.433
 20
2.6293
 30
0.0
 11
285.388
 21
2.39779
 31
0.0
  0
LINE
  8
0
 62
     0
 10
285.388
 20
2.39779
 30
0.0
 11
285.323
 21
2.17041
 31
0.0
  0
LINE
  8
0
 62
     0
 10
285.323
 20
2.17041
 30
0.0
 11
285.242
 21
1.94992
 31
0.0
  0
LINE
  8
0
 62
     0
 10
285.242
 20
1.94992
 30
0.0
 11
285.144
 21
1.73633
 31
0.0
  0
LINE
  8
0
 62
     0
 10
285.144
 20
1.73633
 30
0.0
 11
285.028
 21
1.531
 31
0.0
  0
LINE
  8
0
 62
     0
 10
285.028
 20
1.531
 30
0.0
 11
284.897
 21
1.33532
 31
0.0
  0
LINE
  8
0
 62
     0
 10
284.897
 20
1.33532
 30
0.0
 11
284.751
 21
1.15066
 31
0.0
  0
LINE
  8
0
 62
     0
 10
284.751
 20
1.15066
 30
0.0
 11
284.591
 21
0.977029
 31
0.0
  0
LINE
  8
0
 62
     0
 10
284.591
 20
0.977029
 30
0.0
 11
284.419
 21
0.817178
 31
0.0
  0
LINE
  8
0
 62
     0
 10
284.419
 20
0.817178
 30
0.0
 11
284.233
 21
0.671103
 31
0.0
  0
LINE
  8
0
 62
     0
 10
284.233
 20
0.671103
 30
0.0
 11
284.037
 21
0.540191
 31
0.0
  0
LINE
  8
0
 62
     0
 10
284.037
 20
0.540191
 30
0.0
 11
283.832
 21
0.424438
 31
0.0
  0
LINE
  8
0
 62
     0
 10
283.832
 20
0.424438
 30
0.0
 11
283.618
 21
0.326595
 31
0.0
  0
LINE
  8
0
 62
     0
 10
283.618
 20
0.326595
 30
0.0
 11
283.398
 21
0.245291
 31
0.0
  0
LINE
  8
0
 62
     0
 10
283.398
 20
0.245291
 30
0.0
 11
283.17
 21
0.180523
 31
0.0
  0
LINE
  8
0
 62
     0
 10
283.17
 20
0.180523
 30
0.0
 11
282.94
 21
0.135048
 31
0.0
  0
LINE
  8
0
 62
     0
 10
282.94
 20
0.135048
 30
0.0
 11
282.706
 21
0.107487
 31
0.0
  0
LINE
  8
0
 62
     0
 10
282.706
 20
0.107487
 30
0.0
 11
282.47
 21
0.0964629
 31
0.0
  0
LINE
  8
0
 62
     0
 10
282.47
 20
0.0964629
 30
0.0
 11
3.09507
 21
0.0964629
 31
0.0
  0
LINE
  8
0
 62
     0
 10
3.09507
 20
0.0964629
 30
0.0
 11
2.85943
 21
0.107487
 31
0.0
  0
LINE
  8
0
 62
     0
 10
2.85943
 20
0.107487
 30
0.0
 11
2.62516
 21
0.135048
 31
0.0
  0
LINE
  8
0
 62
     0
 10
2.62516
 20
0.135048
 30
0.0
 11
2.39365
 21
0.180523
 31
0.0
  0
LINE
  8
0
 62
     0
 10
2.39365
 20
0.180523
 30
0.0
 11
2.16765
 21
0.245291
 31
0.0
  0
LINE
  8
0
 62
     0
 10
2.16765
 20
0.245291
 30
0.0
 11
1.94579
 21
0.326595
 31
0.0
  0
LINE
  8
0
 62
     0
 10
1.94579
 20
0.326595
 30
0.0
 11
1.73357
 21
0.424438
 31
0.0
  0
LINE
  8
0
 62
     0
 10
1.73357
 20
0.424438
 30
0.0
 11
1.52687
 21
0.540191
 31
0.0
  0
LINE
  8
0
 62
     0
 10
1.52687
 20
0.540191
 30
0.0
 11
1.33119
 21
0.671103
 31
0.0
  0
LINE
  8
0
 62
     0
 10
1.33119
 20
0.671103
 30
0.0
 11
1.14653
 21
0.817178
 31
0.0
  0
LINE
  8
0
 62
     0
 10
1.14653
 20
0.817178
 30
0.0
 11
0.972894
 21
0.977029
 31
0.0
  0
LINE
  8
0
 62
     0
 10
0.972894
 20
0.977029
 30
0.0
 11
0.813043
 21
1.15066
 31
0.0
  0
LINE
  8
0
 62
     0
 10
0.813043
 20
1.15066
 30
0.0
 11
0.666972
 21
1.33532
 31
0.0
  0
LINE
  8
0
 62
     0
 10
0.666972
 20
1.33532
 30
0.0
 11
0.537436
 21
1.531
 31
0.0
  0
LINE
  8
0
 62
     0
 10
0.537436
 20
1.531
 30
0.0
 11
0.421679
 21
1.73633
 31
0.0
  0
LINE
  8
0
 62
     0
 10
0.421679
 20
1.73633
 30
0.0
 11
0.323839
 21
1.94992
 31
0.0
  0
LINE
  8
0
 62
     0
 10
0.323839
 20
1.94992
 30
0.0
 11
0.241157
 21
2.17041
 31
0.0
  0
LINE
  8
0
 62
     0
 10
0.241157
 20
2.17041
 30
0.0
 11
0.177767
 21
2.39779
 31
0.0
  0
LINE
  8
0
 62
     0
 10
0.177767
 20
2.39779
 30
0.0
 11
0.130914
 21
2.6293
 31
0.0
  0
LINE
  8
0
 62
     0
 10
0.130914
 20
2.6293
 30
0.0
 11
0.104731
 21
2.86219
 31
0.0
  0
LINE
  8
0
 62
     0
 10
0.104731
 20
2.86219
 30
0.0
 11
0.0937066
 21
3.09921
 31
0.0
  0
LINE
  8
0
 62
     0
 10
0.0937066
 20
3.09921
 30
0.0
 11
0.0937066
 21
36.861
 31
0.0
  0
LINE
  8
0
 62
     0
 10
0.0937066
 20
36.861
 30
0.0
 11
4.59574
 21
36.861
 31
0.0
  0
LINE
  8
0
 62
     0
 10
4.59574
 20
36.861
 30
0.0
 11
5.05876
 21
36.9355
 31
0.0
  0
LINE
  8
0
 62
     0
 10
5.05876
 20
36.9355
 30
0.0
 11
5.47769
 21
37.1479
 31
0.0
  0
LINE
  8
0
 62
     0
 10
5.47769
 20
37.1479
 30
0.0
 11
5.80842
 21
37.4784
 31
0.0
  0
LINE
  8
0
 62
     0
 10
5.80842
 20
37.4784
 30
0.0
 11
6.02065
 21
37.8961
 31
0.0
  0
LINE
  8
0
 62
     0
 10
6.02065
 20
37.8961
 30
0.0
 11
6.09505
 21
38.3603
 31
0.0
  0
LINE
  8
0
 62
     0
 10
6.09505
 20
38.3603
 30
0.0
 11
6.09367
 21
38.3618
 31
0.0
  0
LINE
  8
0
 62
     0
 10
6.09367
 20
38.3618
 30
0.0
 11
6.02065
 21
38.8264
 31
0.0
  0
LINE
  8
0
 62
     0
 10
6.02065
 20
38.8264
 30
0.0
 11
5.80842
 21
39.2437
 31
0.0
  0
LINE
  8
0
 62
     0
 10
5.80842
 20
39.2437
 30
0.0
 11
5.47769
 21
39.5746
 31
0.0
  0
LINE
  8
0
 62
     0
 10
5.47769
 20
39.5746
 30
0.0
 11
5.05876
 21
39.788
 31
0.0
  0
LINE
  8
0
 62
     0
 10
5.05876
 20
39.788
 30
0.0
 11
4.59574
 21
39.8611
 31
0.0
  0
LINE
  8
0
 62
     0
 10
4.59574
 20
39.8611
 30
0.0
 11
0.0937066
 21
39.8625
 31
0.0
  0
LINE
  8
0
 62
     0
 10
0.0937066
 20
39.8625
 30
0.0
 11
0.0950846
 21
92.0239
 31
0.0
  0
LINE
  8
0
 62
     0
 10
0.0950846
 20
92.0239
 30
0.0
 11
0.104731
 21
92.2595
 31
0.0
  0
LINE
  8
0
 62
     0
 10
0.104731
 20
92.2595
 30
0.0
 11
0.130914
 21
92.4941
 31
0.0
  0
LINE
  8
0
 62
     0
 10
0.130914
 20
92.4941
 30
0.0
 11
0.177767
 21
92.7255
 31
0.0
  0
LINE
  8
0
 62
     0
 10
0.177767
 20
92.7255
 30
0.0
 11
0.241157
 21
92.9513
 31
0.0
  0
LINE
  8
0
 62
     0
 10
0.241157
 20
92.9513
 30
0.0
 11
0.323839
 21
93.1732
 31
0.0
  0
LINE
  8
0
 62
     0
 10
0.323839
 20
93.1732
 30
0.0
 11
0.421679
 21
93.3856
 31
0.0
  0
LINE
  8
0
 62
     0
 10
0.421679
 20
93.3856
 30
0.0
 11
0.537436
 21
93.5923
 31
0.0
  0
LINE
  8
0
 62
     0
 10
0.537436
 20
93.5923
 30
0.0
 11
0.666972
 21
93.7877
 31
0.0
  0
LINE
  8
0
 62
     0
 10
0.666972
 20
93.7877
 30
0.0
 11
0.813043
 21
93.9726
 31
0.0
  0
LINE
  8
0
 62
     0
 10
0.813043
 20
93.9726
 30
0.0
 11
0.972894
 21
94.1462
 31
0.0
  0
LINE
  8
0
 62
     0
 10
0.972894
 20
94.1462
 30
0.0
 11
1.14653
 21
94.306
 31
0.0
  0
LINE
  8
0
 62
     0
 10
1.14653
 20
94.306
 30
0.0
 11
1.33119
 21
94.452
 31
0.0
  0
LINE
  8
0
 62
     0
 10
1.33119
 20
94.452
 30
0.0
 11
1.52687
 21
94.5815
 31
0.0
  0
LINE
  8
0
 62
     0
 10
1.52687
 20
94.5815
 30
0.0
 11
1.73357
 21
94.699
 31
0.0
  0
LINE
  8
0
 62
     0
 10
1.73357
 20
94.699
 30
0.0
 11
1.94579
 21
94.7967
 31
0.0
  0
LINE
  8
0
 62
     0
 10
1.94579
 20
94.7967
 30
0.0
 11
2.16765
 21
94.8778
 31
0.0
  0
LINE
  8
0
 62
     0
 10
2.16765
 20
94.8778
 30
0.0
 11
2.39365
 21
94.9427
 31
0.0
  0
LINE
  8
0
 62
     0
 10
2.39365
 20
94.9427
 30
0.0
 11
2.62516
 21
94.9882
 31
0.0
  0
LINE
  8
0
 62
     0
 10
2.62516
 20
94.9882
 30
0.0
 11
2.85943
 21
95.0158
 31
0.0
  0
LINE
  8
0
 62
     0
 10
2.85943
 20
95.0158
 30
0.0
 11
3.09507
 21
95.0253
 31
0.0
  0
LINE
  8
0
 62
     0
 10
3.09507
 20
95.0253
 30
0.0
 11
282.47
 21
95.0239
 31
0.0
  0
LINE
  8
0
 62
     0
 10
126.257
 20
16.4621
 30
0.0
 11
126.257
 21
15.4616
 31
0.0
  0
LINE
  8
0
 62
     0
 10
126.257
 20
15.4616
 30
0.0
 11
125.457
 21
15.4616
 31
0.0
  0
LINE
  8
0
 62
     0
 10
125.457
 20
15.4616
 30
0.0
 11
125.457
 21
12.361
 31
0.0
  0
LINE
  8
0
 62
     0
 10
125.457
 20
12.361
 30
0.0
 11
126.257
 21
12.361
 31
0.0
  0
LINE
  8
0
 62
     0
 10
126.257
 20
12.361
 30
0.0
 11
126.257
 21
11.7615
 31
0.0
  0
LINE
  8
0
 62
     0
 10
126.257
 20
11.7615
 30
0.0
 11
117.581
 21
11.7615
 31
0.0
  0
LINE
  8
0
 62
     0
 10
117.581
 20
11.7615
 30
0.0
 11
117.581
 21
14.9917
 31
0.0
  0
LINE
  8
0
 62
     0
 10
117.581
 20
14.9917
 30
0.0
 11
115.857
 21
14.9917
 31
0.0
  0
LINE
  8
0
 62
     0
 10
115.857
 20
14.9917
 30
0.0
 11
115.857
 21
15.9122
 31
0.0
  0
LINE
  8
0
 62
     0
 10
115.857
 20
15.9122
 30
0.0
 11
112.557
 21
15.9122
 31
0.0
  0
LINE
  8
0
 62
     0
 10
112.557
 20
15.9122
 30
0.0
 11
112.557
 21
14.9917
 31
0.0
  0
LINE
  8
0
 62
     0
 10
112.557
 20
14.9917
 30
0.0
 11
110.831
 21
14.9917
 31
0.0
  0
LINE
  8
0
 62
     0
 10
110.831
 20
14.9917
 30
0.0
 11
110.831
 21
11.7615
 31
0.0
  0
LINE
  8
0
 62
     0
 10
110.831
 20
11.7615
 30
0.0
 11
110.007
 21
11.7615
 31
0.0
  0
LINE
  8
0
 62
     0
 10
110.007
 20
11.7615
 30
0.0
 11
110.007
 21
8.96278
 31
0.0
  0
LINE
  8
0
 62
     0
 10
110.007
 20
8.96278
 30
0.0
 11
110.831
 21
8.96278
 31
0.0
  0
LINE
  8
0
 62
     0
 10
110.831
 20
8.96278
 30
0.0
 11
110.831
 21
2.69269
 31
0.0
  0
LINE
  8
0
 62
     0
 10
110.831
 20
2.69269
 30
0.0
 11
112.557
 21
2.69269
 31
0.0
  0
LINE
  8
0
 62
     0
 10
112.557
 20
2.69269
 30
0.0
 11
112.557
 21
1.71152
 31
0.0
  0
LINE
  8
0
 62
     0
 10
112.557
 20
1.71152
 30
0.0
 11
115.857
 21
1.71152
 31
0.0
  0
LINE
  8
0
 62
     0
 10
115.857
 20
1.71152
 30
0.0
 11
115.857
 21
2.69269
 31
0.0
  0
LINE
  8
0
 62
     0
 10
115.857
 20
2.69269
 30
0.0
 11
117.581
 21
2.69269
 31
0.0
  0
LINE
  8
0
 62
     0
 10
117.581
 20
2.69269
 30
0.0
 11
117.581
 21
7.16167
 31
0.0
  0
LINE
  8
0
 62
     0
 10
117.581
 20
7.16167
 30
0.0
 11
126.257
 21
7.16167
 31
0.0
  0
LINE
  8
0
 62
     0
 10
126.257
 20
7.16167
 30
0.0
 11
126.257
 21
6.56086
 31
0.0
  0
LINE
  8
0
 62
     0
 10
126.257
 20
6.56086
 30
0.0
 11
125.457
 21
6.56086
 31
0.0
  0
LINE
  8
0
 62
     0
 10
125.457
 20
6.56086
 30
0.0
 11
125.457
 21
3.46163
 31
0.0
  0
LINE
  8
0
 62
     0
 10
125.457
 20
3.46163
 30
0.0
 11
126.257
 21
3.46163
 31
0.0
  0
LINE
  8
0
 62
     0
 10
126.257
 20
3.46163
 30
0.0
 11
126.257
 21
2.46255
 31
0.0
  0
LINE
  8
0
 62
     0
 10
126.257
 20
2.46255
 30
0.0
 11
140.257
 21
2.46255
 31
0.0
  0
LINE
  8
0
 62
     0
 10
140.257
 20
2.46255
 30
0.0
 11
140.257
 21
3.46163
 31
0.0
  0
LINE
  8
0
 62
     0
 10
140.257
 20
3.46163
 30
0.0
 11
141.056
 21
3.46163
 31
0.0
  0
LINE
  8
0
 62
     0
 10
141.056
 20
3.46163
 30
0.0
 11
141.056
 21
6.56086
 31
0.0
  0
LINE
  8
0
 62
     0
 10
141.056
 20
6.56086
 30
0.0
 11
140.257
 21
6.56086
 31
0.0
  0
LINE
  8
0
 62
     0
 10
140.257
 20
6.56086
 30
0.0
 11
140.257
 21
7.16167
 31
0.0
  0
LINE
  8
0
 62
     0
 10
140.257
 20
7.16167
 30
0.0
 11
148.931
 21
7.16167
 31
0.0
  0
LINE
  8
0
 62
     0
 10
148.931
 20
7.16167
 30
0.0
 11
148.931
 21
2.69269
 31
0.0
  0
LINE
  8
0
 62
     0
 10
148.931
 20
2.69269
 30
0.0
 11
150.657
 21
2.69269
 31
0.0
  0
LINE
  8
0
 62
     0
 10
150.657
 20
2.69269
 30
0.0
 11
150.657
 21
1.71152
 31
0.0
  0
LINE
  8
0
 62
     0
 10
150.657
 20
1.71152
 30
0.0
 11
153.956
 21
1.71152
 31
0.0
  0
LINE
  8
0
 62
     0
 10
153.956
 20
1.71152
 30
0.0
 11
153.956
 21
2.69269
 31
0.0
  0
LINE
  8
0
 62
     0
 10
153.956
 20
2.69269
 30
0.0
 11
155.681
 21
2.69269
 31
0.0
  0
LINE
  8
0
 62
     0
 10
155.681
 20
2.69269
 30
0.0
 11
155.681
 21
8.96278
 31
0.0
  0
LINE
  8
0
 62
     0
 10
155.681
 20
8.96278
 30
0.0
 11
156.508
 21
8.96278
 31
0.0
  0
LINE
  8
0
 62
     0
 10
156.508
 20
8.96278
 30
0.0
 11
156.508
 21
11.7615
 31
0.0
  0
LINE
  8
0
 62
     0
 10
156.508
 20
11.7615
 30
0.0
 11
155.681
 21
11.7615
 31
0.0
  0
LINE
  8
0
 62
     0
 10
155.681
 20
11.7615
 30
0.0
 11
155.681
 21
14.9917
 31
0.0
  0
LINE
  8
0
 62
     0
 10
155.681
 20
14.9917
 30
0.0
 11
153.956
 21
14.9917
 31
0.0
  0
LINE
  8
0
 62
     0
 10
153.956
 20
14.9917
 30
0.0
 11
153.956
 21
15.9122
 31
0.0
  0
LINE
  8
0
 62
     0
 10
153.956
 20
15.9122
 30
0.0
 11
150.657
 21
15.9122
 31
0.0
  0
LINE
  8
0
 62
     0
 10
150.657
 20
15.9122
 30
0.0
 11
150.657
 21
14.9917
 31
0.0
  0
LINE
  8
0
 62
     0
 10
150.657
 20
14.9917
 30
0.0
 11
148.931
 21
14.9917
 31
0.0
  0
LINE
  8
0
 62
     0
 10
148.931
 20
14.9917
 30
0.0
 11
148.931
 21
11.7615
 31
0.0
  0
LINE
  8
0
 62
     0
 10
148.931
 20
11.7615
 30
0.0
 11
140.257
 21
11.7615
 31
0.0
  0
LINE
  8
0
 62
     0
 10
140.257
 20
11.7615
 30
0.0
 11
140.257
 21
12.361
 31
0.0
  0
LINE
  8
0
 62
     0
 10
140.257
 20
12.361
 30
0.0
 11
141.056
 21
12.361
 31
0.0
  0
LINE
  8
0
 62
     0
 10
141.056
 20
12.361
 30
0.0
 11
141.056
 21
15.4616
 31
0.0
  0
LINE
  8
0
 62
     0
 10
141.056
 20
15.4616
 30
0.0
 11
140.257
 21
15.4616
 31
0.0
  0
LINE
  8
0
 62
     0
 10
140.257
 20
15.4616
 30
0.0
 11
140.257
 21
16.4621
 31
0.0
  0
LINE
  8
0
 62
     0
 10
140.257
 20
16.4621
 30
0.0
 11
126.257
 21
16.4621
 31
0.0
  0
LINE
  8
0
 62
     0
 10
38.1512
 20
16.4621
 30
0.0
 11
38.1512
 21
15.4616
 31
0.0
  0
LINE
  8
0
 62
     0
 10
38.1512
 20
15.4616
 30
0.0
 11
37.3518
 21
15.4616
 31
0.0
  0
LINE
  8
0
 62
     0
 10
37.3518
 20
15.4616
 30
0.0
 11
37.3518
 21
12.361
 31
0.0
  0
LINE
  8
0
 62
     0
 10
37.3518
 20
12.361
 30
0.0
 11
38.1512
 21
12.361
 31
0.0
  0
LINE
  8
0
 62
     0
 10
38.1512
 20
12.361
 30
0.0
 11
38.1512
 21
6.56086
 31
0.0
  0
LINE
  8
0
 62
     0
 10
38.1512
 20
6.56086
 30
0.0
 11
37.3518
 21
6.56086
 31
0.0
  0
LINE
  8
0
 62
     0
 10
37.3518
 20
6.56086
 30
0.0
 11
37.3518
 21
3.46163
 31
0.0
  0
LINE
  8
0
 62
     0
 10
37.3518
 20
3.46163
 30
0.0
 11
38.1512
 21
3.46163
 31
0.0
  0
LINE
  8
0
 62
     0
 10
38.1512
 20
3.46163
 30
0.0
 11
38.1512
 21
2.46255
 31
0.0
  0
LINE
  8
0
 62
     0
 10
38.1512
 20
2.46255
 30
0.0
 11
52.1518
 21
2.46255
 31
0.0
  0
LINE
  8
0
 62
     0
 10
52.1518
 20
2.46255
 30
0.0
 11
52.1518
 21
3.46163
 31
0.0
  0
LINE
  8
0
 62
     0
 10
52.1518
 20
3.46163
 30
0.0
 11
52.9498
 21
3.46163
 31
0.0
  0
LINE
  8
0
 62
     0
 10
52.9498
 20
3.46163
 30
0.0
 11
52.9498
 21
6.56086
 31
0.0
  0
LINE
  8
0
 62
     0
 10
52.9498
 20
6.56086
 30
0.0
 11
52.1518
 21
6.56086
 31
0.0
  0
LINE
  8
0
 62
     0
 10
52.1518
 20
6.56086
 30
0.0
 11
52.1518
 21
12.361
 31
0.0
  0
LINE
  8
0
 62
     0
 10
52.1518
 20
12.361
 30
0.0
 11
52.9498
 21
12.361
 31
0.0
  0
LINE
  8
0
 62
     0
 10
52.9498
 20
12.361
 30
0.0
 11
52.9498
 21
15.4616
 31
0.0
  0
LINE
  8
0
 62
     0
 10
52.9498
 20
15.4616
 30
0.0
 11
52.1518
 21
15.4616
 31
0.0
  0
LINE
  8
0
 62
     0
 10
52.1518
 20
15.4616
 30
0.0
 11
52.1518
 21
16.4621
 31
0.0
  0
LINE
  8
0
 62
     0
 10
52.1518
 20
16.4621
 30
0.0
 11
38.1512
 21
16.4621
 31
0.0
  0
LINE
  8
0
 62
     0
 10
61.9622
 20
16.4621
 30
0.0
 11
61.9622
 21
15.4616
 31
0.0
  0
LINE
  8
0
 62
     0
 10
61.9622
 20
15.4616
 30
0.0
 11
61.1628
 21
15.4616
 31
0.0
  0
LINE
  8
0
 62
     0
 10
61.1628
 20
15.4616
 30
0.0
 11
61.1628
 21
12.361
 31
0.0
  0
LINE
  8
0
 62
     0
 10
61.1628
 20
12.361
 30
0.0
 11
61.9622
 21
12.361
 31
0.0
  0
LINE
  8
0
 62
     0
 10
61.9622
 20
12.361
 30
0.0
 11
61.9622
 21
6.56086
 31
0.0
  0
LINE
  8
0
 62
     0
 10
61.9622
 20
6.56086
 30
0.0
 11
61.1628
 21
6.56086
 31
0.0
  0
LINE
  8
0
 62
     0
 10
61.1628
 20
6.56086
 30
0.0
 11
61.1628
 21
3.46163
 31
0.0
  0
LINE
  8
0
 62
     0
 10
61.1628
 20
3.46163
 30
0.0
 11
61.9622
 21
3.46163
 31
0.0
  0
LINE
  8
0
 62
     0
 10
61.9622
 20
3.46163
 30
0.0
 11
61.9622
 21
2.46255
 31
0.0
  0
LINE
  8
0
 62
     0
 10
61.9622
 20
2.46255
 30
0.0
 11
75.9615
 21
2.46255
 31
0.0
  0
LINE
  8
0
 62
     0
 10
75.9615
 20
2.46255
 30
0.0
 11
75.9615
 21
3.46163
 31
0.0
  0
LINE
  8
0
 62
     0
 10
75.9615
 20
3.46163
 30
0.0
 11
76.7637
 21
3.46163
 31
0.0
  0
LINE
  8
0
 62
     0
 10
76.7637
 20
3.46163
 30
0.0
 11
76.7637
 21
6.56086
 31
0.0
  0
LINE
  8
0
 62
     0
 10
76.7637
 20
6.56086
 30
0.0
 11
75.9615
 21
6.56086
 31
0.0
  0
LINE
  8
0
 62
     0
 10
75.9615
 20
6.56086
 30
0.0
 11
75.9615
 21
12.361
 31
0.0
  0
LINE
  8
0
 62
     0
 10
75.9615
 20
12.361
 30
0.0
 11
76.7637
 21
12.361
 31
0.0
  0
LINE
  8
0
 62
     0
 10
76.7637
 20
12.361
 30
0.0
 11
76.7637
 21
15.4616
 31
0.0
  0
LINE
  8
0
 62
     0
 10
76.7637
 20
15.4616
 30
0.0
 11
75.9615
 21
15.4616
 31
0.0
  0
LINE
  8
0
 62
     0
 10
75.9615
 20
15.4616
 30
0.0
 11
75.9615
 21
16.4621
 31
0.0
  0
LINE
  8
0
 62
     0
 10
75.9615
 20
16.4621
 30
0.0
 11
61.9622
 21
16.4621
 31
0.0
  0
LINE
  8
0
 62
     0
 10
85.7762
 20
16.4621
 30
0.0
 11
85.7762
 21
15.4616
 31
0.0
  0
LINE
  8
0
 62
     0
 10
85.7762
 20
15.4616
 30
0.0
 11
84.9768
 21
15.4616
 31
0.0
  0
LINE
  8
0
 62
     0
 10
84.9768
 20
15.4616
 30
0.0
 11
84.9768
 21
12.361
 31
0.0
  0
LINE
  8
0
 62
     0
 10
84.9768
 20
12.361
 30
0.0
 11
85.7762
 21
12.361
 31
0.0
  0
LINE
  8
0
 62
     0
 10
85.7762
 20
12.361
 30
0.0
 11
85.7762
 21
6.56086
 31
0.0
  0
LINE
  8
0
 62
     0
 10
85.7762
 20
6.56086
 30
0.0
 11
84.9768
 21
6.56086
 31
0.0
  0
LINE
  8
0
 62
     0
 10
84.9768
 20
6.56086
 30
0.0
 11
84.9768
 21
3.46163
 31
0.0
  0
LINE
  8
0
 62
     0
 10
84.9768
 20
3.46163
 30
0.0
 11
85.7762
 21
3.46163
 31
0.0
  0
LINE
  8
0
 62
     0
 10
85.7762
 20
3.46163
 30
0.0
 11
85.7762
 21
2.46255
 31
0.0
  0
LINE
  8
0
 62
     0
 10
85.7762
 20
2.46255
 30
0.0
 11
99.7768
 21
2.46255
 31
0.0
  0
LINE
  8
0
 62
     0
 10
99.7768
 20
2.46255
 30
0.0
 11
99.7768
 21
3.46163
 31
0.0
  0
LINE
  8
0
 62
     0
 10
99.7768
 20
3.46163
 30
0.0
 11
100.575
 21
3.46163
 31
0.0
  0
LINE
  8
0
 62
     0
 10
100.575
 20
3.46163
 30
0.0
 11
100.575
 21
6.56086
 31
0.0
  0
LINE
  8
0
 62
     0
 10
100.575
 20
6.56086
 30
0.0
 11
99.7768
 21
6.56086
 31
0.0
  0
LINE
  8
0
 62
     0
 10
99.7768
 20
6.56086
 30
0.0
 11
99.7768
 21
12.361
 31
0.0
  0
LINE
  8
0
 62
     0
 10
99.7768
 20
12.361
 30
0.0
 11
100.575
 21
12.361
 31
0.0
  0
LINE
  8
0
 62
     0
 10
100.575
 20
12.361
 30
0.0
 11
100.575
 21
15.4616
 31
0.0
  0
LINE
  8
0
 62
     0
 10
100.575
 20
15.4616
 30
0.0
 11
99.7768
 21
15.4616
 31
0.0
  0
LINE
  8
0
 62
     0
 10
99.7768
 20
15.4616
 30
0.0
 11
99.7768
 21
16.4621
 31
0.0
  0
LINE
  8
0
 62
     0
 10
99.7768
 20
16.4621
 30
0.0
 11
85.7762
 21
16.4621
 31
0.0
  0
LINE
  8
0
 62
     0
 10
166.739
 20
16.4621
 30
0.0
 11
166.739
 21
15.4616
 31
0.0
  0
LINE
  8
0
 62
     0
 10
166.739
 20
15.4616
 30
0.0
 11
165.938
 21
15.4616
 31
0.0
  0
LINE
  8
0
 62
     0
 10
165.938
 20
15.4616
 30
0.0
 11
165.938
 21
12.361
 31
0.0
  0
LINE
  8
0
 62
     0
 10
165.938
 20
12.361
 30
0.0
 11
166.739
 21
12.361
 31
0.0
  0
LINE
  8
0
 62
     0
 10
166.739
 20
12.361
 30
0.0
 11
166.739
 21
6.56086
 31
0.0
  0
LINE
  8
0
 62
     0
 10
166.739
 20
6.56086
 30
0.0
 11
165.938
 21
6.56086
 31
0.0
  0
LINE
  8
0
 62
     0
 10
165.938
 20
6.56086
 30
0.0
 11
165.938
 21
3.46163
 31
0.0
  0
LINE
  8
0
 62
     0
 10
165.938
 20
3.46163
 30
0.0
 11
166.739
 21
3.46163
 31
0.0
  0
LINE
  8
0
 62
     0
 10
166.739
 20
3.46163
 30
0.0
 11
166.739
 21
2.46255
 31
0.0
  0
LINE
  8
0
 62
     0
 10
166.739
 20
2.46255
 30
0.0
 11
180.738
 21
2.46255
 31
0.0
  0
LINE
  8
0
 62
     0
 10
180.738
 20
2.46255
 30
0.0
 11
180.738
 21
3.46163
 31
0.0
  0
LINE
  8
0
 62
     0
 10
180.738
 20
3.46163
 30
0.0
 11
181.539
 21
3.46163
 31
0.0
  0
LINE
  8
0
 62
     0
 10
181.539
 20
3.46163
 30
0.0
 11
181.539
 21
6.56086
 31
0.0
  0
LINE
  8
0
 62
     0
 10
181.539
 20
6.56086
 30
0.0
 11
180.738
 21
6.56086
 31
0.0
  0
LINE
  8
0
 62
     0
 10
180.738
 20
6.56086
 30
0.0
 11
180.738
 21
12.361
 31
0.0
  0
LINE
  8
0
 62
     0
 10
180.738
 20
12.361
 30
0.0
 11
181.539
 21
12.361
 31
0.0
  0
LINE
  8
0
 62
     0
 10
181.539
 20
12.361
 30
0.0
 11
181.539
 21
15.4616
 31
0.0
  0
LINE
  8
0
 62
     0
 10
181.539
 20
15.4616
 30
0.0
 11
180.738
 21
15.4616
 31
0.0
  0
LINE
  8
0
 62
     0
 10
180.738
 20
15.4616
 30
0.0
 11
180.738
 21
16.4621
 31
0.0
  0
LINE
  8
0
 62
     0
 10
180.738
 20
16.4621
 30
0.0
 11
166.739
 21
16.4621
 31
0.0
  0
LINE
  8
0
 62
     0
 10
190.55
 20
16.4621
 30
0.0
 11
190.55
 21
15.4616
 31
0.0
  0
LINE
  8
0
 62
     0
 10
190.55
 20
15.4616
 30
0.0
 11
189.752
 21
15.4616
 31
0.0
  0
LINE
  8
0
 62
     0
 10
189.752
 20
15.4616
 30
0.0
 11
189.752
 21
12.361
 31
0.0
  0
LINE
  8
0
 62
     0
 10
189.752
 20
12.361
 30
0.0
 11
190.55
 21
12.361
 31
0.0
  0
LINE
  8
0
 62
     0
 10
190.55
 20
12.361
 30
0.0
 11
190.55
 21
11.1235
 31
0.0
  0
LINE
  8
0
 62
     0
 10
190.55
 20
11.1235
 30
0.0
 11
190.318
 21
11.0877
 31
0.0
  0
LINE
  8
0
 62
     0
 10
190.318
 20
11.0877
 30
0.0
 11
189.902
 21
10.8755
 31
0.0
  0
LINE
  8
0
 62
     0
 10
189.902
 20
10.8755
 30
0.0
 11
189.568
 21
10.5434
 31
0.0
  0
LINE
  8
0
 62
     0
 10
189.568
 20
10.5434
 30
0.0
 11
189.356
 21
10.1244
 31
0.0
  0
LINE
  8
0
 62
     0
 10
189.356
 20
10.1244
 30
0.0
 11
189.282
 21
9.66142
 31
0.0
  0
LINE
  8
0
 62
     0
 10
189.282
 20
9.66142
 30
0.0
 11
189.356
 21
9.1984
 31
0.0
  0
LINE
  8
0
 62
     0
 10
189.356
 20
9.1984
 30
0.0
 11
189.568
 21
8.77947
 31
0.0
  0
LINE
  8
0
 62
     0
 10
189.568
 20
8.77947
 30
0.0
 11
189.902
 21
8.44875
 31
0.0
  0
LINE
  8
0
 62
     0
 10
189.902
 20
8.44875
 30
0.0
 11
190.318
 21
8.23376
 31
0.0
  0
LINE
  8
0
 62
     0
 10
190.318
 20
8.23376
 30
0.0
 11
190.55
 21
8.19796
 31
0.0
  0
LINE
  8
0
 62
     0
 10
190.55
 20
8.19796
 30
0.0
 11
190.55
 21
6.56086
 31
0.0
  0
LINE
  8
0
 62
     0
 10
190.55
 20
6.56086
 30
0.0
 11
189.752
 21
6.56086
 31
0.0
  0
LINE
  8
0
 62
     0
 10
189.752
 20
6.56086
 30
0.0
 11
189.752
 21
3.46163
 31
0.0
  0
LINE
  8
0
 62
     0
 10
189.752
 20
3.46163
 30
0.0
 11
190.55
 21
3.46163
 31
0.0
  0
LINE
  8
0
 62
     0
 10
190.55
 20
3.46163
 30
0.0
 11
190.55
 21
2.46255
 31
0.0
  0
LINE
  8
0
 62
     0
 10
190.55
 20
2.46255
 30
0.0
 11
204.55
 21
2.46255
 31
0.0
  0
LINE
  8
0
 62
     0
 10
204.55
 20
2.46255
 30
0.0
 11
204.55
 21
3.46163
 31
0.0
  0
LINE
  8
0
 62
     0
 10
204.55
 20
3.46163
 30
0.0
 11
205.351
 21
3.46163
 31
0.0
  0
LINE
  8
0
 62
     0
 10
205.351
 20
3.46163
 30
0.0
 11
205.351
 21
6.56086
 31
0.0
  0
LINE
  8
0
 62
     0
 10
205.351
 20
6.56086
 30
0.0
 11
204.55
 21
6.56086
 31
0.0
  0
LINE
  8
0
 62
     0
 10
204.55
 20
6.56086
 30
0.0
 11
204.55
 21
12.361
 31
0.0
  0
LINE
  8
0
 62
     0
 10
204.55
 20
12.361
 30
0.0
 11
205.351
 21
12.361
 31
0.0
  0
LINE
  8
0
 62
     0
 10
205.351
 20
12.361
 30
0.0
 11
205.351
 21
15.4616
 31
0.0
  0
LINE
  8
0
 62
     0
 10
205.351
 20
15.4616
 30
0.0
 11
204.55
 21
15.4616
 31
0.0
  0
LINE
  8
0
 62
     0
 10
204.55
 20
15.4616
 30
0.0
 11
204.55
 21
16.4621
 31
0.0
  0
LINE
  8
0
 62
     0
 10
204.55
 20
16.4621
 30
0.0
 11
190.55
 21
16.4621
 31
0.0
  0
LINE
  8
0
 62
     0
 10
14.3371
 20
35.512
 30
0.0
 11
14.3371
 21
34.5116
 31
0.0
  0
LINE
  8
0
 62
     0
 10
14.3371
 20
34.5116
 30
0.0
 11
13.5378
 21
34.5116
 31
0.0
  0
LINE
  8
0
 62
     0
 10
13.5378
 20
34.5116
 30
0.0
 11
13.5378
 21
31.4124
 31
0.0
  0
LINE
  8
0
 62
     0
 10
13.5378
 20
31.4124
 30
0.0
 11
14.3371
 21
31.4124
 31
0.0
  0
LINE
  8
0
 62
     0
 10
14.3371
 20
31.4124
 30
0.0
 11
14.3371
 21
30.8115
 31
0.0
  0
LINE
  8
0
 62
     0
 10
14.3371
 20
30.8115
 30
0.0
 11
12.813
 21
30.8115
 31
0.0
  0
LINE
  8
0
 62
     0
 10
12.813
 20
30.8115
 30
0.0
 11
12.813
 21
34.0417
 31
0.0
  0
LINE
  8
0
 62
     0
 10
12.813
 20
34.0417
 30
0.0
 11
11.0877
 21
34.0417
 31
0.0
  0
LINE
  8
0
 62
     0
 10
11.0877
 20
34.0417
 30
0.0
 11
11.0877
 21
34.9622
 31
0.0
  0
LINE
  8
0
 62
     0
 10
11.0877
 20
34.9622
 30
0.0
 11
7.78866
 21
34.9622
 31
0.0
  0
LINE
  8
0
 62
     0
 10
7.78866
 20
34.9622
 30
0.0
 11
7.78866
 21
34.0417
 31
0.0
  0
LINE
  8
0
 62
     0
 10
7.78866
 20
34.0417
 30
0.0
 11
6.06337
 21
34.0417
 31
0.0
  0
LINE
  8
0
 62
     0
 10
6.06337
 20
34.0417
 30
0.0
 11
6.06337
 21
30.8115
 31
0.0
  0
LINE
  8
0
 62
     0
 10
6.06337
 20
30.8115
 30
0.0
 11
5.23794
 21
30.8115
 31
0.0
  0
LINE
  8
0
 62
     0
 10
5.23794
 20
30.8115
 30
0.0
 11
5.23794
 21
28.0128
 31
0.0
  0
LINE
  8
0
 62
     0
 10
5.23794
 20
28.0128
 30
0.0
 11
6.06337
 21
28.0128
 31
0.0
  0
LINE
  8
0
 62
     0
 10
6.06337
 20
28.0128
 30
0.0
 11
6.06337
 21
21.7427
 31
0.0
  0
LINE
  8
0
 62
     0
 10
6.06337
 20
21.7427
 30
0.0
 11
7.78866
 21
21.7427
 31
0.0
  0
LINE
  8
0
 62
     0
 10
7.78866
 20
21.7427
 30
0.0
 11
7.78866
 21
20.7615
 31
0.0
  0
LINE
  8
0
 62
     0
 10
7.78866
 20
20.7615
 30
0.0
 11
11.0877
 21
20.7615
 31
0.0
  0
LINE
  8
0
 62
     0
 10
11.0877
 20
20.7615
 30
0.0
 11
11.0877
 21
21.7427
 31
0.0
  0
LINE
  8
0
 62
     0
 10
11.0877
 20
21.7427
 30
0.0
 11
12.813
 21
21.7427
 31
0.0
  0
LINE
  8
0
 62
     0
 10
12.813
 20
21.7427
 30
0.0
 11
12.813
 21
26.2117
 31
0.0
  0
LINE
  8
0
 62
     0
 10
12.813
 20
26.2117
 30
0.0
 11
14.3371
 21
26.2117
 31
0.0
  0
LINE
  8
0
 62
     0
 10
14.3371
 20
26.2117
 30
0.0
 11
14.3371
 21
25.6109
 31
0.0
  0
LINE
  8
0
 62
     0
 10
14.3371
 20
25.6109
 30
0.0
 11
13.5378
 21
25.6109
 31
0.0
  0
LINE
  8
0
 62
     0
 10
13.5378
 20
25.6109
 30
0.0
 11
13.5378
 21
22.5116
 31
0.0
  0
LINE
  8
0
 62
     0
 10
13.5378
 20
22.5116
 30
0.0
 11
14.3371
 21
22.5116
 31
0.0
  0
LINE
  8
0
 62
     0
 10
14.3371
 20
22.5116
 30
0.0
 11
14.3371
 21
21.5126
 31
0.0
  0
LINE
  8
0
 62
     0
 10
14.3371
 20
21.5126
 30
0.0
 11
28.3366
 21
21.5126
 31
0.0
  0
LINE
  8
0
 62
     0
 10
28.3366
 20
21.5126
 30
0.0
 11
28.3366
 21
22.5116
 31
0.0
  0
LINE
  8
0
 62
     0
 10
28.3366
 20
22.5116
 30
0.0
 11
29.1373
 21
22.5116
 31
0.0
  0
LINE
  8
0
 62
     0
 10
29.1373
 20
22.5116
 30
0.0
 11
29.1373
 21
25.6109
 31
0.0
  0
LINE
  8
0
 62
     0
 10
29.1373
 20
25.6109
 30
0.0
 11
28.3366
 21
25.6109
 31
0.0
  0
LINE
  8
0
 62
     0
 10
28.3366
 20
25.6109
 30
0.0
 11
28.3366
 21
26.2117
 31
0.0
  0
LINE
  8
0
 62
     0
 10
28.3366
 20
26.2117
 30
0.0
 11
29.8634
 21
26.2117
 31
0.0
  0
LINE
  8
0
 62
     0
 10
29.8634
 20
26.2117
 30
0.0
 11
29.8634
 21
21.7427
 31
0.0
  0
LINE
  8
0
 62
     0
 10
29.8634
 20
21.7427
 30
0.0
 11
31.5874
 21
21.7427
 31
0.0
  0
LINE
  8
0
 62
     0
 10
31.5874
 20
21.7427
 30
0.0
 11
31.5874
 21
20.7615
 31
0.0
  0
LINE
  8
0
 62
     0
 10
31.5874
 20
20.7615
 30
0.0
 11
34.8878
 21
20.7615
 31
0.0
  0
LINE
  8
0
 62
     0
 10
34.8878
 20
20.7615
 30
0.0
 11
34.8878
 21
21.7427
 31
0.0
  0
LINE
  8
0
 62
     0
 10
34.8878
 20
21.7427
 30
0.0
 11
36.613
 21
21.7427
 31
0.0
  0
LINE
  8
0
 62
     0
 10
36.613
 20
21.7427
 30
0.0
 11
36.613
 21
28.0128
 31
0.0
  0
LINE
  8
0
 62
     0
 10
36.613
 20
28.0128
 30
0.0
 11
37.4385
 21
28.0128
 31
0.0
  0
LINE
  8
0
 62
     0
 10
37.4385
 20
28.0128
 30
0.0
 11
37.4385
 21
30.8115
 31
0.0
  0
LINE
  8
0
 62
     0
 10
37.4385
 20
30.8115
 30
0.0
 11
36.613
 21
30.8115
 31
0.0
  0
LINE
  8
0
 62
     0
 10
36.613
 20
30.8115
 30
0.0
 11
36.613
 21
34.0417
 31
0.0
  0
LINE
  8
0
 62
     0
 10
36.613
 20
34.0417
 30
0.0
 11
34.8878
 21
34.0417
 31
0.0
  0
LINE
  8
0
 62
     0
 10
34.8878
 20
34.0417
 30
0.0
 11
34.8878
 21
34.9622
 31
0.0
  0
LINE
  8
0
 62
     0
 10
34.8878
 20
34.9622
 30
0.0
 11
31.5874
 21
34.9622
 31
0.0
  0
LINE
  8
0
 62
     0
 10
31.5874
 20
34.9622
 30
0.0
 11
31.5874
 21
34.0417
 31
0.0
  0
LINE
  8
0
 62
     0
 10
31.5874
 20
34.0417
 30
0.0
 11
29.8634
 21
34.0417
 31
0.0
  0
LINE
  8
0
 62
     0
 10
29.8634
 20
34.0417
 30
0.0
 11
29.8634
 21
30.8115
 31
0.0
  0
LINE
  8
0
 62
     0
 10
29.8634
 20
30.8115
 30
0.0
 11
28.3366
 21
30.8115
 31
0.0
  0
LINE
  8
0
 62
     0
 10
28.3366
 20
30.8115
 30
0.0
 11
28.3366
 21
31.4124
 31
0.0
  0
LINE
  8
0
 62
     0
 10
28.3366
 20
31.4124
 30
0.0
 11
29.1373
 21
31.4124
 31
0.0
  0
LINE
  8
0
 62
     0
 10
29.1373
 20
31.4124
 30
0.0
 11
29.1373
 21
34.5116
 31
0.0
  0
LINE
  8
0
 62
     0
 10
29.1373
 20
34.5116
 30
0.0
 11
28.3366
 21
34.5116
 31
0.0
  0
LINE
  8
0
 62
     0
 10
28.3366
 20
34.5116
 30
0.0
 11
28.3366
 21
35.512
 31
0.0
  0
LINE
  8
0
 62
     0
 10
28.3366
 20
35.512
 30
0.0
 11
14.3371
 21
35.512
 31
0.0
  0
LINE
  8
0
 62
     0
 10
45.2949
 20
35.512
 30
0.0
 11
45.2949
 21
34.5116
 31
0.0
  0
LINE
  8
0
 62
     0
 10
45.2949
 20
34.5116
 30
0.0
 11
44.4941
 21
34.5116
 31
0.0
  0
LINE
  8
0
 62
     0
 10
44.4941
 20
34.5116
 30
0.0
 11
44.4941
 21
31.4124
 31
0.0
  0
LINE
  8
0
 62
     0
 10
44.4941
 20
31.4124
 30
0.0
 11
45.2949
 21
31.4124
 31
0.0
  0
LINE
  8
0
 62
     0
 10
45.2949
 20
31.4124
 30
0.0
 11
45.2949
 21
25.6109
 31
0.0
  0
LINE
  8
0
 62
     0
 10
45.2949
 20
25.6109
 30
0.0
 11
44.4941
 21
25.6109
 31
0.0
  0
LINE
  8
0
 62
     0
 10
44.4941
 20
25.6109
 30
0.0
 11
44.4941
 21
22.5116
 31
0.0
  0
LINE
  8
0
 62
     0
 10
44.4941
 20
22.5116
 30
0.0
 11
45.2949
 21
22.5116
 31
0.0
  0
LINE
  8
0
 62
     0
 10
45.2949
 20
22.5116
 30
0.0
 11
45.2949
 21
21.5126
 31
0.0
  0
LINE
  8
0
 62
     0
 10
45.2949
 20
21.5126
 30
0.0
 11
59.2956
 21
21.5126
 31
0.0
  0
LINE
  8
0
 62
     0
 10
59.2956
 20
21.5126
 30
0.0
 11
59.2956
 21
22.5116
 31
0.0
  0
LINE
  8
0
 62
     0
 10
59.2956
 20
22.5116
 30
0.0
 11
60.095
 21
22.5116
 31
0.0
  0
LINE
  8
0
 62
     0
 10
60.095
 20
22.5116
 30
0.0
 11
60.095
 21
25.6109
 31
0.0
  0
LINE
  8
0
 62
     0
 10
60.095
 20
25.6109
 30
0.0
 11
59.2956
 21
25.6109
 31
0.0
  0
LINE
  8
0
 62
     0
 10
59.2956
 20
25.6109
 30
0.0
 11
59.2956
 21
31.4124
 31
0.0
  0
LINE
  8
0
 62
     0
 10
59.2956
 20
31.4124
 30
0.0
 11
60.095
 21
31.4124
 31
0.0
  0
LINE
  8
0
 62
     0
 10
60.095
 20
31.4124
 30
0.0
 11
60.095
 21
34.5116
 31
0.0
  0
LINE
  8
0
 62
     0
 10
60.095
 20
34.5116
 30
0.0
 11
59.2956
 21
34.5116
 31
0.0
  0
LINE
  8
0
 62
     0
 10
59.2956
 20
34.5116
 30
0.0
 11
59.2956
 21
35.512
 31
0.0
  0
LINE
  8
0
 62
     0
 10
59.2956
 20
35.512
 30
0.0
 11
45.2949
 21
35.512
 31
0.0
  0
LINE
  8
0
 62
     0
 10
64.3449
 20
35.512
 30
0.0
 11
64.3449
 21
34.5116
 31
0.0
  0
LINE
  8
0
 62
     0
 10
64.3449
 20
34.5116
 30
0.0
 11
63.5455
 21
34.5116
 31
0.0
  0
LINE
  8
0
 62
     0
 10
63.5455
 20
34.5116
 30
0.0
 11
63.5455
 21
31.4124
 31
0.0
  0
LINE
  8
0
 62
     0
 10
63.5455
 20
31.4124
 30
0.0
 11
64.3449
 21
31.4124
 31
0.0
  0
LINE
  8
0
 62
     0
 10
64.3449
 20
31.4124
 30
0.0
 11
64.3449
 21
25.6109
 31
0.0
  0
LINE
  8
0
 62
     0
 10
64.3449
 20
25.6109
 30
0.0
 11
63.5455
 21
25.6109
 31
0.0
  0
LINE
  8
0
 62
     0
 10
63.5455
 20
25.6109
 30
0.0
 11
63.5455
 21
22.5116
 31
0.0
  0
LINE
  8
0
 62
     0
 10
63.5455
 20
22.5116
 30
0.0
 11
64.3449
 21
22.5116
 31
0.0
  0
LINE
  8
0
 62
     0
 10
64.3449
 20
22.5116
 30
0.0
 11
64.3449
 21
21.5126
 31
0.0
  0
LINE
  8
0
 62
     0
 10
64.3449
 20
21.5126
 30
0.0
 11
78.3456
 21
21.5126
 31
0.0
  0
LINE
  8
0
 62
     0
 10
78.3456
 20
21.5126
 30
0.0
 11
78.3456
 21
22.5116
 31
0.0
  0
LINE
  8
0
 62
     0
 10
78.3456
 20
22.5116
 30
0.0
 11
79.145
 21
22.5116
 31
0.0
  0
LINE
  8
0
 62
     0
 10
79.145
 20
22.5116
 30
0.0
 11
79.145
 21
25.6109
 31
0.0
  0
LINE
  8
0
 62
     0
 10
79.145
 20
25.6109
 30
0.0
 11
78.3456
 21
25.6109
 31
0.0
  0
LINE
  8
0
 62
     0
 10
78.3456
 20
25.6109
 30
0.0
 11
78.3456
 21
31.4124
 31
0.0
  0
LINE
  8
0
 62
     0
 10
78.3456
 20
31.4124
 30
0.0
 11
79.145
 21
31.4124
 31
0.0
  0
LINE
  8
0
 62
     0
 10
79.145
 20
31.4124
 30
0.0
 11
79.145
 21
34.5116
 31
0.0
  0
LINE
  8
0
 62
     0
 10
79.145
 20
34.5116
 30
0.0
 11
78.3456
 21
34.5116
 31
0.0
  0
LINE
  8
0
 62
     0
 10
78.3456
 20
34.5116
 30
0.0
 11
78.3456
 21
35.512
 31
0.0
  0
LINE
  8
0
 62
     0
 10
78.3456
 20
35.512
 30
0.0
 11
64.3449
 21
35.512
 31
0.0
  0
LINE
  8
0
 62
     0
 10
83.3949
 20
35.512
 30
0.0
 11
83.3949
 21
34.5116
 31
0.0
  0
LINE
  8
0
 62
     0
 10
83.3949
 20
34.5116
 30
0.0
 11
82.5955
 21
34.5116
 31
0.0
  0
LINE
  8
0
 62
     0
 10
82.5955
 20
34.5116
 30
0.0
 11
82.5955
 21
31.4124
 31
0.0
  0
LINE
  8
0
 62
     0
 10
82.5955
 20
31.4124
 30
0.0
 11
83.3949
 21
31.4124
 31
0.0
  0
LINE
  8
0
 62
     0
 10
83.3949
 20
31.4124
 30
0.0
 11
83.3949
 21
25.6109
 31
0.0
  0
LINE
  8
0
 62
     0
 10
83.3949
 20
25.6109
 30
0.0
 11
82.5955
 21
25.6109
 31
0.0
  0
LINE
  8
0
 62
     0
 10
82.5955
 20
25.6109
 30
0.0
 11
82.5955
 21
22.5116
 31
0.0
  0
LINE
  8
0
 62
     0
 10
82.5955
 20
22.5116
 30
0.0
 11
83.3949
 21
22.5116
 31
0.0
  0
LINE
  8
0
 62
     0
 10
83.3949
 20
22.5116
 30
0.0
 11
83.3949
 21
21.5126
 31
0.0
  0
LINE
  8
0
 62
     0
 10
83.3949
 20
21.5126
 30
0.0
 11
97.3956
 21
21.5126
 31
0.0
  0
LINE
  8
0
 62
     0
 10
97.3956
 20
21.5126
 30
0.0
 11
97.3956
 21
22.5116
 31
0.0
  0
LINE
  8
0
 62
     0
 10
97.3956
 20
22.5116
 30
0.0
 11
98.195
 21
22.5116
 31
0.0
  0
LINE
  8
0
 62
     0
 10
98.195
 20
22.5116
 30
0.0
 11
98.195
 21
25.6109
 31
0.0
  0
LINE
  8
0
 62
     0
 10
98.195
 20
25.6109
 30
0.0
 11
97.3956
 21
25.6109
 31
0.0
  0
LINE
  8
0
 62
     0
 10
97.3956
 20
25.6109
 30
0.0
 11
97.3956
 21
31.4124
 31
0.0
  0
LINE
  8
0
 62
     0
 10
97.3956
 20
31.4124
 30
0.0
 11
98.195
 21
31.4124
 31
0.0
  0
LINE
  8
0
 62
     0
 10
98.195
 20
31.4124
 30
0.0
 11
98.195
 21
34.5116
 31
0.0
  0
LINE
  8
0
 62
     0
 10
98.195
 20
34.5116
 30
0.0
 11
97.3956
 21
34.5116
 31
0.0
  0
LINE
  8
0
 62
     0
 10
97.3956
 20
34.5116
 30
0.0
 11
97.3956
 21
35.512
 31
0.0
  0
LINE
  8
0
 62
     0
 10
97.3956
 20
35.512
 30
0.0
 11
83.3949
 21
35.512
 31
0.0
  0
LINE
  8
0
 62
     0
 10
102.445
 20
35.512
 30
0.0
 11
102.445
 21
34.5116
 31
0.0
  0
LINE
  8
0
 62
     0
 10
102.445
 20
34.5116
 30
0.0
 11
101.646
 21
34.5116
 31
0.0
  0
LINE
  8
0
 62
     0
 10
101.646
 20
34.5116
 30
0.0
 11
101.646
 21
31.4124
 31
0.0
  0
LINE
  8
0
 62
     0
 10
101.646
 20
31.4124
 30
0.0
 11
102.445
 21
31.4124
 31
0.0
  0
LINE
  8
0
 62
     0
 10
102.445
 20
31.4124
 30
0.0
 11
102.445
 21
25.6109
 31
0.0
  0
LINE
  8
0
 62
     0
 10
102.445
 20
25.6109
 30
0.0
 11
101.646
 21
25.6109
 31
0.0
  0
LINE
  8
0
 62
     0
 10
101.646
 20
25.6109
 30
0.0
 11
101.646
 21
22.5116
 31
0.0
  0
LINE
  8
0
 62
     0
 10
101.646
 20
22.5116
 30
0.0
 11
102.445
 21
22.5116
 31
0.0
  0
LINE
  8
0
 62
     0
 10
102.445
 20
22.5116
 30
0.0
 11
102.445
 21
21.5126
 31
0.0
  0
LINE
  8
0
 62
     0
 10
102.445
 20
21.5126
 30
0.0
 11
116.444
 21
21.5126
 31
0.0
  0
LINE
  8
0
 62
     0
 10
116.444
 20
21.5126
 30
0.0
 11
116.444
 21
22.5116
 31
0.0
  0
LINE
  8
0
 62
     0
 10
116.444
 20
22.5116
 30
0.0
 11
117.245
 21
22.5116
 31
0.0
  0
LINE
  8
0
 62
     0
 10
117.245
 20
22.5116
 30
0.0
 11
117.245
 21
25.6109
 31
0.0
  0
LINE
  8
0
 62
     0
 10
117.245
 20
25.6109
 30
0.0
 11
116.444
 21
25.6109
 31
0.0
  0
LINE
  8
0
 62
     0
 10
116.444
 20
25.6109
 30
0.0
 11
116.444
 21
31.4124
 31
0.0
  0
LINE
  8
0
 62
     0
 10
116.444
 20
31.4124
 30
0.0
 11
117.245
 21
31.4124
 31
0.0
  0
LINE
  8
0
 62
     0
 10
117.245
 20
31.4124
 30
0.0
 11
117.245
 21
34.5116
 31
0.0
  0
LINE
  8
0
 62
     0
 10
117.245
 20
34.5116
 30
0.0
 11
116.444
 21
34.5116
 31
0.0
  0
LINE
  8
0
 62
     0
 10
116.444
 20
34.5116
 30
0.0
 11
116.444
 21
35.512
 31
0.0
  0
LINE
  8
0
 62
     0
 10
116.444
 20
35.512
 30
0.0
 11
102.445
 21
35.512
 31
0.0
  0
LINE
  8
0
 62
     0
 10
121.495
 20
35.512
 30
0.0
 11
121.495
 21
34.5116
 31
0.0
  0
LINE
  8
0
 62
     0
 10
121.495
 20
34.5116
 30
0.0
 11
120.694
 21
34.5116
 31
0.0
  0
LINE
  8
0
 62
     0
 10
120.694
 20
34.5116
 30
0.0
 11
120.694
 21
31.4124
 31
0.0
  0
LINE
  8
0
 62
     0
 10
120.694
 20
31.4124
 30
0.0
 11
121.495
 21
31.4124
 31
0.0
  0
LINE
  8
0
 62
     0
 10
121.495
 20
31.4124
 30
0.0
 11
121.495
 21
25.6109
 31
0.0
  0
LINE
  8
0
 62
     0
 10
121.495
 20
25.6109
 30
0.0
 11
120.694
 21
25.6109
 31
0.0
  0
LINE
  8
0
 62
     0
 10
120.694
 20
25.6109
 30
0.0
 11
120.694
 21
22.5116
 31
0.0
  0
LINE
  8
0
 62
     0
 10
120.694
 20
22.5116
 30
0.0
 11
121.495
 21
22.5116
 31
0.0
  0
LINE
  8
0
 62
     0
 10
121.495
 20
22.5116
 30
0.0
 11
121.495
 21
21.5126
 31
0.0
  0
LINE
  8
0
 62
     0
 10
121.495
 20
21.5126
 30
0.0
 11
135.496
 21
21.5126
 31
0.0
  0
LINE
  8
0
 62
     0
 10
135.496
 20
21.5126
 30
0.0
 11
135.496
 21
22.5116
 31
0.0
  0
LINE
  8
0
 62
     0
 10
135.496
 20
22.5116
 30
0.0
 11
136.295
 21
22.5116
 31
0.0
  0
LINE
  8
0
 62
     0
 10
136.295
 20
22.5116
 30
0.0
 11
136.295
 21
25.6109
 31
0.0
  0
LINE
  8
0
 62
     0
 10
136.295
 20
25.6109
 30
0.0
 11
135.496
 21
25.6109
 31
0.0
  0
LINE
  8
0
 62
     0
 10
135.496
 20
25.6109
 30
0.0
 11
135.496
 21
31.4124
 31
0.0
  0
LINE
  8
0
 62
     0
 10
135.496
 20
31.4124
 30
0.0
 11
136.295
 21
31.4124
 31
0.0
  0
LINE
  8
0
 62
     0
 10
136.295
 20
31.4124
 30
0.0
 11
136.295
 21
34.5116
 31
0.0
  0
LINE
  8
0
 62
     0
 10
136.295
 20
34.5116
 30
0.0
 11
135.496
 21
34.5116
 31
0.0
  0
LINE
  8
0
 62
     0
 10
135.496
 20
34.5116
 30
0.0
 11
135.496
 21
35.512
 31
0.0
  0
LINE
  8
0
 62
     0
 10
135.496
 20
35.512
 30
0.0
 11
121.495
 21
35.512
 31
0.0
  0
LINE
  8
0
 62
     0
 10
140.545
 20
35.512
 30
0.0
 11
140.545
 21
34.5116
 31
0.0
  0
LINE
  8
0
 62
     0
 10
140.545
 20
34.5116
 30
0.0
 11
139.746
 21
34.5116
 31
0.0
  0
LINE
  8
0
 62
     0
 10
139.746
 20
34.5116
 30
0.0
 11
139.746
 21
31.4124
 31
0.0
  0
LINE
  8
0
 62
     0
 10
139.746
 20
31.4124
 30
0.0
 11
140.545
 21
31.4124
 31
0.0
  0
LINE
  8
0
 62
     0
 10
140.545
 20
31.4124
 30
0.0
 11
140.545
 21
25.6109
 31
0.0
  0
LINE
  8
0
 62
     0
 10
140.545
 20
25.6109
 30
0.0
 11
139.746
 21
25.6109
 31
0.0
  0
LINE
  8
0
 62
     0
 10
139.746
 20
25.6109
 30
0.0
 11
139.746
 21
22.5116
 31
0.0
  0
LINE
  8
0
 62
     0
 10
139.746
 20
22.5116
 30
0.0
 11
140.545
 21
22.5116
 31
0.0
  0
LINE
  8
0
 62
     0
 10
140.545
 20
22.5116
 30
0.0
 11
140.545
 21
21.5126
 31
0.0
  0
LINE
  8
0
 62
     0
 10
140.545
 20
21.5126
 30
0.0
 11
154.544
 21
21.5126
 31
0.0
  0
LINE
  8
0
 62
     0
 10
154.544
 20
21.5126
 30
0.0
 11
154.544
 21
22.5116
 31
0.0
  0
LINE
  8
0
 62
     0
 10
154.544
 20
22.5116
 30
0.0
 11
155.345
 21
22.5116
 31
0.0
  0
LINE
  8
0
 62
     0
 10
155.345
 20
22.5116
 30
0.0
 11
155.345
 21
25.6109
 31
0.0
  0
LINE
  8
0
 62
     0
 10
155.345
 20
25.6109
 30
0.0
 11
154.544
 21
25.6109
 31
0.0
  0
LINE
  8
0
 62
     0
 10
154.544
 20
25.6109
 30
0.0
 11
154.544
 21
31.4124
 31
0.0
  0
LINE
  8
0
 62
     0
 10
154.544
 20
31.4124
 30
0.0
 11
155.345
 21
31.4124
 31
0.0
  0
LINE
  8
0
 62
     0
 10
155.345
 20
31.4124
 30
0.0
 11
155.345
 21
34.5116
 31
0.0
  0
LINE
  8
0
 62
     0
 10
155.345
 20
34.5116
 30
0.0
 11
154.544
 21
34.5116
 31
0.0
  0
LINE
  8
0
 62
     0
 10
154.544
 20
34.5116
 30
0.0
 11
154.544
 21
35.512
 31
0.0
  0
LINE
  8
0
 62
     0
 10
154.544
 20
35.512
 30
0.0
 11
140.545
 21
35.512
 31
0.0
  0
LINE
  8
0
 62
     0
 10
159.595
 20
35.512
 30
0.0
 11
159.595
 21
34.5116
 31
0.0
  0
LINE
  8
0
 62
     0
 10
159.595
 20
34.5116
 30
0.0
 11
158.794
 21
34.5116
 31
0.0
  0
LINE
  8
0
 62
     0
 10
158.794
 20
34.5116
 30
0.0
 11
158.794
 21
31.4124
 31
0.0
  0
LINE
  8
0
 62
     0
 10
158.794
 20
31.4124
 30
0.0
 11
159.595
 21
31.4124
 31
0.0
  0
LINE
  8
0
 62
     0
 10
159.595
 20
31.4124
 30
0.0
 11
159.595
 21
25.6109
 31
0.0
  0
LINE
  8
0
 62
     0
 10
159.595
 20
25.6109
 30
0.0
 11
158.794
 21
25.6109
 31
0.0
  0
LINE
  8
0
 62
     0
 10
158.794
 20
25.6109
 30
0.0
 11
158.794
 21
22.5116
 31
0.0
  0
LINE
  8
0
 62
     0
 10
158.794
 20
22.5116
 30
0.0
 11
159.595
 21
22.5116
 31
0.0
  0
LINE
  8
0
 62
     0
 10
159.595
 20
22.5116
 30
0.0
 11
159.595
 21
21.5126
 31
0.0
  0
LINE
  8
0
 62
     0
 10
159.595
 20
21.5126
 30
0.0
 11
173.596
 21
21.5126
 31
0.0
  0
LINE
  8
0
 62
     0
 10
173.596
 20
21.5126
 30
0.0
 11
173.596
 21
22.5116
 31
0.0
  0
LINE
  8
0
 62
     0
 10
173.596
 20
22.5116
 30
0.0
 11
174.395
 21
22.5116
 31
0.0
  0
LINE
  8
0
 62
     0
 10
174.395
 20
22.5116
 30
0.0
 11
174.395
 21
25.6109
 31
0.0
  0
LINE
  8
0
 62
     0
 10
174.395
 20
25.6109
 30
0.0
 11
173.596
 21
25.6109
 31
0.0
  0
LINE
  8
0
 62
     0
 10
173.596
 20
25.6109
 30
0.0
 11
173.596
 21
31.4124
 31
0.0
  0
LINE
  8
0
 62
     0
 10
173.596
 20
31.4124
 30
0.0
 11
174.395
 21
31.4124
 31
0.0
  0
LINE
  8
0
 62
     0
 10
174.395
 20
31.4124
 30
0.0
 11
174.395
 21
34.5116
 31
0.0
  0
LINE
  8
0
 62
     0
 10
174.395
 20
34.5116
 30
0.0
 11
173.596
 21
34.5116
 31
0.0
  0
LINE
  8
0
 62
     0
 10
173.596
 20
34.5116
 30
0.0
 11
173.596
 21
35.512
 31
0.0
  0
LINE
  8
0
 62
     0
 10
173.596
 20
35.512
 30
0.0
 11
159.595
 21
35.512
 31
0.0
  0
LINE
  8
0
 62
     0
 10
178.645
 20
35.512
 30
0.0
 11
178.645
 21
34.5116
 31
0.0
  0
LINE
  8
0
 62
     0
 10
178.645
 20
34.5116
 30
0.0
 11
177.846
 21
34.5116
 31
0.0
  0
LINE
  8
0
 62
     0
 10
177.846
 20
34.5116
 30
0.0
 11
177.846
 21
31.4124
 31
0.0
  0
LINE
  8
0
 62
     0
 10
177.846
 20
31.4124
 30
0.0
 11
178.645
 21
31.4124
 31
0.0
  0
LINE
  8
0
 62
     0
 10
178.645
 20
31.4124
 30
0.0
 11
178.645
 21
25.6109
 31
0.0
  0
LINE
  8
0
 62
     0
 10
178.645
 20
25.6109
 30
0.0
 11
177.846
 21
25.6109
 31
0.0
  0
LINE
  8
0
 62
     0
 10
177.846
 20
25.6109
 30
0.0
 11
177.846
 21
22.5116
 31
0.0
  0
LINE
  8
0
 62
     0
 10
177.846
 20
22.5116
 30
0.0
 11
178.645
 21
22.5116
 31
0.0
  0
LINE
  8
0
 62
     0
 10
178.645
 20
22.5116
 30
0.0
 11
178.645
 21
21.5126
 31
0.0
  0
LINE
  8
0
 62
     0
 10
178.645
 20
21.5126
 30
0.0
 11
192.646
 21
21.5126
 31
0.0
  0
LINE
  8
0
 62
     0
 10
192.646
 20
21.5126
 30
0.0
 11
192.646
 21
22.5116
 31
0.0
  0
LINE
  8
0
 62
     0
 10
192.646
 20
22.5116
 30
0.0
 11
193.445
 21
22.5116
 31
0.0
  0
LINE
  8
0
 62
     0
 10
193.445
 20
22.5116
 30
0.0
 11
193.445
 21
25.6109
 31
0.0
  0
LINE
  8
0
 62
     0
 10
193.445
 20
25.6109
 30
0.0
 11
192.646
 21
25.6109
 31
0.0
  0
LINE
  8
0
 62
     0
 10
192.646
 20
25.6109
 30
0.0
 11
192.646
 21
31.4124
 31
0.0
  0
LINE
  8
0
 62
     0
 10
192.646
 20
31.4124
 30
0.0
 11
193.445
 21
31.4124
 31
0.0
  0
LINE
  8
0
 62
     0
 10
193.445
 20
31.4124
 30
0.0
 11
193.445
 21
34.5116
 31
0.0
  0
LINE
  8
0
 62
     0
 10
193.445
 20
34.5116
 30
0.0
 11
192.646
 21
34.5116
 31
0.0
  0
LINE
  8
0
 62
     0
 10
192.646
 20
34.5116
 30
0.0
 11
192.646
 21
35.512
 31
0.0
  0
LINE
  8
0
 62
     0
 10
192.646
 20
35.512
 30
0.0
 11
178.645
 21
35.512
 31
0.0
  0
LINE
  8
0
 62
     0
 10
197.695
 20
35.512
 30
0.0
 11
197.695
 21
34.5116
 31
0.0
  0
LINE
  8
0
 62
     0
 10
197.695
 20
34.5116
 30
0.0
 11
196.896
 21
34.5116
 31
0.0
  0
LINE
  8
0
 62
     0
 10
196.896
 20
34.5116
 30
0.0
 11
196.896
 21
31.4124
 31
0.0
  0
LINE
  8
0
 62
     0
 10
196.896
 20
31.4124
 30
0.0
 11
197.695
 21
31.4124
 31
0.0
  0
LINE
  8
0
 62
     0
 10
197.695
 20
31.4124
 30
0.0
 11
197.695
 21
25.6109
 31
0.0
  0
LINE
  8
0
 62
     0
 10
197.695
 20
25.6109
 30
0.0
 11
196.896
 21
25.6109
 31
0.0
  0
LINE
  8
0
 62
     0
 10
196.896
 20
25.6109
 30
0.0
 11
196.896
 21
22.5116
 31
0.0
  0
LINE
  8
0
 62
     0
 10
196.896
 20
22.5116
 30
0.0
 11
197.695
 21
22.5116
 31
0.0
  0
LINE
  8
0
 62
     0
 10
197.695
 20
22.5116
 30
0.0
 11
197.695
 21
21.5126
 31
0.0
  0
LINE
  8
0
 62
     0
 10
197.695
 20
21.5126
 30
0.0
 11
211.694
 21
21.5126
 31
0.0
  0
LINE
  8
0
 62
     0
 10
211.694
 20
21.5126
 30
0.0
 11
211.694
 21
22.5116
 31
0.0
  0
LINE
  8
0
 62
     0
 10
211.694
 20
22.5116
 30
0.0
 11
212.495
 21
22.5116
 31
0.0
  0
LINE
  8
0
 62
     0
 10
212.495
 20
22.5116
 30
0.0
 11
212.495
 21
25.6109
 31
0.0
  0
LINE
  8
0
 62
     0
 10
212.495
 20
25.6109
 30
0.0
 11
211.694
 21
25.6109
 31
0.0
  0
LINE
  8
0
 62
     0
 10
211.694
 20
25.6109
 30
0.0
 11
211.694
 21
31.4124
 31
0.0
  0
LINE
  8
0
 62
     0
 10
211.694
 20
31.4124
 30
0.0
 11
212.495
 21
31.4124
 31
0.0
  0
LINE
  8
0
 62
     0
 10
212.495
 20
31.4124
 30
0.0
 11
212.495
 21
34.5116
 31
0.0
  0
LINE
  8
0
 62
     0
 10
212.495
 20
34.5116
 30
0.0
 11
211.694
 21
34.5116
 31
0.0
  0
LINE
  8
0
 62
     0
 10
211.694
 20
34.5116
 30
0.0
 11
211.694
 21
35.512
 31
0.0
  0
LINE
  8
0
 62
     0
 10
211.694
 20
35.512
 30
0.0
 11
197.695
 21
35.512
 31
0.0
  0
LINE
  8
0
 62
     0
 10
216.745
 20
35.512
 30
0.0
 11
216.745
 21
34.5116
 31
0.0
  0
LINE
  8
0
 62
     0
 10
216.745
 20
34.5116
 30
0.0
 11
215.944
 21
34.5116
 31
0.0
  0
LINE
  8
0
 62
     0
 10
215.944
 20
34.5116
 30
0.0
 11
215.944
 21
31.4124
 31
0.0
  0
LINE
  8
0
 62
     0
 10
215.944
 20
31.4124
 30
0.0
 11
216.745
 21
31.4124
 31
0.0
  0
LINE
  8
0
 62
     0
 10
216.745
 20
31.4124
 30
0.0
 11
216.745
 21
25.6109
 31
0.0
  0
LINE
  8
0
 62
     0
 10
216.745
 20
25.6109
 30
0.0
 11
215.944
 21
25.6109
 31
0.0
  0
LINE
  8
0
 62
     0
 10
215.944
 20
25.6109
 30
0.0
 11
215.944
 21
22.5116
 31
0.0
  0
LINE
  8
0
 62
     0
 10
215.944
 20
22.5116
 30
0.0
 11
216.745
 21
22.5116
 31
0.0
  0
LINE
  8
0
 62
     0
 10
216.745
 20
22.5116
 30
0.0
 11
216.745
 21
21.5126
 31
0.0
  0
LINE
  8
0
 62
     0
 10
216.745
 20
21.5126
 30
0.0
 11
230.746
 21
21.5126
 31
0.0
  0
LINE
  8
0
 62
     0
 10
230.746
 20
21.5126
 30
0.0
 11
230.746
 21
22.5116
 31
0.0
  0
LINE
  8
0
 62
     0
 10
230.746
 20
22.5116
 30
0.0
 11
231.545
 21
22.5116
 31
0.0
  0
LINE
  8
0
 62
     0
 10
231.545
 20
22.5116
 30
0.0
 11
231.545
 21
25.6109
 31
0.0
  0
LINE
  8
0
 62
     0
 10
231.545
 20
25.6109
 30
0.0
 11
230.746
 21
25.6109
 31
0.0
  0
LINE
  8
0
 62
     0
 10
230.746
 20
25.6109
 30
0.0
 11
230.746
 21
31.4124
 31
0.0
  0
LINE
  8
0
 62
     0
 10
230.746
 20
31.4124
 30
0.0
 11
231.545
 21
31.4124
 31
0.0
  0
LINE
  8
0
 62
     0
 10
231.545
 20
31.4124
 30
0.0
 11
231.545
 21
34.5116
 31
0.0
  0
LINE
  8
0
 62
     0
 10
231.545
 20
34.5116
 30
0.0
 11
230.746
 21
34.5116
 31
0.0
  0
LINE
  8
0
 62
     0
 10
230.746
 20
34.5116
 30
0.0
 11
230.746
 21
35.512
 31
0.0
  0
LINE
  8
0
 62
     0
 10
230.746
 20
35.512
 30
0.0
 11
216.745
 21
35.512
 31
0.0
  0
LINE
  8
0
 62
     0
 10
257.225
 20
54.5606
 30
0.0
 11
257.225
 21
53.5615
 31
0.0
  0
LINE
  8
0
 62
     0
 10
257.225
 20
53.5615
 30
0.0
 11
256.425
 21
53.5615
 31
0.0
  0
LINE
  8
0
 62
     0
 10
256.425
 20
53.5615
 30
0.0
 11
256.425
 21
50.4624
 31
0.0
  0
LINE
  8
0
 62
     0
 10
256.425
 20
50.4624
 30
0.0
 11
257.225
 21
50.4624
 31
0.0
  0
LINE
  8
0
 62
     0
 10
257.225
 20
50.4624
 30
0.0
 11
257.225
 21
49.8616
 31
0.0
  0
LINE
  8
0
 62
     0
 10
257.225
 20
49.8616
 30
0.0
 11
255.7
 21
49.8616
 31
0.0
  0
LINE
  8
0
 62
     0
 10
255.7
 20
49.8616
 30
0.0
 11
255.7
 21
53.0916
 31
0.0
  0
LINE
  8
0
 62
     0
 10
255.7
 20
53.0916
 30
0.0
 11
253.974
 21
53.0916
 31
0.0
  0
LINE
  8
0
 62
     0
 10
253.974
 20
53.0916
 30
0.0
 11
253.974
 21
54.012
 31
0.0
  0
LINE
  8
0
 62
     0
 10
253.974
 20
54.012
 30
0.0
 11
250.675
 21
54.012
 31
0.0
  0
LINE
  8
0
 62
     0
 10
250.675
 20
54.012
 30
0.0
 11
250.675
 21
53.0916
 31
0.0
  0
LINE
  8
0
 62
     0
 10
250.675
 20
53.0916
 30
0.0
 11
248.951
 21
53.0916
 31
0.0
  0
LINE
  8
0
 62
     0
 10
248.951
 20
53.0916
 30
0.0
 11
248.951
 21
49.8616
 31
0.0
  0
LINE
  8
0
 62
     0
 10
248.951
 20
49.8616
 30
0.0
 11
248.127
 21
49.8616
 31
0.0
  0
LINE
  8
0
 62
     0
 10
248.127
 20
49.8616
 30
0.0
 11
248.127
 21
47.0613
 31
0.0
  0
LINE
  8
0
 62
     0
 10
248.127
 20
47.0613
 30
0.0
 11
248.951
 21
47.0613
 31
0.0
  0
LINE
  8
0
 62
     0
 10
248.951
 20
47.0613
 30
0.0
 11
248.951
 21
40.7928
 31
0.0
  0
LINE
  8
0
 62
     0
 10
248.951
 20
40.7928
 30
0.0
 11
250.675
 21
40.7928
 31
0.0
  0
LINE
  8
0
 62
     0
 10
250.675
 20
40.7928
 30
0.0
 11
250.675
 21
39.8117
 31
0.0
  0
LINE
  8
0
 62
     0
 10
250.675
 20
39.8117
 30
0.0
 11
253.974
 21
39.8117
 31
0.0
  0
LINE
  8
0
 62
     0
 10
253.974
 20
39.8117
 30
0.0
 11
253.974
 21
40.7928
 31
0.0
  0
LINE
  8
0
 62
     0
 10
253.974
 20
40.7928
 30
0.0
 11
255.7
 21
40.7928
 31
0.0
  0
LINE
  8
0
 62
     0
 10
255.7
 20
40.7928
 30
0.0
 11
255.7
 21
45.2617
 31
0.0
  0
LINE
  8
0
 62
     0
 10
255.7
 20
45.2617
 30
0.0
 11
257.225
 21
45.2617
 31
0.0
  0
LINE
  8
0
 62
     0
 10
257.225
 20
45.2617
 30
0.0
 11
257.225
 21
44.661
 31
0.0
  0
LINE
  8
0
 62
     0
 10
257.225
 20
44.661
 30
0.0
 11
256.425
 21
44.661
 31
0.0
  0
LINE
  8
0
 62
     0
 10
256.425
 20
44.661
 30
0.0
 11
256.425
 21
41.5618
 31
0.0
  0
LINE
  8
0
 62
     0
 10
256.425
 20
41.5618
 30
0.0
 11
257.225
 21
41.5618
 31
0.0
  0
LINE
  8
0
 62
     0
 10
257.225
 20
41.5618
 30
0.0
 11
257.225
 21
40.5613
 31
0.0
  0
LINE
  8
0
 62
     0
 10
257.225
 20
40.5613
 30
0.0
 11
271.225
 21
40.5613
 31
0.0
  0
LINE
  8
0
 62
     0
 10
271.225
 20
40.5613
 30
0.0
 11
271.225
 21
41.5618
 31
0.0
  0
LINE
  8
0
 62
     0
 10
271.225
 20
41.5618
 30
0.0
 11
272.025
 21
41.5618
 31
0.0
  0
LINE
  8
0
 62
     0
 10
272.025
 20
41.5618
 30
0.0
 11
272.025
 21
44.661
 31
0.0
  0
LINE
  8
0
 62
     0
 10
272.025
 20
44.661
 30
0.0
 11
271.225
 21
44.661
 31
0.0
  0
LINE
  8
0
 62
     0
 10
271.225
 20
44.661
 30
0.0
 11
271.225
 21
45.2617
 31
0.0
  0
LINE
  8
0
 62
     0
 10
271.225
 20
45.2617
 30
0.0
 11
272.749
 21
45.2617
 31
0.0
  0
LINE
  8
0
 62
     0
 10
272.749
 20
45.2617
 30
0.0
 11
272.749
 21
40.7928
 31
0.0
  0
LINE
  8
0
 62
     0
 10
272.749
 20
40.7928
 30
0.0
 11
274.475
 21
40.7928
 31
0.0
  0
LINE
  8
0
 62
     0
 10
274.475
 20
40.7928
 30
0.0
 11
274.475
 21
39.8117
 31
0.0
  0
LINE
  8
0
 62
     0
 10
274.475
 20
39.8117
 30
0.0
 11
277.775
 21
39.8117
 31
0.0
  0
LINE
  8
0
 62
     0
 10
277.775
 20
39.8117
 30
0.0
 11
277.775
 21
40.7928
 31
0.0
  0
LINE
  8
0
 62
     0
 10
277.775
 20
40.7928
 30
0.0
 11
279.501
 21
40.7928
 31
0.0
  0
LINE
  8
0
 62
     0
 10
279.501
 20
40.7928
 30
0.0
 11
279.501
 21
47.0613
 31
0.0
  0
LINE
  8
0
 62
     0
 10
279.501
 20
47.0613
 30
0.0
 11
280.325
 21
47.0613
 31
0.0
  0
LINE
  8
0
 62
     0
 10
280.325
 20
47.0613
 30
0.0
 11
280.325
 21
49.8616
 31
0.0
  0
LINE
  8
0
 62
     0
 10
280.325
 20
49.8616
 30
0.0
 11
279.501
 21
49.8616
 31
0.0
  0
LINE
  8
0
 62
     0
 10
279.501
 20
49.8616
 30
0.0
 11
279.501
 21
53.0916
 31
0.0
  0
LINE
  8
0
 62
     0
 10
279.501
 20
53.0916
 30
0.0
 11
277.775
 21
53.0916
 31
0.0
  0
LINE
  8
0
 62
     0
 10
277.775
 20
53.0916
 30
0.0
 11
277.775
 21
54.012
 31
0.0
  0
LINE
  8
0
 62
     0
 10
277.775
 20
54.012
 30
0.0
 11
274.475
 21
54.012
 31
0.0
  0
LINE
  8
0
 62
     0
 10
274.475
 20
54.012
 30
0.0
 11
274.475
 21
53.0916
 31
0.0
  0
LINE
  8
0
 62
     0
 10
274.475
 20
53.0916
 30
0.0
 11
272.749
 21
53.0916
 31
0.0
  0
LINE
  8
0
 62
     0
 10
272.749
 20
53.0916
 30
0.0
 11
272.749
 21
49.8616
 31
0.0
  0
LINE
  8
0
 62
     0
 10
272.749
 20
49.8616
 30
0.0
 11
271.225
 21
49.8616
 31
0.0
  0
LINE
  8
0
 62
     0
 10
271.225
 20
49.8616
 30
0.0
 11
271.225
 21
50.4624
 31
0.0
  0
LINE
  8
0
 62
     0
 10
271.225
 20
50.4624
 30
0.0
 11
272.025
 21
50.4624
 31
0.0
  0
LINE
  8
0
 62
     0
 10
272.025
 20
50.4624
 30
0.0
 11
272.025
 21
53.5615
 31
0.0
  0
LINE
  8
0
 62
     0
 10
272.025
 20
53.5615
 30
0.0
 11
271.225
 21
53.5615
 31
0.0
  0
LINE
  8
0
 62
     0
 10
271.225
 20
53.5615
 30
0.0
 11
271.225
 21
54.5606
 31
0.0
  0
LINE
  8
0
 62
     0
 10
271.225
 20
54.5606
 30
0.0
 11
257.225
 21
54.5606
 31
0.0
  0
LINE
  8
0
 62
     0
 10
9.57598
 20
54.5606
 30
0.0
 11
9.57598
 21
53.5615
 31
0.0
  0
LINE
  8
0
 62
     0
 10
9.57598
 20
53.5615
 30
0.0
 11
8.77672
 21
53.5615
 31
0.0
  0
LINE
  8
0
 62
     0
 10
8.77672
 20
53.5615
 30
0.0
 11
8.77672
 21
50.4624
 31
0.0
  0
LINE
  8
0
 62
     0
 10
8.77672
 20
50.4624
 30
0.0
 11
9.57598
 21
50.4624
 31
0.0
  0
LINE
  8
0
 62
     0
 10
9.57598
 20
50.4624
 30
0.0
 11
9.57598
 21
44.661
 31
0.0
  0
LINE
  8
0
 62
     0
 10
9.57598
 20
44.661
 30
0.0
 11
8.77672
 21
44.661
 31
0.0
  0
LINE
  8
0
 62
     0
 10
8.77672
 20
44.661
 30
0.0
 11
8.77672
 21
41.5618
 31
0.0
  0
LINE
  8
0
 62
     0
 10
8.77672
 20
41.5618
 30
0.0
 11
9.57598
 21
41.5618
 31
0.0
  0
LINE
  8
0
 62
     0
 10
9.57598
 20
41.5618
 30
0.0
 11
9.57598
 21
40.5613
 31
0.0
  0
LINE
  8
0
 62
     0
 10
9.57598
 20
40.5613
 30
0.0
 11
23.5768
 21
40.5613
 31
0.0
  0
LINE
  8
0
 62
     0
 10
23.5768
 20
40.5613
 30
0.0
 11
23.5768
 21
41.5618
 31
0.0
  0
LINE
  8
0
 62
     0
 10
23.5768
 20
41.5618
 30
0.0
 11
24.3761
 21
41.5618
 31
0.0
  0
LINE
  8
0
 62
     0
 10
24.3761
 20
41.5618
 30
0.0
 11
24.3761
 21
44.661
 31
0.0
  0
LINE
  8
0
 62
     0
 10
24.3761
 20
44.661
 30
0.0
 11
23.5768
 21
44.661
 31
0.0
  0
LINE
  8
0
 62
     0
 10
23.5768
 20
44.661
 30
0.0
 11
23.5768
 21
50.4624
 31
0.0
  0
LINE
  8
0
 62
     0
 10
23.5768
 20
50.4624
 30
0.0
 11
24.3761
 21
50.4624
 31
0.0
  0
LINE
  8
0
 62
     0
 10
24.3761
 20
50.4624
 30
0.0
 11
24.3761
 21
53.5615
 31
0.0
  0
LINE
  8
0
 62
     0
 10
24.3761
 20
53.5615
 30
0.0
 11
23.5768
 21
53.5615
 31
0.0
  0
LINE
  8
0
 62
     0
 10
23.5768
 20
53.5615
 30
0.0
 11
23.5768
 21
54.5606
 31
0.0
  0
LINE
  8
0
 62
     0
 10
23.5768
 20
54.5606
 30
0.0
 11
9.57598
 21
54.5606
 31
0.0
  0
LINE
  8
0
 62
     0
 10
35.7699
 20
54.5606
 30
0.0
 11
35.7699
 21
53.5615
 31
0.0
  0
LINE
  8
0
 62
     0
 10
35.7699
 20
53.5615
 30
0.0
 11
34.9705
 21
53.5615
 31
0.0
  0
LINE
  8
0
 62
     0
 10
34.9705
 20
53.5615
 30
0.0
 11
34.9705
 21
50.4624
 31
0.0
  0
LINE
  8
0
 62
     0
 10
34.9705
 20
50.4624
 30
0.0
 11
35.7699
 21
50.4624
 31
0.0
  0
LINE
  8
0
 62
     0
 10
35.7699
 20
50.4624
 30
0.0
 11
35.7699
 21
44.661
 31
0.0
  0
LINE
  8
0
 62
     0
 10
35.7699
 20
44.661
 30
0.0
 11
34.9705
 21
44.661
 31
0.0
  0
LINE
  8
0
 62
     0
 10
34.9705
 20
44.661
 30
0.0
 11
34.9705
 21
41.5618
 31
0.0
  0
LINE
  8
0
 62
     0
 10
34.9705
 20
41.5618
 30
0.0
 11
35.7699
 21
41.5618
 31
0.0
  0
LINE
  8
0
 62
     0
 10
35.7699
 20
41.5618
 30
0.0
 11
35.7699
 21
40.5613
 31
0.0
  0
LINE
  8
0
 62
     0
 10
35.7699
 20
40.5613
 30
0.0
 11
49.7706
 21
40.5613
 31
0.0
  0
LINE
  8
0
 62
     0
 10
49.7706
 20
40.5613
 30
0.0
 11
49.7706
 21
41.5618
 31
0.0
  0
LINE
  8
0
 62
     0
 10
49.7706
 20
41.5618
 30
0.0
 11
50.5686
 21
41.5618
 31
0.0
  0
LINE
  8
0
 62
     0
 10
50.5686
 20
41.5618
 30
0.0
 11
50.5686
 21
44.661
 31
0.0
  0
LINE
  8
0
 62
     0
 10
50.5686
 20
44.661
 30
0.0
 11
49.7706
 21
44.661
 31
0.0
  0
LINE
  8
0
 62
     0
 10
49.7706
 20
44.661
 30
0.0
 11
49.7706
 21
50.4624
 31
0.0
  0
LINE
  8
0
 62
     0
 10
49.7706
 20
50.4624
 30
0.0
 11
50.5686
 21
50.4624
 31
0.0
  0
LINE
  8
0
 62
     0
 10
50.5686
 20
50.4624
 30
0.0
 11
50.5686
 21
53.5615
 31
0.0
  0
LINE
  8
0
 62
     0
 10
50.5686
 20
53.5615
 30
0.0
 11
49.7706
 21
53.5615
 31
0.0
  0
LINE
  8
0
 62
     0
 10
49.7706
 20
53.5615
 30
0.0
 11
49.7706
 21
54.5606
 31
0.0
  0
LINE
  8
0
 62
     0
 10
49.7706
 20
54.5606
 30
0.0
 11
35.7699
 21
54.5606
 31
0.0
  0
LINE
  8
0
 62
     0
 10
54.8185
 20
54.5606
 30
0.0
 11
54.8185
 21
53.5615
 31
0.0
  0
LINE
  8
0
 62
     0
 10
54.8185
 20
53.5615
 30
0.0
 11
54.0205
 21
53.5615
 31
0.0
  0
LINE
  8
0
 62
     0
 10
54.0205
 20
53.5615
 30
0.0
 11
54.0205
 21
50.4624
 31
0.0
  0
LINE
  8
0
 62
     0
 10
54.0205
 20
50.4624
 30
0.0
 11
54.8185
 21
50.4624
 31
0.0
  0
LINE
  8
0
 62
     0
 10
54.8185
 20
50.4624
 30
0.0
 11
54.8185
 21
44.661
 31
0.0
  0
LINE
  8
0
 62
     0
 10
54.8185
 20
44.661
 30
0.0
 11
54.0205
 21
44.661
 31
0.0
  0
LINE
  8
0
 62
     0
 10
54.0205
 20
44.661
 30
0.0
 11
54.0205
 21
41.5618
 31
0.0
  0
LINE
  8
0
 62
     0
 10
54.0205
 20
41.5618
 30
0.0
 11
54.8185
 21
41.5618
 31
0.0
  0
LINE
  8
0
 62
     0
 10
54.8185
 20
41.5618
 30
0.0
 11
54.8185
 21
40.5613
 31
0.0
  0
LINE
  8
0
 62
     0
 10
54.8185
 20
40.5613
 30
0.0
 11
68.8192
 21
40.5613
 31
0.0
  0
LINE
  8
0
 62
     0
 10
68.8192
 20
40.5613
 30
0.0
 11
68.8192
 21
41.5618
 31
0.0
  0
LINE
  8
0
 62
     0
 10
68.8192
 20
41.5618
 30
0.0
 11
69.62
 21
41.5618
 31
0.0
  0
LINE
  8
0
 62
     0
 10
69.62
 20
41.5618
 30
0.0
 11
69.62
 21
44.661
 31
0.0
  0
LINE
  8
0
 62
     0
 10
69.62
 20
44.661
 30
0.0
 11
68.8192
 21
44.661
 31
0.0
  0
LINE
  8
0
 62
     0
 10
68.8192
 20
44.661
 30
0.0
 11
68.8192
 21
50.4624
 31
0.0
  0
LINE
  8
0
 62
     0
 10
68.8192
 20
50.4624
 30
0.0
 11
69.62
 21
50.4624
 31
0.0
  0
LINE
  8
0
 62
     0
 10
69.62
 20
50.4624
 30
0.0
 11
69.62
 21
53.5615
 31
0.0
  0
LINE
  8
0
 62
     0
 10
69.62
 20
53.5615
 30
0.0
 11
68.8192
 21
53.5615
 31
0.0
  0
LINE
  8
0
 62
     0
 10
68.8192
 20
53.5615
 30
0.0
 11
68.8192
 21
54.5606
 31
0.0
  0
LINE
  8
0
 62
     0
 10
68.8192
 20
54.5606
 30
0.0
 11
54.8185
 21
54.5606
 31
0.0
  0
LINE
  8
0
 62
     0
 10
73.8699
 20
54.5606
 30
0.0
 11
73.8699
 21
53.5615
 31
0.0
  0
LINE
  8
0
 62
     0
 10
73.8699
 20
53.5615
 30
0.0
 11
73.0691
 21
53.5615
 31
0.0
  0
LINE
  8
0
 62
     0
 10
73.0691
 20
53.5615
 30
0.0
 11
73.0691
 21
50.4624
 31
0.0
  0
LINE
  8
0
 62
     0
 10
73.0691
 20
50.4624
 30
0.0
 11
73.8699
 21
50.4624
 31
0.0
  0
LINE
  8
0
 62
     0
 10
73.8699
 20
50.4624
 30
0.0
 11
73.8699
 21
44.661
 31
0.0
  0
LINE
  8
0
 62
     0
 10
73.8699
 20
44.661
 30
0.0
 11
73.0691
 21
44.661
 31
0.0
  0
LINE
  8
0
 62
     0
 10
73.0691
 20
44.661
 30
0.0
 11
73.0691
 21
41.5618
 31
0.0
  0
LINE
  8
0
 62
     0
 10
73.0691
 20
41.5618
 30
0.0
 11
73.8699
 21
41.5618
 31
0.0
  0
LINE
  8
0
 62
     0
 10
73.8699
 20
41.5618
 30
0.0
 11
73.8699
 21
40.5613
 31
0.0
  0
LINE
  8
0
 62
     0
 10
73.8699
 20
40.5613
 30
0.0
 11
87.8692
 21
40.5613
 31
0.0
  0
LINE
  8
0
 62
     0
 10
87.8692
 20
40.5613
 30
0.0
 11
87.8692
 21
41.5618
 31
0.0
  0
LINE
  8
0
 62
     0
 10
87.8692
 20
41.5618
 30
0.0
 11
88.67
 21
41.5618
 31
0.0
  0
LINE
  8
0
 62
     0
 10
88.67
 20
41.5618
 30
0.0
 11
88.67
 21
44.661
 31
0.0
  0
LINE
  8
0
 62
     0
 10
88.67
 20
44.661
 30
0.0
 11
87.8692
 21
44.661
 31
0.0
  0
LINE
  8
0
 62
     0
 10
87.8692
 20
44.661
 30
0.0
 11
87.8692
 21
50.4624
 31
0.0
  0
LINE
  8
0
 62
     0
 10
87.8692
 20
50.4624
 30
0.0
 11
88.67
 21
50.4624
 31
0.0
  0
LINE
  8
0
 62
     0
 10
88.67
 20
50.4624
 30
0.0
 11
88.67
 21
53.5615
 31
0.0
  0
LINE
  8
0
 62
     0
 10
88.67
 20
53.5615
 30
0.0
 11
87.8692
 21
53.5615
 31
0.0
  0
LINE
  8
0
 62
     0
 10
87.8692
 20
53.5615
 30
0.0
 11
87.8692
 21
54.5606
 31
0.0
  0
LINE
  8
0
 62
     0
 10
87.8692
 20
54.5606
 30
0.0
 11
73.8699
 21
54.5606
 31
0.0
  0
LINE
  8
0
 62
     0
 10
92.9199
 20
54.5606
 30
0.0
 11
92.9199
 21
53.5615
 31
0.0
  0
LINE
  8
0
 62
     0
 10
92.9199
 20
53.5615
 30
0.0
 11
92.1191
 21
53.5615
 31
0.0
  0
LINE
  8
0
 62
     0
 10
92.1191
 20
53.5615
 30
0.0
 11
92.1191
 21
50.4624
 31
0.0
  0
LINE
  8
0
 62
     0
 10
92.1191
 20
50.4624
 30
0.0
 11
92.9199
 21
50.4624
 31
0.0
  0
LINE
  8
0
 62
     0
 10
92.9199
 20
50.4624
 30
0.0
 11
92.9199
 21
44.661
 31
0.0
  0
LINE
  8
0
 62
     0
 10
92.9199
 20
44.661
 30
0.0
 11
92.1191
 21
44.661
 31
0.0
  0
LINE
  8
0
 62
     0
 10
92.1191
 20
44.661
 30
0.0
 11
92.1191
 21
41.5618
 31
0.0
  0
LINE
  8
0
 62
     0
 10
92.1191
 20
41.5618
 30
0.0
 11
92.9199
 21
41.5618
 31
0.0
  0
LINE
  8
0
 62
     0
 10
92.9199
 20
41.5618
 30
0.0
 11
92.9199
 21
40.5613
 31
0.0
  0
LINE
  8
0
 62
     0
 10
92.9199
 20
40.5613
 30
0.0
 11
106.919
 21
40.5613
 31
0.0
  0
LINE
  8
0
 62
     0
 10
106.919
 20
40.5613
 30
0.0
 11
106.919
 21
41.5618
 31
0.0
  0
LINE
  8
0
 62
     0
 10
106.919
 20
41.5618
 30
0.0
 11
107.719
 21
41.5618
 31
0.0
  0
LINE
  8
0
 62
     0
 10
107.719
 20
41.5618
 30
0.0
 11
107.719
 21
44.661
 31
0.0
  0
LINE
  8
0
 62
     0
 10
107.719
 20
44.661
 30
0.0
 11
106.919
 21
44.661
 31
0.0
  0
LINE
  8
0
 62
     0
 10
106.919
 20
44.661
 30
0.0
 11
106.919
 21
50.4624
 31
0.0
  0
LINE
  8
0
 62
     0
 10
106.919
 20
50.4624
 30
0.0
 11
107.719
 21
50.4624
 31
0.0
  0
LINE
  8
0
 62
     0
 10
107.719
 20
50.4624
 30
0.0
 11
107.719
 21
53.5615
 31
0.0
  0
LINE
  8
0
 62
     0
 10
107.719
 20
53.5615
 30
0.0
 11
106.919
 21
53.5615
 31
0.0
  0
LINE
  8
0
 62
     0
 10
106.919
 20
53.5615
 30
0.0
 11
106.919
 21
54.5606
 31
0.0
  0
LINE
  8
0
 62
     0
 10
106.919
 20
54.5606
 30
0.0
 11
92.9199
 21
54.5606
 31
0.0
  0
LINE
  8
0
 62
     0
 10
111.968
 20
54.5606
 30
0.0
 11
111.968
 21
53.5615
 31
0.0
  0
LINE
  8
0
 62
     0
 10
111.968
 20
53.5615
 30
0.0
 11
111.169
 21
53.5615
 31
0.0
  0
LINE
  8
0
 62
     0
 10
111.169
 20
53.5615
 30
0.0
 11
111.169
 21
50.4624
 31
0.0
  0
LINE
  8
0
 62
     0
 10
111.169
 20
50.4624
 30
0.0
 11
111.968
 21
50.4624
 31
0.0
  0
LINE
  8
0
 62
     0
 10
111.968
 20
50.4624
 30
0.0
 11
111.968
 21
44.661
 31
0.0
  0
LINE
  8
0
 62
     0
 10
111.968
 20
44.661
 30
0.0
 11
111.169
 21
44.661
 31
0.0
  0
LINE
  8
0
 62
     0
 10
111.169
 20
44.661
 30
0.0
 11
111.169
 21
41.5618
 31
0.0
  0
LINE
  8
0
 62
     0
 10
111.169
 20
41.5618
 30
0.0
 11
111.968
 21
41.5618
 31
0.0
  0
LINE
  8
0
 62
     0
 10
111.968
 20
41.5618
 30
0.0
 11
111.968
 21
40.5613
 31
0.0
  0
LINE
  8
0
 62
     0
 10
111.968
 20
40.5613
 30
0.0
 11
125.971
 21
40.5613
 31
0.0
  0
LINE
  8
0
 62
     0
 10
125.971
 20
40.5613
 30
0.0
 11
125.971
 21
41.5618
 31
0.0
  0
LINE
  8
0
 62
     0
 10
125.971
 20
41.5618
 30
0.0
 11
126.77
 21
41.5618
 31
0.0
  0
LINE
  8
0
 62
     0
 10
126.77
 20
41.5618
 30
0.0
 11
126.77
 21
44.661
 31
0.0
  0
LINE
  8
0
 62
     0
 10
126.77
 20
44.661
 30
0.0
 11
125.971
 21
44.661
 31
0.0
  0
LINE
  8
0
 62
     0
 10
125.971
 20
44.661
 30
0.0
 11
125.971
 21
50.4624
 31
0.0
  0
LINE
  8
0
 62
     0
 10
125.971
 20
50.4624
 30
0.0
 11
126.77
 21
50.4624
 31
0.0
  0
LINE
  8
0
 62
     0
 10
126.77
 20
50.4624
 30
0.0
 11
126.77
 21
53.5615
 31
0.0
  0
LINE
  8
0
 62
     0
 10
126.77
 20
53.5615
 30
0.0
 11
125.971
 21
53.5615
 31
0.0
  0
LINE
  8
0
 62
     0
 10
125.971
 20
53.5615
 30
0.0
 11
125.971
 21
54.5606
 31
0.0
  0
LINE
  8
0
 62
     0
 10
125.971
 20
54.5606
 30
0.0
 11
111.968
 21
54.5606
 31
0.0
  0
LINE
  8
0
 62
     0
 10
131.02
 20
54.5606
 30
0.0
 11
131.02
 21
53.5615
 31
0.0
  0
LINE
  8
0
 62
     0
 10
131.02
 20
53.5615
 30
0.0
 11
130.218
 21
53.5615
 31
0.0
  0
LINE
  8
0
 62
     0
 10
130.218
 20
53.5615
 30
0.0
 11
130.218
 21
50.4624
 31
0.0
  0
LINE
  8
0
 62
     0
 10
130.218
 20
50.4624
 30
0.0
 11
131.02
 21
50.4624
 31
0.0
  0
LINE
  8
0
 62
     0
 10
131.02
 20
50.4624
 30
0.0
 11
131.02
 21
44.661
 31
0.0
  0
LINE
  8
0
 62
     0
 10
131.02
 20
44.661
 30
0.0
 11
130.218
 21
44.661
 31
0.0
  0
LINE
  8
0
 62
     0
 10
130.218
 20
44.661
 30
0.0
 11
130.218
 21
41.5618
 31
0.0
  0
LINE
  8
0
 62
     0
 10
130.218
 20
41.5618
 30
0.0
 11
131.02
 21
41.5618
 31
0.0
  0
LINE
  8
0
 62
     0
 10
131.02
 20
41.5618
 30
0.0
 11
131.02
 21
40.5613
 31
0.0
  0
LINE
  8
0
 62
     0
 10
131.02
 20
40.5613
 30
0.0
 11
145.019
 21
40.5613
 31
0.0
  0
LINE
  8
0
 62
     0
 10
145.019
 20
40.5613
 30
0.0
 11
145.019
 21
41.5618
 31
0.0
  0
LINE
  8
0
 62
     0
 10
145.019
 20
41.5618
 30
0.0
 11
145.82
 21
41.5618
 31
0.0
  0
LINE
  8
0
 62
     0
 10
145.82
 20
41.5618
 30
0.0
 11
145.82
 21
44.661
 31
0.0
  0
LINE
  8
0
 62
     0
 10
145.82
 20
44.661
 30
0.0
 11
145.019
 21
44.661
 31
0.0
  0
LINE
  8
0
 62
     0
 10
145.019
 20
44.661
 30
0.0
 11
145.019
 21
50.4624
 31
0.0
  0
LINE
  8
0
 62
     0
 10
145.019
 20
50.4624
 30
0.0
 11
145.82
 21
50.4624
 31
0.0
  0
LINE
  8
0
 62
     0
 10
145.82
 20
50.4624
 30
0.0
 11
145.82
 21
53.5615
 31
0.0
  0
LINE
  8
0
 62
     0
 10
145.82
 20
53.5615
 30
0.0
 11
145.019
 21
53.5615
 31
0.0
  0
LINE
  8
0
 62
     0
 10
145.019
 20
53.5615
 30
0.0
 11
145.019
 21
54.5606
 31
0.0
  0
LINE
  8
0
 62
     0
 10
145.019
 20
54.5606
 30
0.0
 11
131.02
 21
54.5606
 31
0.0
  0
LINE
  8
0
 62
     0
 10
150.07
 20
54.5606
 30
0.0
 11
150.07
 21
53.5615
 31
0.0
  0
LINE
  8
0
 62
     0
 10
150.07
 20
53.5615
 30
0.0
 11
149.269
 21
53.5615
 31
0.0
  0
LINE
  8
0
 62
     0
 10
149.269
 20
53.5615
 30
0.0
 11
149.269
 21
50.4624
 31
0.0
  0
LINE
  8
0
 62
     0
 10
149.269
 20
50.4624
 30
0.0
 11
150.07
 21
50.4624
 31
0.0
  0
LINE
  8
0
 62
     0
 10
150.07
 20
50.4624
 30
0.0
 11
150.07
 21
44.661
 31
0.0
  0
LINE
  8
0
 62
     0
 10
150.07
 20
44.661
 30
0.0
 11
149.269
 21
44.661
 31
0.0
  0
LINE
  8
0
 62
     0
 10
149.269
 20
44.661
 30
0.0
 11
149.269
 21
41.5618
 31
0.0
  0
LINE
  8
0
 62
     0
 10
149.269
 20
41.5618
 30
0.0
 11
150.07
 21
41.5618
 31
0.0
  0
LINE
  8
0
 62
     0
 10
150.07
 20
41.5618
 30
0.0
 11
150.07
 21
40.5613
 31
0.0
  0
LINE
  8
0
 62
     0
 10
150.07
 20
40.5613
 30
0.0
 11
164.069
 21
40.5613
 31
0.0
  0
LINE
  8
0
 62
     0
 10
164.069
 20
40.5613
 30
0.0
 11
164.069
 21
41.5618
 31
0.0
  0
LINE
  8
0
 62
     0
 10
164.069
 20
41.5618
 30
0.0
 11
164.87
 21
41.5618
 31
0.0
  0
LINE
  8
0
 62
     0
 10
164.87
 20
41.5618
 30
0.0
 11
164.87
 21
44.661
 31
0.0
  0
LINE
  8
0
 62
     0
 10
164.87
 20
44.661
 30
0.0
 11
164.069
 21
44.661
 31
0.0
  0
LINE
  8
0
 62
     0
 10
164.069
 20
44.661
 30
0.0
 11
164.069
 21
50.4624
 31
0.0
  0
LINE
  8
0
 62
     0
 10
164.069
 20
50.4624
 30
0.0
 11
164.87
 21
50.4624
 31
0.0
  0
LINE
  8
0
 62
     0
 10
164.87
 20
50.4624
 30
0.0
 11
164.87
 21
53.5615
 31
0.0
  0
LINE
  8
0
 62
     0
 10
164.87
 20
53.5615
 30
0.0
 11
164.069
 21
53.5615
 31
0.0
  0
LINE
  8
0
 62
     0
 10
164.069
 20
53.5615
 30
0.0
 11
164.069
 21
54.5606
 31
0.0
  0
LINE
  8
0
 62
     0
 10
164.069
 20
54.5606
 30
0.0
 11
150.07
 21
54.5606
 31
0.0
  0
LINE
  8
0
 62
     0
 10
169.12
 20
54.5606
 30
0.0
 11
169.12
 21
53.5615
 31
0.0
  0
LINE
  8
0
 62
     0
 10
169.12
 20
53.5615
 30
0.0
 11
168.319
 21
53.5615
 31
0.0
  0
LINE
  8
0
 62
     0
 10
168.319
 20
53.5615
 30
0.0
 11
168.319
 21
50.4624
 31
0.0
  0
LINE
  8
0
 62
     0
 10
168.319
 20
50.4624
 30
0.0
 11
169.12
 21
50.4624
 31
0.0
  0
LINE
  8
0
 62
     0
 10
169.12
 20
50.4624
 30
0.0
 11
169.12
 21
44.661
 31
0.0
  0
LINE
  8
0
 62
     0
 10
169.12
 20
44.661
 30
0.0
 11
168.319
 21
44.661
 31
0.0
  0
LINE
  8
0
 62
     0
 10
168.319
 20
44.661
 30
0.0
 11
168.319
 21
41.5618
 31
0.0
  0
LINE
  8
0
 62
     0
 10
168.319
 20
41.5618
 30
0.0
 11
169.12
 21
41.5618
 31
0.0
  0
LINE
  8
0
 62
     0
 10
169.12
 20
41.5618
 30
0.0
 11
169.12
 21
40.5613
 31
0.0
  0
LINE
  8
0
 62
     0
 10
169.12
 20
40.5613
 30
0.0
 11
183.121
 21
40.5613
 31
0.0
  0
LINE
  8
0
 62
     0
 10
183.121
 20
40.5613
 30
0.0
 11
183.121
 21
41.5618
 31
0.0
  0
LINE
  8
0
 62
     0
 10
183.121
 20
41.5618
 30
0.0
 11
183.92
 21
41.5618
 31
0.0
  0
LINE
  8
0
 62
     0
 10
183.92
 20
41.5618
 30
0.0
 11
183.92
 21
44.661
 31
0.0
  0
LINE
  8
0
 62
     0
 10
183.92
 20
44.661
 30
0.0
 11
183.121
 21
44.661
 31
0.0
  0
LINE
  8
0
 62
     0
 10
183.121
 20
44.661
 30
0.0
 11
183.121
 21
50.4624
 31
0.0
  0
LINE
  8
0
 62
     0
 10
183.121
 20
50.4624
 30
0.0
 11
183.92
 21
50.4624
 31
0.0
  0
LINE
  8
0
 62
     0
 10
183.92
 20
50.4624
 30
0.0
 11
183.92
 21
53.5615
 31
0.0
  0
LINE
  8
0
 62
     0
 10
183.92
 20
53.5615
 30
0.0
 11
183.121
 21
53.5615
 31
0.0
  0
LINE
  8
0
 62
     0
 10
183.121
 20
53.5615
 30
0.0
 11
183.121
 21
54.5606
 31
0.0
  0
LINE
  8
0
 62
     0
 10
183.121
 20
54.5606
 30
0.0
 11
169.12
 21
54.5606
 31
0.0
  0
LINE
  8
0
 62
     0
 10
188.17
 20
54.5606
 30
0.0
 11
188.17
 21
53.5615
 31
0.0
  0
LINE
  8
0
 62
     0
 10
188.17
 20
53.5615
 30
0.0
 11
187.371
 21
53.5615
 31
0.0
  0
LINE
  8
0
 62
     0
 10
187.371
 20
53.5615
 30
0.0
 11
187.371
 21
50.4624
 31
0.0
  0
LINE
  8
0
 62
     0
 10
187.371
 20
50.4624
 30
0.0
 11
188.17
 21
50.4624
 31
0.0
  0
LINE
  8
0
 62
     0
 10
188.17
 20
50.4624
 30
0.0
 11
188.17
 21
44.661
 31
0.0
  0
LINE
  8
0
 62
     0
 10
188.17
 20
44.661
 30
0.0
 11
187.371
 21
44.661
 31
0.0
  0
LINE
  8
0
 62
     0
 10
187.371
 20
44.661
 30
0.0
 11
187.371
 21
41.5618
 31
0.0
  0
LINE
  8
0
 62
     0
 10
187.371
 20
41.5618
 30
0.0
 11
188.17
 21
41.5618
 31
0.0
  0
LINE
  8
0
 62
     0
 10
188.17
 20
41.5618
 30
0.0
 11
188.17
 21
40.5613
 31
0.0
  0
LINE
  8
0
 62
     0
 10
188.17
 20
40.5613
 30
0.0
 11
202.169
 21
40.5613
 31
0.0
  0
LINE
  8
0
 62
     0
 10
202.169
 20
40.5613
 30
0.0
 11
202.169
 21
41.5618
 31
0.0
  0
LINE
  8
0
 62
     0
 10
202.169
 20
41.5618
 30
0.0
 11
202.97
 21
41.5618
 31
0.0
  0
LINE
  8
0
 62
     0
 10
202.97
 20
41.5618
 30
0.0
 11
202.97
 21
44.661
 31
0.0
  0
LINE
  8
0
 62
     0
 10
202.97
 20
44.661
 30
0.0
 11
202.169
 21
44.661
 31
0.0
  0
LINE
  8
0
 62
     0
 10
202.169
 20
44.661
 30
0.0
 11
202.169
 21
50.4624
 31
0.0
  0
LINE
  8
0
 62
     0
 10
202.169
 20
50.4624
 30
0.0
 11
202.97
 21
50.4624
 31
0.0
  0
LINE
  8
0
 62
     0
 10
202.97
 20
50.4624
 30
0.0
 11
202.97
 21
53.5615
 31
0.0
  0
LINE
  8
0
 62
     0
 10
202.97
 20
53.5615
 30
0.0
 11
202.169
 21
53.5615
 31
0.0
  0
LINE
  8
0
 62
     0
 10
202.169
 20
53.5615
 30
0.0
 11
202.169
 21
54.5606
 31
0.0
  0
LINE
  8
0
 62
     0
 10
202.169
 20
54.5606
 30
0.0
 11
188.17
 21
54.5606
 31
0.0
  0
LINE
  8
0
 62
     0
 10
207.22
 20
54.5606
 30
0.0
 11
207.22
 21
53.5615
 31
0.0
  0
LINE
  8
0
 62
     0
 10
207.22
 20
53.5615
 30
0.0
 11
206.419
 21
53.5615
 31
0.0
  0
LINE
  8
0
 62
     0
 10
206.419
 20
53.5615
 30
0.0
 11
206.419
 21
50.4624
 31
0.0
  0
LINE
  8
0
 62
     0
 10
206.419
 20
50.4624
 30
0.0
 11
207.22
 21
50.4624
 31
0.0
  0
LINE
  8
0
 62
     0
 10
207.22
 20
50.4624
 30
0.0
 11
207.22
 21
44.661
 31
0.0
  0
LINE
  8
0
 62
     0
 10
207.22
 20
44.661
 30
0.0
 11
206.419
 21
44.661
 31
0.0
  0
LINE
  8
0
 62
     0
 10
206.419
 20
44.661
 30
0.0
 11
206.419
 21
41.5618
 31
0.0
  0
LINE
  8
0
 62
     0
 10
206.419
 20
41.5618
 30
0.0
 11
207.22
 21
41.5618
 31
0.0
  0
LINE
  8
0
 62
     0
 10
207.22
 20
41.5618
 30
0.0
 11
207.22
 21
40.5613
 31
0.0
  0
LINE
  8
0
 62
     0
 10
207.22
 20
40.5613
 30
0.0
 11
221.221
 21
40.5613
 31
0.0
  0
LINE
  8
0
 62
     0
 10
221.221
 20
40.5613
 30
0.0
 11
221.221
 21
41.5618
 31
0.0
  0
LINE
  8
0
 62
     0
 10
221.221
 20
41.5618
 30
0.0
 11
222.02
 21
41.5618
 31
0.0
  0
LINE
  8
0
 62
     0
 10
222.02
 20
41.5618
 30
0.0
 11
222.02
 21
44.661
 31
0.0
  0
LINE
  8
0
 62
     0
 10
222.02
 20
44.661
 30
0.0
 11
221.221
 21
44.661
 31
0.0
  0
LINE
  8
0
 62
     0
 10
221.221
 20
44.661
 30
0.0
 11
221.221
 21
50.4624
 31
0.0
  0
LINE
  8
0
 62
     0
 10
221.221
 20
50.4624
 30
0.0
 11
222.02
 21
50.4624
 31
0.0
  0
LINE
  8
0
 62
     0
 10
222.02
 20
50.4624
 30
0.0
 11
222.02
 21
53.5615
 31
0.0
  0
LINE
  8
0
 62
     0
 10
222.02
 20
53.5615
 30
0.0
 11
221.221
 21
53.5615
 31
0.0
  0
LINE
  8
0
 62
     0
 10
221.221
 20
53.5615
 30
0.0
 11
221.221
 21
54.5606
 31
0.0
  0
LINE
  8
0
 62
     0
 10
221.221
 20
54.5606
 30
0.0
 11
207.22
 21
54.5606
 31
0.0
  0
LINE
  8
0
 62
     0
 10
226.27
 20
54.5606
 30
0.0
 11
226.27
 21
53.5615
 31
0.0
  0
LINE
  8
0
 62
     0
 10
226.27
 20
53.5615
 30
0.0
 11
225.471
 21
53.5615
 31
0.0
  0
LINE
  8
0
 62
     0
 10
225.471
 20
53.5615
 30
0.0
 11
225.471
 21
50.4624
 31
0.0
  0
LINE
  8
0
 62
     0
 10
225.471
 20
50.4624
 30
0.0
 11
226.27
 21
50.4624
 31
0.0
  0
LINE
  8
0
 62
     0
 10
226.27
 20
50.4624
 30
0.0
 11
226.27
 21
44.661
 31
0.0
  0
LINE
  8
0
 62
     0
 10
226.27
 20
44.661
 30
0.0
 11
225.471
 21
44.661
 31
0.0
  0
LINE
  8
0
 62
     0
 10
225.471
 20
44.661
 30
0.0
 11
225.471
 21
41.5618
 31
0.0
  0
LINE
  8
0
 62
     0
 10
225.471
 20
41.5618
 30
0.0
 11
226.27
 21
41.5618
 31
0.0
  0
LINE
  8
0
 62
     0
 10
226.27
 20
41.5618
 30
0.0
 11
226.27
 21
40.5613
 31
0.0
  0
LINE
  8
0
 62
     0
 10
226.27
 20
40.5613
 30
0.0
 11
240.271
 21
40.5613
 31
0.0
  0
LINE
  8
0
 62
     0
 10
240.271
 20
40.5613
 30
0.0
 11
240.271
 21
41.5618
 31
0.0
  0
LINE
  8
0
 62
     0
 10
240.271
 20
41.5618
 30
0.0
 11
241.07
 21
41.5618
 31
0.0
  0
LINE
  8
0
 62
     0
 10
241.07
 20
41.5618
 30
0.0
 11
241.07
 21
44.661
 31
0.0
  0
LINE
  8
0
 62
     0
 10
241.07
 20
44.661
 30
0.0
 11
240.271
 21
44.661
 31
0.0
  0
LINE
  8
0
 62
     0
 10
240.271
 20
44.661
 30
0.0
 11
240.271
 21
50.4624
 31
0.0
  0
LINE
  8
0
 62
     0
 10
240.271
 20
50.4624
 30
0.0
 11
241.07
 21
50.4624
 31
0.0
  0
LINE
  8
0
 62
     0
 10
241.07
 20
50.4624
 30
0.0
 11
241.07
 21
53.5615
 31
0.0
  0
LINE
  8
0
 62
     0
 10
241.07
 20
53.5615
 30
0.0
 11
240.271
 21
53.5615
 31
0.0
  0
LINE
  8
0
 62
     0
 10
240.271
 20
53.5615
 30
0.0
 11
240.271
 21
54.5606
 31
0.0
  0
LINE
  8
0
 62
     0
 10
240.271
 20
54.5606
 30
0.0
 11
226.27
 21
54.5606
 31
0.0
  0
LINE
  8
0
 62
     0
 10
128.02
 20
48.9864
 30
0.0
 11
127.601
 21
48.7743
 31
0.0
  0
LINE
  8
0
 62
     0
 10
127.601
 20
48.7743
 30
0.0
 11
127.269
 21
48.442
 31
0.0
  0
LINE
  8
0
 62
     0
 10
127.269
 20
48.442
 30
0.0
 11
127.056
 21
48.0247
 31
0.0
  0
LINE
  8
0
 62
     0
 10
127.056
 20
48.0247
 30
0.0
 11
126.983
 21
47.5601
 31
0.0
  0
LINE
  8
0
 62
     0
 10
126.983
 20
47.5601
 30
0.0
 11
127.056
 21
47.0972
 31
0.0
  0
LINE
  8
0
 62
     0
 10
127.056
 20
47.0972
 30
0.0
 11
127.269
 21
46.6796
 31
0.0
  0
LINE
  8
0
 62
     0
 10
127.269
 20
46.6796
 30
0.0
 11
127.601
 21
46.3476
 31
0.0
  0
LINE
  8
0
 62
     0
 10
127.601
 20
46.3476
 30
0.0
 11
128.02
 21
46.1338
 31
0.0
  0
LINE
  8
0
 62
     0
 10
128.02
 20
46.1338
 30
0.0
 11
128.483
 21
46.0597
 31
0.0
  0
LINE
  8
0
 62
     0
 10
128.483
 20
46.0597
 30
0.0
 11
128.946
 21
46.1338
 31
0.0
  0
LINE
  8
0
 62
     0
 10
128.946
 20
46.1338
 30
0.0
 11
129.365
 21
46.3476
 31
0.0
  0
LINE
  8
0
 62
     0
 10
129.365
 20
46.3476
 30
0.0
 11
129.697
 21
46.6796
 31
0.0
  0
LINE
  8
0
 62
     0
 10
129.697
 20
46.6796
 30
0.0
 11
129.908
 21
47.0972
 31
0.0
  0
LINE
  8
0
 62
     0
 10
129.908
 20
47.0972
 30
0.0
 11
129.983
 21
47.5601
 31
0.0
  0
LINE
  8
0
 62
     0
 10
129.983
 20
47.5601
 30
0.0
 11
129.908
 21
48.0247
 31
0.0
  0
LINE
  8
0
 62
     0
 10
129.908
 20
48.0247
 30
0.0
 11
129.697
 21
48.442
 31
0.0
  0
LINE
  8
0
 62
     0
 10
129.697
 20
48.442
 30
0.0
 11
129.365
 21
48.7743
 31
0.0
  0
LINE
  8
0
 62
     0
 10
129.365
 20
48.7743
 30
0.0
 11
128.946
 21
48.9864
 31
0.0
  0
LINE
  8
0
 62
     0
 10
128.946
 20
48.9864
 30
0.0
 11
128.483
 21
49.0594
 31
0.0
  0
LINE
  8
0
 62
     0
 10
128.483
 20
49.0594
 30
0.0
 11
128.02
 21
48.9864
 31
0.0
  0
LINE
  8
0
 62
     0
 10
7.19473
 20
73.612
 30
0.0
 11
7.19473
 21
72.6115
 31
0.0
  0
LINE
  8
0
 62
     0
 10
7.19473
 20
72.6115
 30
0.0
 11
6.39547
 21
72.6115
 31
0.0
  0
LINE
  8
0
 62
     0
 10
6.39547
 20
72.6115
 30
0.0
 11
6.39547
 21
69.5124
 31
0.0
  0
LINE
  8
0
 62
     0
 10
6.39547
 20
69.5124
 30
0.0
 11
7.19473
 21
69.5124
 31
0.0
  0
LINE
  8
0
 62
     0
 10
7.19473
 20
69.5124
 30
0.0
 11
7.19473
 21
63.7124
 31
0.0
  0
LINE
  8
0
 62
     0
 10
7.19473
 20
63.7124
 30
0.0
 11
6.39547
 21
63.7124
 31
0.0
  0
LINE
  8
0
 62
     0
 10
6.39547
 20
63.7124
 30
0.0
 11
6.39547
 21
60.6118
 31
0.0
  0
LINE
  8
0
 62
     0
 10
6.39547
 20
60.6118
 30
0.0
 11
7.19473
 21
60.6118
 31
0.0
  0
LINE
  8
0
 62
     0
 10
7.19473
 20
60.6118
 30
0.0
 11
7.19473
 21
59.6124
 31
0.0
  0
LINE
  8
0
 62
     0
 10
7.19473
 20
59.6124
 30
0.0
 11
21.1956
 21
59.6124
 31
0.0
  0
LINE
  8
0
 62
     0
 10
21.1956
 20
59.6124
 30
0.0
 11
21.1956
 21
60.6118
 31
0.0
  0
LINE
  8
0
 62
     0
 10
21.1956
 20
60.6118
 30
0.0
 11
21.9949
 21
60.6118
 31
0.0
  0
LINE
  8
0
 62
     0
 10
21.9949
 20
60.6118
 30
0.0
 11
21.9949
 21
63.7124
 31
0.0
  0
LINE
  8
0
 62
     0
 10
21.9949
 20
63.7124
 30
0.0
 11
21.1956
 21
63.7124
 31
0.0
  0
LINE
  8
0
 62
     0
 10
21.1956
 20
63.7124
 30
0.0
 11
21.1956
 21
69.5124
 31
0.0
  0
LINE
  8
0
 62
     0
 10
21.1956
 20
69.5124
 30
0.0
 11
21.9949
 21
69.5124
 31
0.0
  0
LINE
  8
0
 62
     0
 10
21.9949
 20
69.5124
 30
0.0
 11
21.9949
 21
72.6115
 31
0.0
  0
LINE
  8
0
 62
     0
 10
21.9949
 20
72.6115
 30
0.0
 11
21.1956
 21
72.6115
 31
0.0
  0
LINE
  8
0
 62
     0
 10
21.1956
 20
72.6115
 30
0.0
 11
21.1956
 21
73.612
 31
0.0
  0
LINE
  8
0
 62
     0
 10
21.1956
 20
73.612
 30
0.0
 11
7.19473
 21
73.612
 31
0.0
  0
LINE
  8
0
 62
     0
 10
31.0059
 20
73.612
 30
0.0
 11
31.0059
 21
72.6115
 31
0.0
  0
LINE
  8
0
 62
     0
 10
31.0059
 20
72.6115
 30
0.0
 11
30.2066
 21
72.6115
 31
0.0
  0
LINE
  8
0
 62
     0
 10
30.2066
 20
72.6115
 30
0.0
 11
30.2066
 21
69.5124
 31
0.0
  0
LINE
  8
0
 62
     0
 10
30.2066
 20
69.5124
 30
0.0
 11
31.0059
 21
69.5124
 31
0.0
  0
LINE
  8
0
 62
     0
 10
31.0059
 20
69.5124
 30
0.0
 11
31.0059
 21
63.7124
 31
0.0
  0
LINE
  8
0
 62
     0
 10
31.0059
 20
63.7124
 30
0.0
 11
30.2066
 21
63.7124
 31
0.0
  0
LINE
  8
0
 62
     0
 10
30.2066
 20
63.7124
 30
0.0
 11
30.2066
 21
60.6118
 31
0.0
  0
LINE
  8
0
 62
     0
 10
30.2066
 20
60.6118
 30
0.0
 11
31.0059
 21
60.6118
 31
0.0
  0
LINE
  8
0
 62
     0
 10
31.0059
 20
60.6118
 30
0.0
 11
31.0059
 21
59.6124
 31
0.0
  0
LINE
  8
0
 62
     0
 10
31.0059
 20
59.6124
 30
0.0
 11
45.0067
 21
59.6124
 31
0.0
  0
LINE
  8
0
 62
     0
 10
45.0067
 20
59.6124
 30
0.0
 11
45.0067
 21
60.6118
 31
0.0
  0
LINE
  8
0
 62
     0
 10
45.0067
 20
60.6118
 30
0.0
 11
45.8075
 21
60.6118
 31
0.0
  0
LINE
  8
0
 62
     0
 10
45.8075
 20
60.6118
 30
0.0
 11
45.8075
 21
63.7124
 31
0.0
  0
LINE
  8
0
 62
     0
 10
45.8075
 20
63.7124
 30
0.0
 11
45.0067
 21
63.7124
 31
0.0
  0
LINE
  8
0
 62
     0
 10
45.0067
 20
63.7124
 30
0.0
 11
45.0067
 21
69.5124
 31
0.0
  0
LINE
  8
0
 62
     0
 10
45.0067
 20
69.5124
 30
0.0
 11
45.8075
 21
69.5124
 31
0.0
  0
LINE
  8
0
 62
     0
 10
45.8075
 20
69.5124
 30
0.0
 11
45.8075
 21
72.6115
 31
0.0
  0
LINE
  8
0
 62
     0
 10
45.8075
 20
72.6115
 30
0.0
 11
45.0067
 21
72.6115
 31
0.0
  0
LINE
  8
0
 62
     0
 10
45.0067
 20
72.6115
 30
0.0
 11
45.0067
 21
73.612
 31
0.0
  0
LINE
  8
0
 62
     0
 10
45.0067
 20
73.612
 30
0.0
 11
31.0059
 21
73.612
 31
0.0
  0
LINE
  8
0
 62
     0
 10
50.0574
 20
73.612
 30
0.0
 11
50.0574
 21
72.6115
 31
0.0
  0
LINE
  8
0
 62
     0
 10
50.0574
 20
72.6115
 30
0.0
 11
49.2566
 21
72.6115
 31
0.0
  0
LINE
  8
0
 62
     0
 10
49.2566
 20
72.6115
 30
0.0
 11
49.2566
 21
69.5124
 31
0.0
  0
LINE
  8
0
 62
     0
 10
49.2566
 20
69.5124
 30
0.0
 11
50.0574
 21
69.5124
 31
0.0
  0
LINE
  8
0
 62
     0
 10
50.0574
 20
69.5124
 30
0.0
 11
50.0574
 21
63.7124
 31
0.0
  0
LINE
  8
0
 62
     0
 10
50.0574
 20
63.7124
 30
0.0
 11
49.2566
 21
63.7124
 31
0.0
  0
LINE
  8
0
 62
     0
 10
49.2566
 20
63.7124
 30
0.0
 11
49.2566
 21
60.6118
 31
0.0
  0
LINE
  8
0
 62
     0
 10
49.2566
 20
60.6118
 30
0.0
 11
50.0574
 21
60.6118
 31
0.0
  0
LINE
  8
0
 62
     0
 10
50.0574
 20
60.6118
 30
0.0
 11
50.0574
 21
59.6124
 31
0.0
  0
LINE
  8
0
 62
     0
 10
50.0574
 20
59.6124
 30
0.0
 11
64.0567
 21
59.6124
 31
0.0
  0
LINE
  8
0
 62
     0
 10
64.0567
 20
59.6124
 30
0.0
 11
64.0567
 21
60.6118
 31
0.0
  0
LINE
  8
0
 62
     0
 10
64.0567
 20
60.6118
 30
0.0
 11
64.8575
 21
60.6118
 31
0.0
  0
LINE
  8
0
 62
     0
 10
64.8575
 20
60.6118
 30
0.0
 11
64.8575
 21
63.7124
 31
0.0
  0
LINE
  8
0
 62
     0
 10
64.8575
 20
63.7124
 30
0.0
 11
64.0567
 21
63.7124
 31
0.0
  0
LINE
  8
0
 62
     0
 10
64.0567
 20
63.7124
 30
0.0
 11
64.0567
 21
69.5124
 31
0.0
  0
LINE
  8
0
 62
     0
 10
64.0567
 20
69.5124
 30
0.0
 11
64.8575
 21
69.5124
 31
0.0
  0
LINE
  8
0
 62
     0
 10
64.8575
 20
69.5124
 30
0.0
 11
64.8575
 21
72.6115
 31
0.0
  0
LINE
  8
0
 62
     0
 10
64.8575
 20
72.6115
 30
0.0
 11
64.0567
 21
72.6115
 31
0.0
  0
LINE
  8
0
 62
     0
 10
64.0567
 20
72.6115
 30
0.0
 11
64.0567
 21
73.612
 31
0.0
  0
LINE
  8
0
 62
     0
 10
64.0567
 20
73.612
 30
0.0
 11
50.0574
 21
73.612
 31
0.0
  0
LINE
  8
0
 62
     0
 10
69.1074
 20
73.612
 30
0.0
 11
69.1074
 21
72.6115
 31
0.0
  0
LINE
  8
0
 62
     0
 10
69.1074
 20
72.6115
 30
0.0
 11
68.3066
 21
72.6115
 31
0.0
  0
LINE
  8
0
 62
     0
 10
68.3066
 20
72.6115
 30
0.0
 11
68.3066
 21
69.5124
 31
0.0
  0
LINE
  8
0
 62
     0
 10
68.3066
 20
69.5124
 30
0.0
 11
69.1074
 21
69.5124
 31
0.0
  0
LINE
  8
0
 62
     0
 10
69.1074
 20
69.5124
 30
0.0
 11
69.1074
 21
63.7124
 31
0.0
  0
LINE
  8
0
 62
     0
 10
69.1074
 20
63.7124
 30
0.0
 11
68.3066
 21
63.7124
 31
0.0
  0
LINE
  8
0
 62
     0
 10
68.3066
 20
63.7124
 30
0.0
 11
68.3066
 21
60.6118
 31
0.0
  0
LINE
  8
0
 62
     0
 10
68.3066
 20
60.6118
 30
0.0
 11
69.1074
 21
60.6118
 31
0.0
  0
LINE
  8
0
 62
     0
 10
69.1074
 20
60.6118
 30
0.0
 11
69.1074
 21
59.6124
 31
0.0
  0
LINE
  8
0
 62
     0
 10
69.1074
 20
59.6124
 30
0.0
 11
83.1067
 21
59.6124
 31
0.0
  0
LINE
  8
0
 62
     0
 10
83.1067
 20
59.6124
 30
0.0
 11
83.1067
 21
60.6118
 31
0.0
  0
LINE
  8
0
 62
     0
 10
83.1067
 20
60.6118
 30
0.0
 11
83.9075
 21
60.6118
 31
0.0
  0
LINE
  8
0
 62
     0
 10
83.9075
 20
60.6118
 30
0.0
 11
83.9075
 21
63.7124
 31
0.0
  0
LINE
  8
0
 62
     0
 10
83.9075
 20
63.7124
 30
0.0
 11
83.1067
 21
63.7124
 31
0.0
  0
LINE
  8
0
 62
     0
 10
83.1067
 20
63.7124
 30
0.0
 11
83.1067
 21
69.5124
 31
0.0
  0
LINE
  8
0
 62
     0
 10
83.1067
 20
69.5124
 30
0.0
 11
83.9075
 21
69.5124
 31
0.0
  0
LINE
  8
0
 62
     0
 10
83.9075
 20
69.5124
 30
0.0
 11
83.9075
 21
72.6115
 31
0.0
  0
LINE
  8
0
 62
     0
 10
83.9075
 20
72.6115
 30
0.0
 11
83.1067
 21
72.6115
 31
0.0
  0
LINE
  8
0
 62
     0
 10
83.1067
 20
72.6115
 30
0.0
 11
83.1067
 21
73.612
 31
0.0
  0
LINE
  8
0
 62
     0
 10
83.1067
 20
73.612
 30
0.0
 11
69.1074
 21
73.612
 31
0.0
  0
LINE
  8
0
 62
     0
 10
88.1574
 20
73.612
 30
0.0
 11
88.1574
 21
72.6115
 31
0.0
  0
LINE
  8
0
 62
     0
 10
88.1574
 20
72.6115
 30
0.0
 11
87.3566
 21
72.6115
 31
0.0
  0
LINE
  8
0
 62
     0
 10
87.3566
 20
72.6115
 30
0.0
 11
87.3566
 21
69.5124
 31
0.0
  0
LINE
  8
0
 62
     0
 10
87.3566
 20
69.5124
 30
0.0
 11
88.1574
 21
69.5124
 31
0.0
  0
LINE
  8
0
 62
     0
 10
88.1574
 20
69.5124
 30
0.0
 11
88.1574
 21
63.7124
 31
0.0
  0
LINE
  8
0
 62
     0
 10
88.1574
 20
63.7124
 30
0.0
 11
87.3566
 21
63.7124
 31
0.0
  0
LINE
  8
0
 62
     0
 10
87.3566
 20
63.7124
 30
0.0
 11
87.3566
 21
60.6118
 31
0.0
  0
LINE
  8
0
 62
     0
 10
87.3566
 20
60.6118
 30
0.0
 11
88.1574
 21
60.6118
 31
0.0
  0
LINE
  8
0
 62
     0
 10
88.1574
 20
60.6118
 30
0.0
 11
88.1574
 21
59.6124
 31
0.0
  0
LINE
  8
0
 62
     0
 10
88.1574
 20
59.6124
 30
0.0
 11
102.157
 21
59.6124
 31
0.0
  0
LINE
  8
0
 62
     0
 10
102.157
 20
59.6124
 30
0.0
 11
102.157
 21
60.6118
 31
0.0
  0
LINE
  8
0
 62
     0
 10
102.157
 20
60.6118
 30
0.0
 11
102.956
 21
60.6118
 31
0.0
  0
LINE
  8
0
 62
     0
 10
102.956
 20
60.6118
 30
0.0
 11
102.956
 21
63.7124
 31
0.0
  0
LINE
  8
0
 62
     0
 10
102.956
 20
63.7124
 30
0.0
 11
102.157
 21
63.7124
 31
0.0
  0
LINE
  8
0
 62
     0
 10
102.157
 20
63.7124
 30
0.0
 11
102.157
 21
69.5124
 31
0.0
  0
LINE
  8
0
 62
     0
 10
102.157
 20
69.5124
 30
0.0
 11
102.956
 21
69.5124
 31
0.0
  0
LINE
  8
0
 62
     0
 10
102.956
 20
69.5124
 30
0.0
 11
102.956
 21
72.6115
 31
0.0
  0
LINE
  8
0
 62
     0
 10
102.956
 20
72.6115
 30
0.0
 11
102.157
 21
72.6115
 31
0.0
  0
LINE
  8
0
 62
     0
 10
102.157
 20
72.6115
 30
0.0
 11
102.157
 21
73.612
 31
0.0
  0
LINE
  8
0
 62
     0
 10
102.157
 20
73.612
 30
0.0
 11
88.1574
 21
73.612
 31
0.0
  0
LINE
  8
0
 62
     0
 10
107.206
 20
73.612
 30
0.0
 11
107.206
 21
72.6115
 31
0.0
  0
LINE
  8
0
 62
     0
 10
107.206
 20
72.6115
 30
0.0
 11
106.407
 21
72.6115
 31
0.0
  0
LINE
  8
0
 62
     0
 10
106.407
 20
72.6115
 30
0.0
 11
106.407
 21
69.5124
 31
0.0
  0
LINE
  8
0
 62
     0
 10
106.407
 20
69.5124
 30
0.0
 11
107.206
 21
69.5124
 31
0.0
  0
LINE
  8
0
 62
     0
 10
107.206
 20
69.5124
 30
0.0
 11
107.206
 21
63.7124
 31
0.0
  0
LINE
  8
0
 62
     0
 10
107.206
 20
63.7124
 30
0.0
 11
106.407
 21
63.7124
 31
0.0
  0
LINE
  8
0
 62
     0
 10
106.407
 20
63.7124
 30
0.0
 11
106.407
 21
60.6118
 31
0.0
  0
LINE
  8
0
 62
     0
 10
106.407
 20
60.6118
 30
0.0
 11
107.206
 21
60.6118
 31
0.0
  0
LINE
  8
0
 62
     0
 10
107.206
 20
60.6118
 30
0.0
 11
107.206
 21
59.6124
 31
0.0
  0
LINE
  8
0
 62
     0
 10
107.206
 20
59.6124
 30
0.0
 11
121.207
 21
59.6124
 31
0.0
  0
LINE
  8
0
 62
     0
 10
121.207
 20
59.6124
 30
0.0
 11
121.207
 21
60.6118
 31
0.0
  0
LINE
  8
0
 62
     0
 10
121.207
 20
60.6118
 30
0.0
 11
122.007
 21
60.6118
 31
0.0
  0
LINE
  8
0
 62
     0
 10
122.007
 20
60.6118
 30
0.0
 11
122.007
 21
63.7124
 31
0.0
  0
LINE
  8
0
 62
     0
 10
122.007
 20
63.7124
 30
0.0
 11
121.207
 21
63.7124
 31
0.0
  0
LINE
  8
0
 62
     0
 10
121.207
 20
63.7124
 30
0.0
 11
121.207
 21
69.5124
 31
0.0
  0
LINE
  8
0
 62
     0
 10
121.207
 20
69.5124
 30
0.0
 11
122.007
 21
69.5124
 31
0.0
  0
LINE
  8
0
 62
     0
 10
122.007
 20
69.5124
 30
0.0
 11
122.007
 21
72.6115
 31
0.0
  0
LINE
  8
0
 62
     0
 10
122.007
 20
72.6115
 30
0.0
 11
121.207
 21
72.6115
 31
0.0
  0
LINE
  8
0
 62
     0
 10
121.207
 20
72.6115
 30
0.0
 11
121.207
 21
73.612
 31
0.0
  0
LINE
  8
0
 62
     0
 10
121.207
 20
73.612
 30
0.0
 11
107.206
 21
73.612
 31
0.0
  0
LINE
  8
0
 62
     0
 10
126.257
 20
73.612
 30
0.0
 11
126.257
 21
72.6115
 31
0.0
  0
LINE
  8
0
 62
     0
 10
126.257
 20
72.6115
 30
0.0
 11
125.457
 21
72.6115
 31
0.0
  0
LINE
  8
0
 62
     0
 10
125.457
 20
72.6115
 30
0.0
 11
125.457
 21
69.5124
 31
0.0
  0
LINE
  8
0
 62
     0
 10
125.457
 20
69.5124
 30
0.0
 11
126.257
 21
69.5124
 31
0.0
  0
LINE
  8
0
 62
     0
 10
126.257
 20
69.5124
 30
0.0
 11
126.257
 21
63.7124
 31
0.0
  0
LINE
  8
0
 62
     0
 10
126.257
 20
63.7124
 30
0.0
 11
125.457
 21
63.7124
 31
0.0
  0
LINE
  8
0
 62
     0
 10
125.457
 20
63.7124
 30
0.0
 11
125.457
 21
60.6118
 31
0.0
  0
LINE
  8
0
 62
     0
 10
125.457
 20
60.6118
 30
0.0
 11
126.257
 21
60.6118
 31
0.0
  0
LINE
  8
0
 62
     0
 10
126.257
 20
60.6118
 30
0.0
 11
126.257
 21
59.6124
 31
0.0
  0
LINE
  8
0
 62
     0
 10
126.257
 20
59.6124
 30
0.0
 11
140.257
 21
59.6124
 31
0.0
  0
LINE
  8
0
 62
     0
 10
140.257
 20
59.6124
 30
0.0
 11
140.257
 21
60.6118
 31
0.0
  0
LINE
  8
0
 62
     0
 10
140.257
 20
60.6118
 30
0.0
 11
141.056
 21
60.6118
 31
0.0
  0
LINE
  8
0
 62
     0
 10
141.056
 20
60.6118
 30
0.0
 11
141.056
 21
63.7124
 31
0.0
  0
LINE
  8
0
 62
     0
 10
141.056
 20
63.7124
 30
0.0
 11
140.257
 21
63.7124
 31
0.0
  0
LINE
  8
0
 62
     0
 10
140.257
 20
63.7124
 30
0.0
 11
140.257
 21
69.5124
 31
0.0
  0
LINE
  8
0
 62
     0
 10
140.257
 20
69.5124
 30
0.0
 11
141.056
 21
69.5124
 31
0.0
  0
LINE
  8
0
 62
     0
 10
141.056
 20
69.5124
 30
0.0
 11
141.056
 21
72.6115
 31
0.0
  0
LINE
  8
0
 62
     0
 10
141.056
 20
72.6115
 30
0.0
 11
140.257
 21
72.6115
 31
0.0
  0
LINE
  8
0
 62
     0
 10
140.257
 20
72.6115
 30
0.0
 11
140.257
 21
73.612
 31
0.0
  0
LINE
  8
0
 62
     0
 10
140.257
 20
73.612
 30
0.0
 11
126.257
 21
73.612
 31
0.0
  0
LINE
  8
0
 62
     0
 10
145.306
 20
73.612
 30
0.0
 11
145.306
 21
72.6115
 31
0.0
  0
LINE
  8
0
 62
     0
 10
145.306
 20
72.6115
 30
0.0
 11
144.507
 21
72.6115
 31
0.0
  0
LINE
  8
0
 62
     0
 10
144.507
 20
72.6115
 30
0.0
 11
144.507
 21
69.5124
 31
0.0
  0
LINE
  8
0
 62
     0
 10
144.507
 20
69.5124
 30
0.0
 11
145.306
 21
69.5124
 31
0.0
  0
LINE
  8
0
 62
     0
 10
145.306
 20
69.5124
 30
0.0
 11
145.306
 21
63.7124
 31
0.0
  0
LINE
  8
0
 62
     0
 10
145.306
 20
63.7124
 30
0.0
 11
144.507
 21
63.7124
 31
0.0
  0
LINE
  8
0
 62
     0
 10
144.507
 20
63.7124
 30
0.0
 11
144.507
 21
60.6118
 31
0.0
  0
LINE
  8
0
 62
     0
 10
144.507
 20
60.6118
 30
0.0
 11
145.306
 21
60.6118
 31
0.0
  0
LINE
  8
0
 62
     0
 10
145.306
 20
60.6118
 30
0.0
 11
145.306
 21
59.6124
 31
0.0
  0
LINE
  8
0
 62
     0
 10
145.306
 20
59.6124
 30
0.0
 11
159.307
 21
59.6124
 31
0.0
  0
LINE
  8
0
 62
     0
 10
159.307
 20
59.6124
 30
0.0
 11
159.307
 21
60.6118
 31
0.0
  0
LINE
  8
0
 62
     0
 10
159.307
 20
60.6118
 30
0.0
 11
160.107
 21
60.6118
 31
0.0
  0
LINE
  8
0
 62
     0
 10
160.107
 20
60.6118
 30
0.0
 11
160.107
 21
63.7124
 31
0.0
  0
LINE
  8
0
 62
     0
 10
160.107
 20
63.7124
 30
0.0
 11
159.307
 21
63.7124
 31
0.0
  0
LINE
  8
0
 62
     0
 10
159.307
 20
63.7124
 30
0.0
 11
159.307
 21
69.5124
 31
0.0
  0
LINE
  8
0
 62
     0
 10
159.307
 20
69.5124
 30
0.0
 11
160.107
 21
69.5124
 31
0.0
  0
LINE
  8
0
 62
     0
 10
160.107
 20
69.5124
 30
0.0
 11
160.107
 21
72.6115
 31
0.0
  0
LINE
  8
0
 62
     0
 10
160.107
 20
72.6115
 30
0.0
 11
159.307
 21
72.6115
 31
0.0
  0
LINE
  8
0
 62
     0
 10
159.307
 20
72.6115
 30
0.0
 11
159.307
 21
73.612
 31
0.0
  0
LINE
  8
0
 62
     0
 10
159.307
 20
73.612
 30
0.0
 11
145.306
 21
73.612
 31
0.0
  0
LINE
  8
0
 62
     0
 10
164.357
 20
73.612
 30
0.0
 11
164.357
 21
72.6115
 31
0.0
  0
LINE
  8
0
 62
     0
 10
164.357
 20
72.6115
 30
0.0
 11
163.557
 21
72.6115
 31
0.0
  0
LINE
  8
0
 62
     0
 10
163.557
 20
72.6115
 30
0.0
 11
163.557
 21
69.5124
 31
0.0
  0
LINE
  8
0
 62
     0
 10
163.557
 20
69.5124
 30
0.0
 11
164.357
 21
69.5124
 31
0.0
  0
LINE
  8
0
 62
     0
 10
164.357
 20
69.5124
 30
0.0
 11
164.357
 21
63.7124
 31
0.0
  0
LINE
  8
0
 62
     0
 10
164.357
 20
63.7124
 30
0.0
 11
163.557
 21
63.7124
 31
0.0
  0
LINE
  8
0
 62
     0
 10
163.557
 20
63.7124
 30
0.0
 11
163.557
 21
60.6118
 31
0.0
  0
LINE
  8
0
 62
     0
 10
163.557
 20
60.6118
 30
0.0
 11
164.357
 21
60.6118
 31
0.0
  0
LINE
  8
0
 62
     0
 10
164.357
 20
60.6118
 30
0.0
 11
164.357
 21
59.6124
 31
0.0
  0
LINE
  8
0
 62
     0
 10
164.357
 20
59.6124
 30
0.0
 11
178.357
 21
59.6124
 31
0.0
  0
LINE
  8
0
 62
     0
 10
178.357
 20
59.6124
 30
0.0
 11
178.357
 21
60.6118
 31
0.0
  0
LINE
  8
0
 62
     0
 10
178.357
 20
60.6118
 30
0.0
 11
179.157
 21
60.6118
 31
0.0
  0
LINE
  8
0
 62
     0
 10
179.157
 20
60.6118
 30
0.0
 11
179.157
 21
63.7124
 31
0.0
  0
LINE
  8
0
 62
     0
 10
179.157
 20
63.7124
 30
0.0
 11
178.357
 21
63.7124
 31
0.0
  0
LINE
  8
0
 62
     0
 10
178.357
 20
63.7124
 30
0.0
 11
178.357
 21
69.5124
 31
0.0
  0
LINE
  8
0
 62
     0
 10
178.357
 20
69.5124
 30
0.0
 11
179.157
 21
69.5124
 31
0.0
  0
LINE
  8
0
 62
     0
 10
179.157
 20
69.5124
 30
0.0
 11
179.157
 21
72.6115
 31
0.0
  0
LINE
  8
0
 62
     0
 10
179.157
 20
72.6115
 30
0.0
 11
178.357
 21
72.6115
 31
0.0
  0
LINE
  8
0
 62
     0
 10
178.357
 20
72.6115
 30
0.0
 11
178.357
 21
73.612
 31
0.0
  0
LINE
  8
0
 62
     0
 10
178.357
 20
73.612
 30
0.0
 11
164.357
 21
73.612
 31
0.0
  0
LINE
  8
0
 62
     0
 10
183.407
 20
73.612
 30
0.0
 11
183.407
 21
72.6115
 31
0.0
  0
LINE
  8
0
 62
     0
 10
183.407
 20
72.6115
 30
0.0
 11
182.607
 21
72.6115
 31
0.0
  0
LINE
  8
0
 62
     0
 10
182.607
 20
72.6115
 30
0.0
 11
182.607
 21
69.5124
 31
0.0
  0
LINE
  8
0
 62
     0
 10
182.607
 20
69.5124
 30
0.0
 11
183.407
 21
69.5124
 31
0.0
  0
LINE
  8
0
 62
     0
 10
183.407
 20
69.5124
 30
0.0
 11
183.407
 21
63.7124
 31
0.0
  0
LINE
  8
0
 62
     0
 10
183.407
 20
63.7124
 30
0.0
 11
182.607
 21
63.7124
 31
0.0
  0
LINE
  8
0
 62
     0
 10
182.607
 20
63.7124
 30
0.0
 11
182.607
 21
60.6118
 31
0.0
  0
LINE
  8
0
 62
     0
 10
182.607
 20
60.6118
 30
0.0
 11
183.407
 21
60.6118
 31
0.0
  0
LINE
  8
0
 62
     0
 10
183.407
 20
60.6118
 30
0.0
 11
183.407
 21
59.6124
 31
0.0
  0
LINE
  8
0
 62
     0
 10
183.407
 20
59.6124
 30
0.0
 11
197.407
 21
59.6124
 31
0.0
  0
LINE
  8
0
 62
     0
 10
197.407
 20
59.6124
 30
0.0
 11
197.407
 21
60.6118
 31
0.0
  0
LINE
  8
0
 62
     0
 10
197.407
 20
60.6118
 30
0.0
 11
198.206
 21
60.6118
 31
0.0
  0
LINE
  8
0
 62
     0
 10
198.206
 20
60.6118
 30
0.0
 11
198.206
 21
63.7124
 31
0.0
  0
LINE
  8
0
 62
     0
 10
198.206
 20
63.7124
 30
0.0
 11
197.407
 21
63.7124
 31
0.0
  0
LINE
  8
0
 62
     0
 10
197.407
 20
63.7124
 30
0.0
 11
197.407
 21
69.5124
 31
0.0
  0
LINE
  8
0
 62
     0
 10
197.407
 20
69.5124
 30
0.0
 11
198.206
 21
69.5124
 31
0.0
  0
LINE
  8
0
 62
     0
 10
198.206
 20
69.5124
 30
0.0
 11
198.206
 21
72.6115
 31
0.0
  0
LINE
  8
0
 62
     0
 10
198.206
 20
72.6115
 30
0.0
 11
197.407
 21
72.6115
 31
0.0
  0
LINE
  8
0
 62
     0
 10
197.407
 20
72.6115
 30
0.0
 11
197.407
 21
73.612
 31
0.0
  0
LINE
  8
0
 62
     0
 10
197.407
 20
73.612
 30
0.0
 11
183.407
 21
73.612
 31
0.0
  0
LINE
  8
0
 62
     0
 10
202.456
 20
73.612
 30
0.0
 11
202.456
 21
72.6115
 31
0.0
  0
LINE
  8
0
 62
     0
 10
202.456
 20
72.6115
 30
0.0
 11
201.657
 21
72.6115
 31
0.0
  0
LINE
  8
0
 62
     0
 10
201.657
 20
72.6115
 30
0.0
 11
201.657
 21
69.5124
 31
0.0
  0
LINE
  8
0
 62
     0
 10
201.657
 20
69.5124
 30
0.0
 11
202.456
 21
69.5124
 31
0.0
  0
LINE
  8
0
 62
     0
 10
202.456
 20
69.5124
 30
0.0
 11
202.456
 21
63.7124
 31
0.0
  0
LINE
  8
0
 62
     0
 10
202.456
 20
63.7124
 30
0.0
 11
201.657
 21
63.7124
 31
0.0
  0
LINE
  8
0
 62
     0
 10
201.657
 20
63.7124
 30
0.0
 11
201.657
 21
60.6118
 31
0.0
  0
LINE
  8
0
 62
     0
 10
201.657
 20
60.6118
 30
0.0
 11
202.456
 21
60.6118
 31
0.0
  0
LINE
  8
0
 62
     0
 10
202.456
 20
60.6118
 30
0.0
 11
202.456
 21
59.6124
 31
0.0
  0
LINE
  8
0
 62
     0
 10
202.456
 20
59.6124
 30
0.0
 11
216.457
 21
59.6124
 31
0.0
  0
LINE
  8
0
 62
     0
 10
216.457
 20
59.6124
 30
0.0
 11
216.457
 21
60.6118
 31
0.0
  0
LINE
  8
0
 62
     0
 10
216.457
 20
60.6118
 30
0.0
 11
217.257
 21
60.6118
 31
0.0
  0
LINE
  8
0
 62
     0
 10
217.257
 20
60.6118
 30
0.0
 11
217.257
 21
63.7124
 31
0.0
  0
LINE
  8
0
 62
     0
 10
217.257
 20
63.7124
 30
0.0
 11
216.457
 21
63.7124
 31
0.0
  0
LINE
  8
0
 62
     0
 10
216.457
 20
63.7124
 30
0.0
 11
216.457
 21
69.5124
 31
0.0
  0
LINE
  8
0
 62
     0
 10
216.457
 20
69.5124
 30
0.0
 11
217.257
 21
69.5124
 31
0.0
  0
LINE
  8
0
 62
     0
 10
217.257
 20
69.5124
 30
0.0
 11
217.257
 21
72.6115
 31
0.0
  0
LINE
  8
0
 62
     0
 10
217.257
 20
72.6115
 30
0.0
 11
216.457
 21
72.6115
 31
0.0
  0
LINE
  8
0
 62
     0
 10
216.457
 20
72.6115
 30
0.0
 11
216.457
 21
73.612
 31
0.0
  0
LINE
  8
0
 62
     0
 10
216.457
 20
73.612
 30
0.0
 11
202.456
 21
73.612
 31
0.0
  0
LINE
  8
0
 62
     0
 10
221.507
 20
73.612
 30
0.0
 11
221.507
 21
72.6115
 31
0.0
  0
LINE
  8
0
 62
     0
 10
221.507
 20
72.6115
 30
0.0
 11
220.707
 21
72.6115
 31
0.0
  0
LINE
  8
0
 62
     0
 10
220.707
 20
72.6115
 30
0.0
 11
220.707
 21
69.5124
 31
0.0
  0
LINE
  8
0
 62
     0
 10
220.707
 20
69.5124
 30
0.0
 11
221.507
 21
69.5124
 31
0.0
  0
LINE
  8
0
 62
     0
 10
221.507
 20
69.5124
 30
0.0
 11
221.507
 21
63.7124
 31
0.0
  0
LINE
  8
0
 62
     0
 10
221.507
 20
63.7124
 30
0.0
 11
220.707
 21
63.7124
 31
0.0
  0
LINE
  8
0
 62
     0
 10
220.707
 20
63.7124
 30
0.0
 11
220.707
 21
60.6118
 31
0.0
  0
LINE
  8
0
 62
     0
 10
220.707
 20
60.6118
 30
0.0
 11
221.507
 21
60.6118
 31
0.0
  0
LINE
  8
0
 62
     0
 10
221.507
 20
60.6118
 30
0.0
 11
221.507
 21
59.6124
 31
0.0
  0
LINE
  8
0
 62
     0
 10
221.507
 20
59.6124
 30
0.0
 11
235.507
 21
59.6124
 31
0.0
  0
LINE
  8
0
 62
     0
 10
235.507
 20
59.6124
 30
0.0
 11
235.507
 21
60.6118
 31
0.0
  0
LINE
  8
0
 62
     0
 10
235.507
 20
60.6118
 30
0.0
 11
236.306
 21
60.6118
 31
0.0
  0
LINE
  8
0
 62
     0
 10
236.306
 20
60.6118
 30
0.0
 11
236.306
 21
63.7124
 31
0.0
  0
LINE
  8
0
 62
     0
 10
236.306
 20
63.7124
 30
0.0
 11
235.507
 21
63.7124
 31
0.0
  0
LINE
  8
0
 62
     0
 10
235.507
 20
63.7124
 30
0.0
 11
235.507
 21
69.5124
 31
0.0
  0
LINE
  8
0
 62
     0
 10
235.507
 20
69.5124
 30
0.0
 11
236.306
 21
69.5124
 31
0.0
  0
LINE
  8
0
 62
     0
 10
236.306
 20
69.5124
 30
0.0
 11
236.306
 21
72.6115
 31
0.0
  0
LINE
  8
0
 62
     0
 10
236.306
 20
72.6115
 30
0.0
 11
235.507
 21
72.6115
 31
0.0
  0
LINE
  8
0
 62
     0
 10
235.507
 20
72.6115
 30
0.0
 11
235.507
 21
73.612
 31
0.0
  0
LINE
  8
0
 62
     0
 10
235.507
 20
73.612
 30
0.0
 11
221.507
 21
73.612
 31
0.0
  0
LINE
  8
0
 62
     0
 10
240.556
 20
73.612
 30
0.0
 11
240.556
 21
72.6115
 31
0.0
  0
LINE
  8
0
 62
     0
 10
240.556
 20
72.6115
 30
0.0
 11
239.757
 21
72.6115
 31
0.0
  0
LINE
  8
0
 62
     0
 10
239.757
 20
72.6115
 30
0.0
 11
239.757
 21
69.5124
 31
0.0
  0
LINE
  8
0
 62
     0
 10
239.757
 20
69.5124
 30
0.0
 11
240.556
 21
69.5124
 31
0.0
  0
LINE
  8
0
 62
     0
 10
240.556
 20
69.5124
 30
0.0
 11
240.556
 21
63.7124
 31
0.0
  0
LINE
  8
0
 62
     0
 10
240.556
 20
63.7124
 30
0.0
 11
239.757
 21
63.7124
 31
0.0
  0
LINE
  8
0
 62
     0
 10
239.757
 20
63.7124
 30
0.0
 11
239.757
 21
60.6118
 31
0.0
  0
LINE
  8
0
 62
     0
 10
239.757
 20
60.6118
 30
0.0
 11
240.556
 21
60.6118
 31
0.0
  0
LINE
  8
0
 62
     0
 10
240.556
 20
60.6118
 30
0.0
 11
240.556
 21
59.6124
 31
0.0
  0
LINE
  8
0
 62
     0
 10
240.556
 20
59.6124
 30
0.0
 11
254.557
 21
59.6124
 31
0.0
  0
LINE
  8
0
 62
     0
 10
254.557
 20
59.6124
 30
0.0
 11
254.557
 21
60.6118
 31
0.0
  0
LINE
  8
0
 62
     0
 10
254.557
 20
60.6118
 30
0.0
 11
255.356
 21
60.6118
 31
0.0
  0
LINE
  8
0
 62
     0
 10
255.356
 20
60.6118
 30
0.0
 11
255.356
 21
63.7124
 31
0.0
  0
LINE
  8
0
 62
     0
 10
255.356
 20
63.7124
 30
0.0
 11
254.557
 21
63.7124
 31
0.0
  0
LINE
  8
0
 62
     0
 10
254.557
 20
63.7124
 30
0.0
 11
254.557
 21
69.5124
 31
0.0
  0
LINE
  8
0
 62
     0
 10
254.557
 20
69.5124
 30
0.0
 11
255.356
 21
69.5124
 31
0.0
  0
LINE
  8
0
 62
     0
 10
255.356
 20
69.5124
 30
0.0
 11
255.356
 21
72.6115
 31
0.0
  0
LINE
  8
0
 62
     0
 10
255.356
 20
72.6115
 30
0.0
 11
254.557
 21
72.6115
 31
0.0
  0
LINE
  8
0
 62
     0
 10
254.557
 20
72.6115
 30
0.0
 11
254.557
 21
73.612
 31
0.0
  0
LINE
  8
0
 62
     0
 10
254.557
 20
73.612
 30
0.0
 11
240.556
 21
73.612
 31
0.0
  0
LINE
  8
0
 62
     0
 10
264.37
 20
73.612
 30
0.0
 11
264.37
 21
72.6115
 31
0.0
  0
LINE
  8
0
 62
     0
 10
264.37
 20
72.6115
 30
0.0
 11
263.569
 21
72.6115
 31
0.0
  0
LINE
  8
0
 62
     0
 10
263.569
 20
72.6115
 30
0.0
 11
263.569
 21
69.5124
 31
0.0
  0
LINE
  8
0
 62
     0
 10
263.569
 20
69.5124
 30
0.0
 11
264.37
 21
69.5124
 31
0.0
  0
LINE
  8
0
 62
     0
 10
264.37
 20
69.5124
 30
0.0
 11
264.37
 21
63.7124
 31
0.0
  0
LINE
  8
0
 62
     0
 10
264.37
 20
63.7124
 30
0.0
 11
263.569
 21
63.7124
 31
0.0
  0
LINE
  8
0
 62
     0
 10
263.569
 20
63.7124
 30
0.0
 11
263.569
 21
60.6118
 31
0.0
  0
LINE
  8
0
 62
     0
 10
263.569
 20
60.6118
 30
0.0
 11
264.37
 21
60.6118
 31
0.0
  0
LINE
  8
0
 62
     0
 10
264.37
 20
60.6118
 30
0.0
 11
264.37
 21
59.6124
 31
0.0
  0
LINE
  8
0
 62
     0
 10
264.37
 20
59.6124
 30
0.0
 11
278.369
 21
59.6124
 31
0.0
  0
LINE
  8
0
 62
     0
 10
278.369
 20
59.6124
 30
0.0
 11
278.369
 21
60.6118
 31
0.0
  0
LINE
  8
0
 62
     0
 10
278.369
 20
60.6118
 30
0.0
 11
279.17
 21
60.6118
 31
0.0
  0
LINE
  8
0
 62
     0
 10
279.17
 20
60.6118
 30
0.0
 11
279.17
 21
63.7124
 31
0.0
  0
LINE
  8
0
 62
     0
 10
279.17
 20
63.7124
 30
0.0
 11
278.369
 21
63.7124
 31
0.0
  0
LINE
  8
0
 62
     0
 10
278.369
 20
63.7124
 30
0.0
 11
278.369
 21
69.5124
 31
0.0
  0
LINE
  8
0
 62
     0
 10
278.369
 20
69.5124
 30
0.0
 11
279.17
 21
69.5124
 31
0.0
  0
LINE
  8
0
 62
     0
 10
279.17
 20
69.5124
 30
0.0
 11
279.17
 21
72.6115
 31
0.0
  0
LINE
  8
0
 62
     0
 10
279.17
 20
72.6115
 30
0.0
 11
278.369
 21
72.6115
 31
0.0
  0
LINE
  8
0
 62
     0
 10
278.369
 20
72.6115
 30
0.0
 11
278.369
 21
73.612
 31
0.0
  0
LINE
  8
0
 62
     0
 10
278.369
 20
73.612
 30
0.0
 11
264.37
 21
73.612
 31
0.0
  0
LINE
  8
0
 62
     0
 10
25.0197
 20
68.3877
 30
0.0
 11
24.6007
 21
68.1743
 31
0.0
  0
LINE
  8
0
 62
     0
 10
24.6007
 20
68.1743
 30
0.0
 11
24.2686
 21
67.8438
 31
0.0
  0
LINE
  8
0
 62
     0
 10
24.2686
 20
67.8438
 30
0.0
 11
24.055
 21
67.4261
 31
0.0
  0
LINE
  8
0
 62
     0
 10
24.055
 20
67.4261
 30
0.0
 11
23.9834
 21
66.9604
 31
0.0
  0
LINE
  8
0
 62
     0
 10
23.9834
 20
66.9604
 30
0.0
 11
24.055
 21
66.4972
 31
0.0
  0
LINE
  8
0
 62
     0
 10
24.055
 20
66.4972
 30
0.0
 11
24.2686
 21
66.0799
 31
0.0
  0
LINE
  8
0
 62
     0
 10
24.2686
 20
66.0799
 30
0.0
 11
24.6007
 21
65.7475
 31
0.0
  0
LINE
  8
0
 62
     0
 10
24.6007
 20
65.7475
 30
0.0
 11
25.0197
 21
65.5355
 31
0.0
  0
LINE
  8
0
 62
     0
 10
25.0197
 20
65.5355
 30
0.0
 11
25.4827
 21
65.4597
 31
0.0
  0
LINE
  8
0
 62
     0
 10
25.4827
 20
65.4597
 30
0.0
 11
25.9457
 21
65.5355
 31
0.0
  0
LINE
  8
0
 62
     0
 10
25.9457
 20
65.5355
 30
0.0
 11
26.3633
 21
65.7475
 31
0.0
  0
LINE
  8
0
 62
     0
 10
26.3633
 20
65.7475
 30
0.0
 11
26.6967
 21
66.0799
 31
0.0
  0
LINE
  8
0
 62
     0
 10
26.6967
 20
66.0799
 30
0.0
 11
26.9076
 21
66.4972
 31
0.0
  0
LINE
  8
0
 62
     0
 10
26.9076
 20
66.4972
 30
0.0
 11
26.9834
 21
66.9604
 31
0.0
  0
LINE
  8
0
 62
     0
 10
26.9834
 20
66.9604
 30
0.0
 11
26.9076
 21
67.4261
 31
0.0
  0
LINE
  8
0
 62
     0
 10
26.9076
 20
67.4261
 30
0.0
 11
26.6967
 21
67.8438
 31
0.0
  0
LINE
  8
0
 62
     0
 10
26.6967
 20
67.8438
 30
0.0
 11
26.3633
 21
68.1743
 31
0.0
  0
LINE
  8
0
 62
     0
 10
26.3633
 20
68.1743
 30
0.0
 11
25.9457
 21
68.3877
 31
0.0
  0
LINE
  8
0
 62
     0
 10
25.9457
 20
68.3877
 30
0.0
 11
25.4827
 21
68.4611
 31
0.0
  0
LINE
  8
0
 62
     0
 10
25.4827
 20
68.4611
 30
0.0
 11
25.0197
 21
68.3877
 31
0.0
  0
LINE
  8
0
 62
     0
 10
259.868
 20
68.3877
 30
0.0
 11
259.45
 21
68.1743
 31
0.0
  0
LINE
  8
0
 62
     0
 10
259.45
 20
68.1743
 30
0.0
 11
259.118
 21
67.8438
 31
0.0
  0
LINE
  8
0
 62
     0
 10
259.118
 20
67.8438
 30
0.0
 11
258.906
 21
67.4261
 31
0.0
  0
LINE
  8
0
 62
     0
 10
258.906
 20
67.4261
 30
0.0
 11
258.833
 21
66.9604
 31
0.0
  0
LINE
  8
0
 62
     0
 10
258.833
 20
66.9604
 30
0.0
 11
258.906
 21
66.4972
 31
0.0
  0
LINE
  8
0
 62
     0
 10
258.906
 20
66.4972
 30
0.0
 11
259.118
 21
66.0799
 31
0.0
  0
LINE
  8
0
 62
     0
 10
259.118
 20
66.0799
 30
0.0
 11
259.45
 21
65.7475
 31
0.0
  0
LINE
  8
0
 62
     0
 10
259.45
 20
65.7475
 30
0.0
 11
259.868
 21
65.5355
 31
0.0
  0
LINE
  8
0
 62
     0
 10
259.868
 20
65.5355
 30
0.0
 11
260.332
 21
65.4597
 31
0.0
  0
LINE
  8
0
 62
     0
 10
260.332
 20
65.4597
 30
0.0
 11
260.795
 21
65.5355
 31
0.0
  0
LINE
  8
0
 62
     0
 10
260.795
 20
65.5355
 30
0.0
 11
261.214
 21
65.7475
 31
0.0
  0
LINE
  8
0
 62
     0
 10
261.214
 20
65.7475
 30
0.0
 11
261.545
 21
66.0799
 31
0.0
  0
LINE
  8
0
 62
     0
 10
261.545
 20
66.0799
 30
0.0
 11
261.758
 21
66.4972
 31
0.0
  0
LINE
  8
0
 62
     0
 10
261.758
 20
66.4972
 30
0.0
 11
261.833
 21
66.9604
 31
0.0
  0
LINE
  8
0
 62
     0
 10
261.833
 20
66.9604
 30
0.0
 11
261.758
 21
67.4261
 31
0.0
  0
LINE
  8
0
 62
     0
 10
261.758
 20
67.4261
 30
0.0
 11
261.545
 21
67.8438
 31
0.0
  0
LINE
  8
0
 62
     0
 10
261.545
 20
67.8438
 30
0.0
 11
261.214
 21
68.1743
 31
0.0
  0
LINE
  8
0
 62
     0
 10
261.214
 20
68.1743
 30
0.0
 11
260.795
 21
68.3877
 31
0.0
  0
LINE
  8
0
 62
     0
 10
260.795
 20
68.3877
 30
0.0
 11
260.332
 21
68.4611
 31
0.0
  0
LINE
  8
0
 62
     0
 10
260.332
 20
68.4611
 30
0.0
 11
259.868
 21
68.3877
 31
0.0
  0
LINE
  8
0
 62
     0
 10
2.43224
 20
92.662
 30
0.0
 11
2.43224
 21
91.6615
 31
0.0
  0
LINE
  8
0
 62
     0
 10
2.43224
 20
91.6615
 30
0.0
 11
1.6316
 21
91.6615
 31
0.0
  0
LINE
  8
0
 62
     0
 10
1.6316
 20
91.6615
 30
0.0
 11
1.6316
 21
88.5624
 31
0.0
  0
LINE
  8
0
 62
     0
 10
1.6316
 20
88.5624
 30
0.0
 11
2.43224
 21
88.5624
 31
0.0
  0
LINE
  8
0
 62
     0
 10
2.43224
 20
88.5624
 30
0.0
 11
2.43224
 21
82.7624
 31
0.0
  0
LINE
  8
0
 62
     0
 10
2.43224
 20
82.7624
 30
0.0
 11
1.6316
 21
82.7624
 31
0.0
  0
LINE
  8
0
 62
     0
 10
1.6316
 20
82.7624
 30
0.0
 11
1.6316
 21
79.6618
 31
0.0
  0
LINE
  8
0
 62
     0
 10
1.6316
 20
79.6618
 30
0.0
 11
2.43224
 21
79.6618
 31
0.0
  0
LINE
  8
0
 62
     0
 10
2.43224
 20
79.6618
 30
0.0
 11
2.43224
 21
78.6624
 31
0.0
  0
LINE
  8
0
 62
     0
 10
2.43224
 20
78.6624
 30
0.0
 11
16.4317
 21
78.6624
 31
0.0
  0
LINE
  8
0
 62
     0
 10
16.4317
 20
78.6624
 30
0.0
 11
16.4317
 21
79.6618
 31
0.0
  0
LINE
  8
0
 62
     0
 10
16.4317
 20
79.6618
 30
0.0
 11
17.2324
 21
79.6618
 31
0.0
  0
LINE
  8
0
 62
     0
 10
17.2324
 20
79.6618
 30
0.0
 11
17.2324
 21
82.7624
 31
0.0
  0
LINE
  8
0
 62
     0
 10
17.2324
 20
82.7624
 30
0.0
 11
16.4317
 21
82.7624
 31
0.0
  0
LINE
  8
0
 62
     0
 10
16.4317
 20
82.7624
 30
0.0
 11
16.4317
 21
88.5624
 31
0.0
  0
LINE
  8
0
 62
     0
 10
16.4317
 20
88.5624
 30
0.0
 11
17.2324
 21
88.5624
 31
0.0
  0
LINE
  8
0
 62
     0
 10
17.2324
 20
88.5624
 30
0.0
 11
17.2324
 21
91.6615
 31
0.0
  0
LINE
  8
0
 62
     0
 10
17.2324
 20
91.6615
 30
0.0
 11
16.4317
 21
91.6615
 31
0.0
  0
LINE
  8
0
 62
     0
 10
16.4317
 20
91.6615
 30
0.0
 11
16.4317
 21
92.662
 31
0.0
  0
LINE
  8
0
 62
     0
 10
16.4317
 20
92.662
 30
0.0
 11
2.43224
 21
92.662
 31
0.0
  0
LINE
  8
0
 62
     0
 10
21.4822
 20
92.662
 30
0.0
 11
21.4822
 21
91.6615
 31
0.0
  0
LINE
  8
0
 62
     0
 10
21.4822
 20
91.6615
 30
0.0
 11
20.6816
 21
91.6615
 31
0.0
  0
LINE
  8
0
 62
     0
 10
20.6816
 20
91.6615
 30
0.0
 11
20.6816
 21
88.5624
 31
0.0
  0
LINE
  8
0
 62
     0
 10
20.6816
 20
88.5624
 30
0.0
 11
21.4822
 21
88.5624
 31
0.0
  0
LINE
  8
0
 62
     0
 10
21.4822
 20
88.5624
 30
0.0
 11
21.4822
 21
82.7624
 31
0.0
  0
LINE
  8
0
 62
     0
 10
21.4822
 20
82.7624
 30
0.0
 11
20.6816
 21
82.7624
 31
0.0
  0
LINE
  8
0
 62
     0
 10
20.6816
 20
82.7624
 30
0.0
 11
20.6816
 21
79.6618
 31
0.0
  0
LINE
  8
0
 62
     0
 10
20.6816
 20
79.6618
 30
0.0
 11
21.4822
 21
79.6618
 31
0.0
  0
LINE
  8
0
 62
     0
 10
21.4822
 20
79.6618
 30
0.0
 11
21.4822
 21
78.6624
 31
0.0
  0
LINE
  8
0
 62
     0
 10
21.4822
 20
78.6624
 30
0.0
 11
35.4817
 21
78.6624
 31
0.0
  0
LINE
  8
0
 62
     0
 10
35.4817
 20
78.6624
 30
0.0
 11
35.4817
 21
79.6618
 31
0.0
  0
LINE
  8
0
 62
     0
 10
35.4817
 20
79.6618
 30
0.0
 11
36.2825
 21
79.6618
 31
0.0
  0
LINE
  8
0
 62
     0
 10
36.2825
 20
79.6618
 30
0.0
 11
36.2825
 21
82.7624
 31
0.0
  0
LINE
  8
0
 62
     0
 10
36.2825
 20
82.7624
 30
0.0
 11
35.4817
 21
82.7624
 31
0.0
  0
LINE
  8
0
 62
     0
 10
35.4817
 20
82.7624
 30
0.0
 11
35.4817
 21
88.5624
 31
0.0
  0
LINE
  8
0
 62
     0
 10
35.4817
 20
88.5624
 30
0.0
 11
36.2825
 21
88.5624
 31
0.0
  0
LINE
  8
0
 62
     0
 10
36.2825
 20
88.5624
 30
0.0
 11
36.2825
 21
91.6615
 31
0.0
  0
LINE
  8
0
 62
     0
 10
36.2825
 20
91.6615
 30
0.0
 11
35.4817
 21
91.6615
 31
0.0
  0
LINE
  8
0
 62
     0
 10
35.4817
 20
91.6615
 30
0.0
 11
35.4817
 21
92.662
 31
0.0
  0
LINE
  8
0
 62
     0
 10
35.4817
 20
92.662
 30
0.0
 11
21.4822
 21
92.662
 31
0.0
  0
LINE
  8
0
 62
     0
 10
40.5324
 20
92.662
 30
0.0
 11
40.5324
 21
91.6615
 31
0.0
  0
LINE
  8
0
 62
     0
 10
40.5324
 20
91.6615
 30
0.0
 11
39.7316
 21
91.6615
 31
0.0
  0
LINE
  8
0
 62
     0
 10
39.7316
 20
91.6615
 30
0.0
 11
39.7316
 21
88.5624
 31
0.0
  0
LINE
  8
0
 62
     0
 10
39.7316
 20
88.5624
 30
0.0
 11
40.5324
 21
88.5624
 31
0.0
  0
LINE
  8
0
 62
     0
 10
40.5324
 20
88.5624
 30
0.0
 11
40.5324
 21
82.7624
 31
0.0
  0
LINE
  8
0
 62
     0
 10
40.5324
 20
82.7624
 30
0.0
 11
39.7316
 21
82.7624
 31
0.0
  0
LINE
  8
0
 62
     0
 10
39.7316
 20
82.7624
 30
0.0
 11
39.7316
 21
79.6618
 31
0.0
  0
LINE
  8
0
 62
     0
 10
39.7316
 20
79.6618
 30
0.0
 11
40.5324
 21
79.6618
 31
0.0
  0
LINE
  8
0
 62
     0
 10
40.5324
 20
79.6618
 30
0.0
 11
40.5324
 21
78.6624
 31
0.0
  0
LINE
  8
0
 62
     0
 10
40.5324
 20
78.6624
 30
0.0
 11
54.5317
 21
78.6624
 31
0.0
  0
LINE
  8
0
 62
     0
 10
54.5317
 20
78.6624
 30
0.0
 11
54.5317
 21
79.6618
 31
0.0
  0
LINE
  8
0
 62
     0
 10
54.5317
 20
79.6618
 30
0.0
 11
55.3311
 21
79.6618
 31
0.0
  0
LINE
  8
0
 62
     0
 10
55.3311
 20
79.6618
 30
0.0
 11
55.3311
 21
82.7624
 31
0.0
  0
LINE
  8
0
 62
     0
 10
55.3311
 20
82.7624
 30
0.0
 11
54.5317
 21
82.7624
 31
0.0
  0
LINE
  8
0
 62
     0
 10
54.5317
 20
82.7624
 30
0.0
 11
54.5317
 21
88.5624
 31
0.0
  0
LINE
  8
0
 62
     0
 10
54.5317
 20
88.5624
 30
0.0
 11
55.3311
 21
88.5624
 31
0.0
  0
LINE
  8
0
 62
     0
 10
55.3311
 20
88.5624
 30
0.0
 11
55.3311
 21
91.6615
 31
0.0
  0
LINE
  8
0
 62
     0
 10
55.3311
 20
91.6615
 30
0.0
 11
54.5317
 21
91.6615
 31
0.0
  0
LINE
  8
0
 62
     0
 10
54.5317
 20
91.6615
 30
0.0
 11
54.5317
 21
92.662
 31
0.0
  0
LINE
  8
0
 62
     0
 10
54.5317
 20
92.662
 30
0.0
 11
40.5324
 21
92.662
 31
0.0
  0
LINE
  8
0
 62
     0
 10
59.581
 20
92.662
 30
0.0
 11
59.581
 21
91.6615
 31
0.0
  0
LINE
  8
0
 62
     0
 10
59.581
 20
91.6615
 30
0.0
 11
58.7816
 21
91.6615
 31
0.0
  0
LINE
  8
0
 62
     0
 10
58.7816
 20
91.6615
 30
0.0
 11
58.7816
 21
88.5624
 31
0.0
  0
LINE
  8
0
 62
     0
 10
58.7816
 20
88.5624
 30
0.0
 11
59.581
 21
88.5624
 31
0.0
  0
LINE
  8
0
 62
     0
 10
59.581
 20
88.5624
 30
0.0
 11
59.581
 21
82.7624
 31
0.0
  0
LINE
  8
0
 62
     0
 10
59.581
 20
82.7624
 30
0.0
 11
58.7816
 21
82.7624
 31
0.0
  0
LINE
  8
0
 62
     0
 10
58.7816
 20
82.7624
 30
0.0
 11
58.7816
 21
79.6618
 31
0.0
  0
LINE
  8
0
 62
     0
 10
58.7816
 20
79.6618
 30
0.0
 11
59.581
 21
79.6618
 31
0.0
  0
LINE
  8
0
 62
     0
 10
59.581
 20
79.6618
 30
0.0
 11
59.581
 21
78.6624
 31
0.0
  0
LINE
  8
0
 62
     0
 10
59.581
 20
78.6624
 30
0.0
 11
73.5817
 21
78.6624
 31
0.0
  0
LINE
  8
0
 62
     0
 10
73.5817
 20
78.6624
 30
0.0
 11
73.5817
 21
79.6618
 31
0.0
  0
LINE
  8
0
 62
     0
 10
73.5817
 20
79.6618
 30
0.0
 11
74.3825
 21
79.6618
 31
0.0
  0
LINE
  8
0
 62
     0
 10
74.3825
 20
79.6618
 30
0.0
 11
74.3825
 21
82.7624
 31
0.0
  0
LINE
  8
0
 62
     0
 10
74.3825
 20
82.7624
 30
0.0
 11
73.5817
 21
82.7624
 31
0.0
  0
LINE
  8
0
 62
     0
 10
73.5817
 20
82.7624
 30
0.0
 11
73.5817
 21
88.5624
 31
0.0
  0
LINE
  8
0
 62
     0
 10
73.5817
 20
88.5624
 30
0.0
 11
74.3825
 21
88.5624
 31
0.0
  0
LINE
  8
0
 62
     0
 10
74.3825
 20
88.5624
 30
0.0
 11
74.3825
 21
91.6615
 31
0.0
  0
LINE
  8
0
 62
     0
 10
74.3825
 20
91.6615
 30
0.0
 11
73.5817
 21
91.6615
 31
0.0
  0
LINE
  8
0
 62
     0
 10
73.5817
 20
91.6615
 30
0.0
 11
73.5817
 21
92.662
 31
0.0
  0
LINE
  8
0
 62
     0
 10
73.5817
 20
92.662
 30
0.0
 11
59.581
 21
92.662
 31
0.0
  0
LINE
  8
0
 62
     0
 10
78.6324
 20
92.662
 30
0.0
 11
78.6324
 21
91.6615
 31
0.0
  0
LINE
  8
0
 62
     0
 10
78.6324
 20
91.6615
 30
0.0
 11
77.8316
 21
91.6615
 31
0.0
  0
LINE
  8
0
 62
     0
 10
77.8316
 20
91.6615
 30
0.0
 11
77.8316
 21
88.5624
 31
0.0
  0
LINE
  8
0
 62
     0
 10
77.8316
 20
88.5624
 30
0.0
 11
78.6324
 21
88.5624
 31
0.0
  0
LINE
  8
0
 62
     0
 10
78.6324
 20
88.5624
 30
0.0
 11
78.6324
 21
82.7624
 31
0.0
  0
LINE
  8
0
 62
     0
 10
78.6324
 20
82.7624
 30
0.0
 11
77.8316
 21
82.7624
 31
0.0
  0
LINE
  8
0
 62
     0
 10
77.8316
 20
82.7624
 30
0.0
 11
77.8316
 21
79.6618
 31
0.0
  0
LINE
  8
0
 62
     0
 10
77.8316
 20
79.6618
 30
0.0
 11
78.6324
 21
79.6618
 31
0.0
  0
LINE
  8
0
 62
     0
 10
78.6324
 20
79.6618
 30
0.0
 11
78.6324
 21
78.6624
 31
0.0
  0
LINE
  8
0
 62
     0
 10
78.6324
 20
78.6624
 30
0.0
 11
92.6317
 21
78.6624
 31
0.0
  0
LINE
  8
0
 62
     0
 10
92.6317
 20
78.6624
 30
0.0
 11
92.6317
 21
79.6618
 31
0.0
  0
LINE
  8
0
 62
     0
 10
92.6317
 20
79.6618
 30
0.0
 11
93.4325
 21
79.6618
 31
0.0
  0
LINE
  8
0
 62
     0
 10
93.4325
 20
79.6618
 30
0.0
 11
93.4325
 21
82.7624
 31
0.0
  0
LINE
  8
0
 62
     0
 10
93.4325
 20
82.7624
 30
0.0
 11
92.6317
 21
82.7624
 31
0.0
  0
LINE
  8
0
 62
     0
 10
92.6317
 20
82.7624
 30
0.0
 11
92.6317
 21
88.5624
 31
0.0
  0
LINE
  8
0
 62
     0
 10
92.6317
 20
88.5624
 30
0.0
 11
93.4325
 21
88.5624
 31
0.0
  0
LINE
  8
0
 62
     0
 10
93.4325
 20
88.5624
 30
0.0
 11
93.4325
 21
91.6615
 31
0.0
  0
LINE
  8
0
 62
     0
 10
93.4325
 20
91.6615
 30
0.0
 11
92.6317
 21
91.6615
 31
0.0
  0
LINE
  8
0
 62
     0
 10
92.6317
 20
91.6615
 30
0.0
 11
92.6317
 21
92.662
 31
0.0
  0
LINE
  8
0
 62
     0
 10
92.6317
 20
92.662
 30
0.0
 11
78.6324
 21
92.662
 31
0.0
  0
LINE
  8
0
 62
     0
 10
97.6824
 20
92.662
 30
0.0
 11
97.6824
 21
91.6615
 31
0.0
  0
LINE
  8
0
 62
     0
 10
97.6824
 20
91.6615
 30
0.0
 11
96.8816
 21
91.6615
 31
0.0
  0
LINE
  8
0
 62
     0
 10
96.8816
 20
91.6615
 30
0.0
 11
96.8816
 21
88.5624
 31
0.0
  0
LINE
  8
0
 62
     0
 10
96.8816
 20
88.5624
 30
0.0
 11
97.6824
 21
88.5624
 31
0.0
  0
LINE
  8
0
 62
     0
 10
97.6824
 20
88.5624
 30
0.0
 11
97.6824
 21
82.7624
 31
0.0
  0
LINE
  8
0
 62
     0
 10
97.6824
 20
82.7624
 30
0.0
 11
96.8816
 21
82.7624
 31
0.0
  0
LINE
  8
0
 62
     0
 10
96.8816
 20
82.7624
 30
0.0
 11
96.8816
 21
79.6618
 31
0.0
  0
LINE
  8
0
 62
     0
 10
96.8816
 20
79.6618
 30
0.0
 11
97.6824
 21
79.6618
 31
0.0
  0
LINE
  8
0
 62
     0
 10
97.6824
 20
79.6618
 30
0.0
 11
97.6824
 21
78.6624
 31
0.0
  0
LINE
  8
0
 62
     0
 10
97.6824
 20
78.6624
 30
0.0
 11
111.682
 21
78.6624
 31
0.0
  0
LINE
  8
0
 62
     0
 10
111.682
 20
78.6624
 30
0.0
 11
111.682
 21
79.6618
 31
0.0
  0
LINE
  8
0
 62
     0
 10
111.682
 20
79.6618
 30
0.0
 11
112.482
 21
79.6618
 31
0.0
  0
LINE
  8
0
 62
     0
 10
112.482
 20
79.6618
 30
0.0
 11
112.482
 21
82.7624
 31
0.0
  0
LINE
  8
0
 62
     0
 10
112.482
 20
82.7624
 30
0.0
 11
111.682
 21
82.7624
 31
0.0
  0
LINE
  8
0
 62
     0
 10
111.682
 20
82.7624
 30
0.0
 11
111.682
 21
88.5624
 31
0.0
  0
LINE
  8
0
 62
     0
 10
111.682
 20
88.5624
 30
0.0
 11
112.482
 21
88.5624
 31
0.0
  0
LINE
  8
0
 62
     0
 10
112.482
 20
88.5624
 30
0.0
 11
112.482
 21
91.6615
 31
0.0
  0
LINE
  8
0
 62
     0
 10
112.482
 20
91.6615
 30
0.0
 11
111.682
 21
91.6615
 31
0.0
  0
LINE
  8
0
 62
     0
 10
111.682
 20
91.6615
 30
0.0
 11
111.682
 21
92.662
 31
0.0
  0
LINE
  8
0
 62
     0
 10
111.682
 20
92.662
 30
0.0
 11
97.6824
 21
92.662
 31
0.0
  0
LINE
  8
0
 62
     0
 10
116.732
 20
92.662
 30
0.0
 11
116.732
 21
91.6615
 31
0.0
  0
LINE
  8
0
 62
     0
 10
116.732
 20
91.6615
 30
0.0
 11
115.932
 21
91.6615
 31
0.0
  0
LINE
  8
0
 62
     0
 10
115.932
 20
91.6615
 30
0.0
 11
115.932
 21
88.5624
 31
0.0
  0
LINE
  8
0
 62
     0
 10
115.932
 20
88.5624
 30
0.0
 11
116.732
 21
88.5624
 31
0.0
  0
LINE
  8
0
 62
     0
 10
116.732
 20
88.5624
 30
0.0
 11
116.732
 21
82.7624
 31
0.0
  0
LINE
  8
0
 62
     0
 10
116.732
 20
82.7624
 30
0.0
 11
115.932
 21
82.7624
 31
0.0
  0
LINE
  8
0
 62
     0
 10
115.932
 20
82.7624
 30
0.0
 11
115.932
 21
79.6618
 31
0.0
  0
LINE
  8
0
 62
     0
 10
115.932
 20
79.6618
 30
0.0
 11
116.732
 21
79.6618
 31
0.0
  0
LINE
  8
0
 62
     0
 10
116.732
 20
79.6618
 30
0.0
 11
116.732
 21
78.6624
 31
0.0
  0
LINE
  8
0
 62
     0
 10
116.732
 20
78.6624
 30
0.0
 11
130.732
 21
78.6624
 31
0.0
  0
LINE
  8
0
 62
     0
 10
130.732
 20
78.6624
 30
0.0
 11
130.732
 21
79.6618
 31
0.0
  0
LINE
  8
0
 62
     0
 10
130.732
 20
79.6618
 30
0.0
 11
131.532
 21
79.6618
 31
0.0
  0
LINE
  8
0
 62
     0
 10
131.532
 20
79.6618
 30
0.0
 11
131.532
 21
82.7624
 31
0.0
  0
LINE
  8
0
 62
     0
 10
131.532
 20
82.7624
 30
0.0
 11
130.732
 21
82.7624
 31
0.0
  0
LINE
  8
0
 62
     0
 10
130.732
 20
82.7624
 30
0.0
 11
130.732
 21
88.5624
 31
0.0
  0
LINE
  8
0
 62
     0
 10
130.732
 20
88.5624
 30
0.0
 11
131.532
 21
88.5624
 31
0.0
  0
LINE
  8
0
 62
     0
 10
131.532
 20
88.5624
 30
0.0
 11
131.532
 21
91.6615
 31
0.0
  0
LINE
  8
0
 62
     0
 10
131.532
 20
91.6615
 30
0.0
 11
130.732
 21
91.6615
 31
0.0
  0
LINE
  8
0
 62
     0
 10
130.732
 20
91.6615
 30
0.0
 11
130.732
 21
92.662
 31
0.0
  0
LINE
  8
0
 62
     0
 10
130.732
 20
92.662
 30
0.0
 11
116.732
 21
92.662
 31
0.0
  0
LINE
  8
0
 62
     0
 10
135.782
 20
92.662
 30
0.0
 11
135.782
 21
91.6615
 31
0.0
  0
LINE
  8
0
 62
     0
 10
135.782
 20
91.6615
 30
0.0
 11
134.982
 21
91.6615
 31
0.0
  0
LINE
  8
0
 62
     0
 10
134.982
 20
91.6615
 30
0.0
 11
134.982
 21
88.5624
 31
0.0
  0
LINE
  8
0
 62
     0
 10
134.982
 20
88.5624
 30
0.0
 11
135.782
 21
88.5624
 31
0.0
  0
LINE
  8
0
 62
     0
 10
135.782
 20
88.5624
 30
0.0
 11
135.782
 21
82.7624
 31
0.0
  0
LINE
  8
0
 62
     0
 10
135.782
 20
82.7624
 30
0.0
 11
134.982
 21
82.7624
 31
0.0
  0
LINE
  8
0
 62
     0
 10
134.982
 20
82.7624
 30
0.0
 11
134.982
 21
79.6618
 31
0.0
  0
LINE
  8
0
 62
     0
 10
134.982
 20
79.6618
 30
0.0
 11
135.782
 21
79.6618
 31
0.0
  0
LINE
  8
0
 62
     0
 10
135.782
 20
79.6618
 30
0.0
 11
135.782
 21
78.6624
 31
0.0
  0
LINE
  8
0
 62
     0
 10
135.782
 20
78.6624
 30
0.0
 11
149.782
 21
78.6624
 31
0.0
  0
LINE
  8
0
 62
     0
 10
149.782
 20
78.6624
 30
0.0
 11
149.782
 21
79.6618
 31
0.0
  0
LINE
  8
0
 62
     0
 10
149.782
 20
79.6618
 30
0.0
 11
150.581
 21
79.6618
 31
0.0
  0
LINE
  8
0
 62
     0
 10
150.581
 20
79.6618
 30
0.0
 11
150.581
 21
82.7624
 31
0.0
  0
LINE
  8
0
 62
     0
 10
150.581
 20
82.7624
 30
0.0
 11
149.782
 21
82.7624
 31
0.0
  0
LINE
  8
0
 62
     0
 10
149.782
 20
82.7624
 30
0.0
 11
149.782
 21
88.5624
 31
0.0
  0
LINE
  8
0
 62
     0
 10
149.782
 20
88.5624
 30
0.0
 11
150.581
 21
88.5624
 31
0.0
  0
LINE
  8
0
 62
     0
 10
150.581
 20
88.5624
 30
0.0
 11
150.581
 21
91.6615
 31
0.0
  0
LINE
  8
0
 62
     0
 10
150.581
 20
91.6615
 30
0.0
 11
149.782
 21
91.6615
 31
0.0
  0
LINE
  8
0
 62
     0
 10
149.782
 20
91.6615
 30
0.0
 11
149.782
 21
92.662
 31
0.0
  0
LINE
  8
0
 62
     0
 10
149.782
 20
92.662
 30
0.0
 11
135.782
 21
92.662
 31
0.0
  0
LINE
  8
0
 62
     0
 10
154.831
 20
92.662
 30
0.0
 11
154.831
 21
91.6615
 31
0.0
  0
LINE
  8
0
 62
     0
 10
154.831
 20
91.6615
 30
0.0
 11
154.032
 21
91.6615
 31
0.0
  0
LINE
  8
0
 62
     0
 10
154.032
 20
91.6615
 30
0.0
 11
154.032
 21
88.5624
 31
0.0
  0
LINE
  8
0
 62
     0
 10
154.032
 20
88.5624
 30
0.0
 11
154.831
 21
88.5624
 31
0.0
  0
LINE
  8
0
 62
     0
 10
154.831
 20
88.5624
 30
0.0
 11
154.831
 21
82.7624
 31
0.0
  0
LINE
  8
0
 62
     0
 10
154.831
 20
82.7624
 30
0.0
 11
154.032
 21
82.7624
 31
0.0
  0
LINE
  8
0
 62
     0
 10
154.032
 20
82.7624
 30
0.0
 11
154.032
 21
79.6618
 31
0.0
  0
LINE
  8
0
 62
     0
 10
154.032
 20
79.6618
 30
0.0
 11
154.831
 21
79.6618
 31
0.0
  0
LINE
  8
0
 62
     0
 10
154.831
 20
79.6618
 30
0.0
 11
154.831
 21
78.6624
 31
0.0
  0
LINE
  8
0
 62
     0
 10
154.831
 20
78.6624
 30
0.0
 11
168.832
 21
78.6624
 31
0.0
  0
LINE
  8
0
 62
     0
 10
168.832
 20
78.6624
 30
0.0
 11
168.832
 21
79.6618
 31
0.0
  0
LINE
  8
0
 62
     0
 10
168.832
 20
79.6618
 30
0.0
 11
169.632
 21
79.6618
 31
0.0
  0
LINE
  8
0
 62
     0
 10
169.632
 20
79.6618
 30
0.0
 11
169.632
 21
82.7624
 31
0.0
  0
LINE
  8
0
 62
     0
 10
169.632
 20
82.7624
 30
0.0
 11
168.832
 21
82.7624
 31
0.0
  0
LINE
  8
0
 62
     0
 10
168.832
 20
82.7624
 30
0.0
 11
168.832
 21
88.5624
 31
0.0
  0
LINE
  8
0
 62
     0
 10
168.832
 20
88.5624
 30
0.0
 11
169.632
 21
88.5624
 31
0.0
  0
LINE
  8
0
 62
     0
 10
169.632
 20
88.5624
 30
0.0
 11
169.632
 21
91.6615
 31
0.0
  0
LINE
  8
0
 62
     0
 10
169.632
 20
91.6615
 30
0.0
 11
168.832
 21
91.6615
 31
0.0
  0
LINE
  8
0
 62
     0
 10
168.832
 20
91.6615
 30
0.0
 11
168.832
 21
92.662
 31
0.0
  0
LINE
  8
0
 62
     0
 10
168.832
 20
92.662
 30
0.0
 11
154.831
 21
92.662
 31
0.0
  0
LINE
  8
0
 62
     0
 10
173.882
 20
92.662
 30
0.0
 11
173.882
 21
91.6615
 31
0.0
  0
LINE
  8
0
 62
     0
 10
173.882
 20
91.6615
 30
0.0
 11
173.082
 21
91.6615
 31
0.0
  0
LINE
  8
0
 62
     0
 10
173.082
 20
91.6615
 30
0.0
 11
173.082
 21
88.5624
 31
0.0
  0
LINE
  8
0
 62
     0
 10
173.082
 20
88.5624
 30
0.0
 11
173.882
 21
88.5624
 31
0.0
  0
LINE
  8
0
 62
     0
 10
173.882
 20
88.5624
 30
0.0
 11
173.882
 21
82.7624
 31
0.0
  0
LINE
  8
0
 62
     0
 10
173.882
 20
82.7624
 30
0.0
 11
173.082
 21
82.7624
 31
0.0
  0
LINE
  8
0
 62
     0
 10
173.082
 20
82.7624
 30
0.0
 11
173.082
 21
79.6618
 31
0.0
  0
LINE
  8
0
 62
     0
 10
173.082
 20
79.6618
 30
0.0
 11
173.882
 21
79.6618
 31
0.0
  0
LINE
  8
0
 62
     0
 10
173.882
 20
79.6618
 30
0.0
 11
173.882
 21
78.6624
 31
0.0
  0
LINE
  8
0
 62
     0
 10
173.882
 20
78.6624
 30
0.0
 11
187.882
 21
78.6624
 31
0.0
  0
LINE
  8
0
 62
     0
 10
187.882
 20
78.6624
 30
0.0
 11
187.882
 21
79.6618
 31
0.0
  0
LINE
  8
0
 62
     0
 10
187.882
 20
79.6618
 30
0.0
 11
188.681
 21
79.6618
 31
0.0
  0
LINE
  8
0
 62
     0
 10
188.681
 20
79.6618
 30
0.0
 11
188.681
 21
82.7624
 31
0.0
  0
LINE
  8
0
 62
     0
 10
188.681
 20
82.7624
 30
0.0
 11
187.882
 21
82.7624
 31
0.0
  0
LINE
  8
0
 62
     0
 10
187.882
 20
82.7624
 30
0.0
 11
187.882
 21
88.5624
 31
0.0
  0
LINE
  8
0
 62
     0
 10
187.882
 20
88.5624
 30
0.0
 11
188.681
 21
88.5624
 31
0.0
  0
LINE
  8
0
 62
     0
 10
188.681
 20
88.5624
 30
0.0
 11
188.681
 21
91.6615
 31
0.0
  0
LINE
  8
0
 62
     0
 10
188.681
 20
91.6615
 30
0.0
 11
187.882
 21
91.6615
 31
0.0
  0
LINE
  8
0
 62
     0
 10
187.882
 20
91.6615
 30
0.0
 11
187.882
 21
92.662
 31
0.0
  0
LINE
  8
0
 62
     0
 10
187.882
 20
92.662
 30
0.0
 11
173.882
 21
92.662
 31
0.0
  0
LINE
  8
0
 62
     0
 10
192.931
 20
92.662
 30
0.0
 11
192.931
 21
91.6615
 31
0.0
  0
LINE
  8
0
 62
     0
 10
192.931
 20
91.6615
 30
0.0
 11
192.132
 21
91.6615
 31
0.0
  0
LINE
  8
0
 62
     0
 10
192.132
 20
91.6615
 30
0.0
 11
192.132
 21
88.5624
 31
0.0
  0
LINE
  8
0
 62
     0
 10
192.132
 20
88.5624
 30
0.0
 11
192.931
 21
88.5624
 31
0.0
  0
LINE
  8
0
 62
     0
 10
192.931
 20
88.5624
 30
0.0
 11
192.931
 21
82.7624
 31
0.0
  0
LINE
  8
0
 62
     0
 10
192.931
 20
82.7624
 30
0.0
 11
192.132
 21
82.7624
 31
0.0
  0
LINE
  8
0
 62
     0
 10
192.132
 20
82.7624
 30
0.0
 11
192.132
 21
79.6618
 31
0.0
  0
LINE
  8
0
 62
     0
 10
192.132
 20
79.6618
 30
0.0
 11
192.931
 21
79.6618
 31
0.0
  0
LINE
  8
0
 62
     0
 10
192.931
 20
79.6618
 30
0.0
 11
192.931
 21
78.6624
 31
0.0
  0
LINE
  8
0
 62
     0
 10
192.931
 20
78.6624
 30
0.0
 11
206.932
 21
78.6624
 31
0.0
  0
LINE
  8
0
 62
     0
 10
206.932
 20
78.6624
 30
0.0
 11
206.932
 21
79.6618
 31
0.0
  0
LINE
  8
0
 62
     0
 10
206.932
 20
79.6618
 30
0.0
 11
207.732
 21
79.6618
 31
0.0
  0
LINE
  8
0
 62
     0
 10
207.732
 20
79.6618
 30
0.0
 11
207.732
 21
82.7624
 31
0.0
  0
LINE
  8
0
 62
     0
 10
207.732
 20
82.7624
 30
0.0
 11
206.932
 21
82.7624
 31
0.0
  0
LINE
  8
0
 62
     0
 10
206.932
 20
82.7624
 30
0.0
 11
206.932
 21
88.5624
 31
0.0
  0
LINE
  8
0
 62
     0
 10
206.932
 20
88.5624
 30
0.0
 11
207.732
 21
88.5624
 31
0.0
  0
LINE
  8
0
 62
     0
 10
207.732
 20
88.5624
 30
0.0
 11
207.732
 21
91.6615
 31
0.0
  0
LINE
  8
0
 62
     0
 10
207.732
 20
91.6615
 30
0.0
 11
206.932
 21
91.6615
 31
0.0
  0
LINE
  8
0
 62
     0
 10
206.932
 20
91.6615
 30
0.0
 11
206.932
 21
92.662
 31
0.0
  0
LINE
  8
0
 62
     0
 10
206.932
 20
92.662
 30
0.0
 11
192.931
 21
92.662
 31
0.0
  0
LINE
  8
0
 62
     0
 10
211.982
 20
92.662
 30
0.0
 11
211.982
 21
91.6615
 31
0.0
  0
LINE
  8
0
 62
     0
 10
211.982
 20
91.6615
 30
0.0
 11
211.182
 21
91.6615
 31
0.0
  0
LINE
  8
0
 62
     0
 10
211.182
 20
91.6615
 30
0.0
 11
211.182
 21
88.5624
 31
0.0
  0
LINE
  8
0
 62
     0
 10
211.182
 20
88.5624
 30
0.0
 11
211.982
 21
88.5624
 31
0.0
  0
LINE
  8
0
 62
     0
 10
211.982
 20
88.5624
 30
0.0
 11
211.982
 21
82.7624
 31
0.0
  0
LINE
  8
0
 62
     0
 10
211.982
 20
82.7624
 30
0.0
 11
211.182
 21
82.7624
 31
0.0
  0
LINE
  8
0
 62
     0
 10
211.182
 20
82.7624
 30
0.0
 11
211.182
 21
79.6618
 31
0.0
  0
LINE
  8
0
 62
     0
 10
211.182
 20
79.6618
 30
0.0
 11
211.982
 21
79.6618
 31
0.0
  0
LINE
  8
0
 62
     0
 10
211.982
 20
79.6618
 30
0.0
 11
211.982
 21
78.6624
 31
0.0
  0
LINE
  8
0
 62
     0
 10
211.982
 20
78.6624
 30
0.0
 11
225.982
 21
78.6624
 31
0.0
  0
LINE
  8
0
 62
     0
 10
225.982
 20
78.6624
 30
0.0
 11
225.982
 21
79.6618
 31
0.0
  0
LINE
  8
0
 62
     0
 10
225.982
 20
79.6618
 30
0.0
 11
226.782
 21
79.6618
 31
0.0
  0
LINE
  8
0
 62
     0
 10
226.782
 20
79.6618
 30
0.0
 11
226.782
 21
82.7624
 31
0.0
  0
LINE
  8
0
 62
     0
 10
226.782
 20
82.7624
 30
0.0
 11
225.982
 21
82.7624
 31
0.0
  0
LINE
  8
0
 62
     0
 10
225.982
 20
82.7624
 30
0.0
 11
225.982
 21
88.5624
 31
0.0
  0
LINE
  8
0
 62
     0
 10
225.982
 20
88.5624
 30
0.0
 11
226.782
 21
88.5624
 31
0.0
  0
LINE
  8
0
 62
     0
 10
226.782
 20
88.5624
 30
0.0
 11
226.782
 21
91.6615
 31
0.0
  0
LINE
  8
0
 62
     0
 10
226.782
 20
91.6615
 30
0.0
 11
225.982
 21
91.6615
 31
0.0
  0
LINE
  8
0
 62
     0
 10
225.982
 20
91.6615
 30
0.0
 11
225.982
 21
92.662
 31
0.0
  0
LINE
  8
0
 62
     0
 10
225.982
 20
92.662
 30
0.0
 11
211.982
 21
92.662
 31
0.0
  0
LINE
  8
0
 62
     0
 10
231.032
 20
92.662
 30
0.0
 11
231.032
 21
91.6615
 31
0.0
  0
LINE
  8
0
 62
     0
 10
231.032
 20
91.6615
 30
0.0
 11
230.232
 21
91.6615
 31
0.0
  0
LINE
  8
0
 62
     0
 10
230.232
 20
91.6615
 30
0.0
 11
230.232
 21
88.5624
 31
0.0
  0
LINE
  8
0
 62
     0
 10
230.232
 20
88.5624
 30
0.0
 11
231.032
 21
88.5624
 31
0.0
  0
LINE
  8
0
 62
     0
 10
231.032
 20
88.5624
 30
0.0
 11
231.032
 21
82.7624
 31
0.0
  0
LINE
  8
0
 62
     0
 10
231.032
 20
82.7624
 30
0.0
 11
230.232
 21
82.7624
 31
0.0
  0
LINE
  8
0
 62
     0
 10
230.232
 20
82.7624
 30
0.0
 11
230.232
 21
79.6618
 31
0.0
  0
LINE
  8
0
 62
     0
 10
230.232
 20
79.6618
 30
0.0
 11
231.032
 21
79.6618
 31
0.0
  0
LINE
  8
0
 62
     0
 10
231.032
 20
79.6618
 30
0.0
 11
231.032
 21
78.6624
 31
0.0
  0
LINE
  8
0
 62
     0
 10
231.032
 20
78.6624
 30
0.0
 11
245.032
 21
78.6624
 31
0.0
  0
LINE
  8
0
 62
     0
 10
245.032
 20
78.6624
 30
0.0
 11
245.032
 21
79.6618
 31
0.0
  0
LINE
  8
0
 62
     0
 10
245.032
 20
79.6618
 30
0.0
 11
245.831
 21
79.6618
 31
0.0
  0
LINE
  8
0
 62
     0
 10
245.831
 20
79.6618
 30
0.0
 11
245.831
 21
82.7624
 31
0.0
  0
LINE
  8
0
 62
     0
 10
245.831
 20
82.7624
 30
0.0
 11
245.032
 21
82.7624
 31
0.0
  0
LINE
  8
0
 62
     0
 10
245.032
 20
82.7624
 30
0.0
 11
245.032
 21
88.5624
 31
0.0
  0
LINE
  8
0
 62
     0
 10
245.032
 20
88.5624
 30
0.0
 11
245.831
 21
88.5624
 31
0.0
  0
LINE
  8
0
 62
     0
 10
245.831
 20
88.5624
 30
0.0
 11
245.831
 21
91.6615
 31
0.0
  0
LINE
  8
0
 62
     0
 10
245.831
 20
91.6615
 30
0.0
 11
245.032
 21
91.6615
 31
0.0
  0
LINE
  8
0
 62
     0
 10
245.032
 20
91.6615
 30
0.0
 11
245.032
 21
92.662
 31
0.0
  0
LINE
  8
0
 62
     0
 10
245.032
 20
92.662
 30
0.0
 11
231.032
 21
92.662
 31
0.0
  0
LINE
  8
0
 62
     0
 10
250.081
 20
92.662
 30
0.0
 11
250.081
 21
91.6615
 31
0.0
  0
LINE
  8
0
 62
     0
 10
250.081
 20
91.6615
 30
0.0
 11
249.282
 21
91.6615
 31
0.0
  0
LINE
  8
0
 62
     0
 10
249.282
 20
91.6615
 30
0.0
 11
249.282
 21
88.5624
 31
0.0
  0
LINE
  8
0
 62
     0
 10
249.282
 20
88.5624
 30
0.0
 11
250.081
 21
88.5624
 31
0.0
  0
LINE
  8
0
 62
     0
 10
250.081
 20
88.5624
 30
0.0
 11
250.081
 21
82.7624
 31
0.0
  0
LINE
  8
0
 62
     0
 10
250.081
 20
82.7624
 30
0.0
 11
249.282
 21
82.7624
 31
0.0
  0
LINE
  8
0
 62
     0
 10
249.282
 20
82.7624
 30
0.0
 11
249.282
 21
79.6618
 31
0.0
  0
LINE
  8
0
 62
     0
 10
249.282
 20
79.6618
 30
0.0
 11
250.081
 21
79.6618
 31
0.0
  0
LINE
  8
0
 62
     0
 10
250.081
 20
79.6618
 30
0.0
 11
250.081
 21
78.6624
 31
0.0
  0
LINE
  8
0
 62
     0
 10
250.081
 20
78.6624
 30
0.0
 11
264.082
 21
78.6624
 31
0.0
  0
LINE
  8
0
 62
     0
 10
264.082
 20
78.6624
 30
0.0
 11
264.082
 21
79.6618
 31
0.0
  0
LINE
  8
0
 62
     0
 10
264.082
 20
79.6618
 30
0.0
 11
264.881
 21
79.6618
 31
0.0
  0
LINE
  8
0
 62
     0
 10
264.881
 20
79.6618
 30
0.0
 11
264.881
 21
82.7624
 31
0.0
  0
LINE
  8
0
 62
     0
 10
264.881
 20
82.7624
 30
0.0
 11
264.082
 21
82.7624
 31
0.0
  0
LINE
  8
0
 62
     0
 10
264.082
 20
82.7624
 30
0.0
 11
264.082
 21
88.5624
 31
0.0
  0
LINE
  8
0
 62
     0
 10
264.082
 20
88.5624
 30
0.0
 11
264.881
 21
88.5624
 31
0.0
  0
LINE
  8
0
 62
     0
 10
264.881
 20
88.5624
 30
0.0
 11
264.881
 21
91.6615
 31
0.0
  0
LINE
  8
0
 62
     0
 10
264.881
 20
91.6615
 30
0.0
 11
264.082
 21
91.6615
 31
0.0
  0
LINE
  8
0
 62
     0
 10
264.082
 20
91.6615
 30
0.0
 11
264.082
 21
92.662
 31
0.0
  0
LINE
  8
0
 62
     0
 10
264.082
 20
92.662
 30
0.0
 11
250.081
 21
92.662
 31
0.0
  0
LINE
  8
0
 62
     0
 10
269.131
 20
92.662
 30
0.0
 11
269.131
 21
91.6615
 31
0.0
  0
LINE
  8
0
 62
     0
 10
269.131
 20
91.6615
 30
0.0
 11
268.332
 21
91.6615
 31
0.0
  0
LINE
  8
0
 62
     0
 10
268.332
 20
91.6615
 30
0.0
 11
268.332
 21
88.5624
 31
0.0
  0
LINE
  8
0
 62
     0
 10
268.332
 20
88.5624
 30
0.0
 11
269.131
 21
88.5624
 31
0.0
  0
LINE
  8
0
 62
     0
 10
269.131
 20
88.5624
 30
0.0
 11
269.131
 21
82.7624
 31
0.0
  0
LINE
  8
0
 62
     0
 10
269.131
 20
82.7624
 30
0.0
 11
268.332
 21
82.7624
 31
0.0
  0
LINE
  8
0
 62
     0
 10
268.332
 20
82.7624
 30
0.0
 11
268.332
 21
79.6618
 31
0.0
  0
LINE
  8
0
 62
     0
 10
268.332
 20
79.6618
 30
0.0
 11
269.131
 21
79.6618
 31
0.0
  0
LINE
  8
0
 62
     0
 10
269.131
 20
79.6618
 30
0.0
 11
269.131
 21
78.6624
 31
0.0
  0
LINE
  8
0
 62
     0
 10
269.131
 20
78.6624
 30
0.0
 11
283.132
 21
78.6624
 31
0.0
  0
LINE
  8
0
 62
     0
 10
283.132
 20
78.6624
 30
0.0
 11
283.132
 21
79.6618
 31
0.0
  0
LINE
  8
0
 62
     0
 10
283.132
 20
79.6618
 30
0.0
 11
283.931
 21
79.6618
 31
0.0
  0
LINE
  8
0
 62
     0
 10
283.931
 20
79.6618
 30
0.0
 11
283.931
 21
82.7624
 31
0.0
  0
LINE
  8
0
 62
     0
 10
283.931
 20
82.7624
 30
0.0
 11
283.132
 21
82.7624
 31
0.0
  0
LINE
  8
0
 62
     0
 10
283.132
 20
82.7624
 30
0.0
 11
283.132
 21
88.5624
 31
0.0
  0
LINE
  8
0
 62
     0
 10
283.132
 20
88.5624
 30
0.0
 11
283.931
 21
88.5624
 31
0.0
  0
LINE
  8
0
 62
     0
 10
283.931
 20
88.5624
 30
0.0
 11
283.931
 21
91.6615
 31
0.0
  0
LINE
  8
0
 62
     0
 10
283.931
 20
91.6615
 30
0.0
 11
283.132
 21
91.6615
 31
0.0
  0
LINE
  8
0
 62
     0
 10
283.132
 20
91.6615
 30
0.0
 11
283.132
 21
92.662
 31
0.0
  0
LINE
  8
0
 62
     0
 10
283.132
 20
92.662
 30
0.0
 11
269.131
 21
92.662
 31
0.0
  0
ENDSEC
  0
EOF
